<?xml version="1.0" encoding="UTF-8" standalone="no"?>
<!DOCTYPE svg PUBLIC "-//W3C//DTD SVG 1.1//EN" "http://www.w3.org/Graphics/SVG/1.1/DTD/svg11.dtd">
<svg width="100%" height="100%" viewBox="0 0 375 310" version="1.1" xmlns="http://www.w3.org/2000/svg" xmlns:xlink="http://www.w3.org/1999/xlink" xml:space="preserve" xmlns:serif="http://www.serif.com/" style="fill-rule:evenodd;clip-rule:evenodd;stroke-linejoin:round;stroke-miterlimit:2;">
    <g transform="matrix(1,0,0,1,-297.985749,-604.104465)">
        <g>
            <g transform="matrix(1.786133,0,0,1.786133,21,12)">
                <path d="M345.399,398.507C346.134,412.794 345.187,413.092 344.416,416.482C342.134,426.526 337.549,435.745 327.765,443.825C325.833,445.42 325.71,445.238 323.759,446.83C322.841,447.579 320.409,449.563 310.42,453.261C309.6,453.565 304.104,454.647 303.552,454.756C300.055,455.445 301.15,458.778 300.274,461.428C295.882,474.71 292.977,477.14 288.62,482.594C288.087,483.261 286.375,485.404 280.612,489.66C276.406,492.765 276.21,492.424 273.282,494.102C269.825,496.082 263.085,497.97 261.461,498.255C257.148,499.011 245.679,499.33 240.393,497.836C231.719,495.386 230.822,494.991 222.403,489.66C220.153,488.236 220.222,487.826 217.487,485.513C215.853,484.132 211.354,478.642 209.772,476.321C209.411,475.792 207.955,473.658 205.876,469.329C205.182,467.885 202.349,459.556 202.126,457.542C200.783,445.472 202.366,439.115 202.753,437.563C203.608,434.127 201.389,434.35 196.657,431.257C193.651,429.292 193.699,429.244 190.866,427.042C189.235,425.774 185.921,421.95 185.516,421.484C181.677,417.054 182.012,416.827 179.023,411.766C178.677,411.18 175.538,404.197 175.162,401.552C174.097,394.062 173.862,394.084 173.943,386.508C173.963,384.591 175.137,376.227 175.785,374.614C179.289,365.897 181.225,360.498 191.367,351.353C198.313,345.09 210.919,339.673 222.504,339.627C223.386,339.624 228.826,339.603 233.501,340.496C233.825,340.558 233.796,340.642 237.465,341.624C242.979,343.1 249.049,346.455 249.384,346.682C253.269,349.314 255.394,350.735 259.744,355.271C266.546,362.366 265.908,364.578 267.401,364.835C269.645,365.222 269.362,363.221 277.391,360.187C279.577,359.36 280.436,358.579 285.466,357.368C285.94,357.254 285.947,357.33 291.467,356.325C292.696,356.101 299.834,355.622 303.513,356.444C308.978,357.666 309.159,357.011 314.568,359.328C318.517,361.02 320.101,361.187 326.76,366.137C330.804,369.143 330.404,369.574 332.54,371.462C334.898,373.546 337.927,378.292 338.585,379.445C341.695,384.895 342.144,385.028 344.612,394.472C345.133,396.465 345.191,396.435 345.399,398.507ZM262.448,399.814C263.952,400.246 263.941,400.197 265.446,400.676C273.823,403.347 273.616,403.837 275.763,405.017C278.102,406.303 278.133,406.224 280.31,407.764C282.043,408.99 282.124,408.866 283.679,410.303C288.104,414.39 290.466,416.104 294.757,423.355C297.245,427.561 300.415,436.175 300.703,438.472C300.792,439.187 301.767,446.968 301.893,447.397C302.404,449.138 304.301,448.716 304.529,448.665C309.711,447.51 311.805,446.564 312.405,446.293C317.735,443.883 317.693,443.809 322.527,440.535C325.391,438.596 330.723,432.572 331.027,432.137C339.597,419.922 339.773,409.596 339.809,407.504C339.976,397.681 338.229,392.717 336.177,387.614C335.362,385.587 331.506,378.782 327.329,374.671C317.585,365.079 307.898,363.496 307.537,363.386C302.771,361.928 300.631,361.659 294.504,361.868C293.52,361.902 289.296,362.046 282.485,364.461C281.842,364.689 275.523,367.431 274.318,368.184C259.129,377.677 256.112,389.925 254.527,395.508C254.48,395.671 254.043,397.212 254.103,397.589C254.384,399.353 257.115,399.216 262.448,399.814ZM227.483,345.931C222.094,345.66 222.11,345.799 218.484,346.008C203.53,346.87 190.152,357.694 184.073,370.289C180.867,376.931 181.465,377.133 180.694,380.543C180.082,383.251 179.751,383.225 179.771,389.5C179.788,395.1 180.13,395.063 181.189,400.57C182.226,405.967 186.892,415.589 194.618,422.368C195.156,422.841 202.785,428.816 204.511,428.742C206.472,428.658 207.583,424.518 208.785,422.684C209.003,422.351 210.388,420.237 211.674,418.64C215.665,413.685 217.807,411.906 218.416,411.4C226.87,404.377 233.246,402.349 236.401,401.228C245.058,398.151 245.925,400.182 247.405,398.426C248.169,397.519 249.357,390.015 250.986,386.736C253.003,382.678 252.909,382.641 253.103,382.299C259.511,371.029 262.621,371.475 261.723,368.423C261.34,367.121 257.332,361.687 257.309,361.66C244.09,345.604 228.588,346.01 227.483,345.931ZM247.49,492.75C259.267,493.491 263.536,492.002 268.61,489.743C270.969,488.693 278.54,486.066 287.076,475.157C287.334,474.827 287.275,474.792 289.976,470.798C291.839,468.041 291.214,467.744 292.804,464.641C294.592,461.154 296.435,449.771 295.683,445.472C293.943,435.527 293.925,435.507 292.217,431.631C291.079,429.049 291.406,428.891 289.182,425.708C287.249,422.941 283.201,415.766 272.328,409.811C272.298,409.795 266.949,407.32 265.406,406.804C262.088,405.693 258.156,405.358 257.516,405.304C253.784,404.985 253.33,404.073 247.598,404.989C241.517,405.961 240.611,405.745 232.373,409.215C231.881,409.422 225.894,412.793 223.719,414.743C222.532,415.808 214.823,422.723 211.535,430.516C209.288,435.842 207.24,439.797 207.723,452.493C207.845,455.694 208.817,460.388 209.999,463.29C211.369,466.653 213.763,473.628 221.763,481.212C223.077,482.458 230.208,489.218 241.577,492.151C242.966,492.51 247.015,492.725 247.49,492.75Z" style="fill:rgb(14,14,12);"/>
            </g>
            <g transform="matrix(1.786133,0,0,1.786133,21,12)">
                <path d="M314.39,370.752C318.346,373.036 318.187,373.312 319.877,376.273C322.313,380.543 327.8,381.126 329.587,385.46C331.233,389.452 328.885,392.08 328.506,392.505C327.456,393.68 325.837,394.52 325.644,396.514C325.513,397.875 326.184,404.758 318.511,404.322C312.962,404.008 313.208,399.379 307.52,399.054C306.969,399.022 298.743,399.402 296.412,393.537C294.756,389.369 297.533,388.67 294.889,384.26C294.584,383.75 290.269,378.217 293.833,373.776C295.938,371.153 300.03,372.049 300.572,372.168C307.24,373.628 307.254,368.991 312.562,370.184C312.711,370.217 312.697,370.226 314.39,370.752ZM304.5,378.399C304.174,378.362 303.843,378.383 303.517,378.346C302.21,378.2 298.732,376.583 298.553,378.511C298.323,380.985 302.533,380.934 301.853,388.545C301.678,390.501 301.285,391.599 303.324,392.839C306.431,394.729 309.896,391.359 315.558,396.434C318.601,399.162 318.916,398.664 319.497,398.494C321.646,397.865 318.123,393.075 322.587,389.61C323.692,388.752 324.043,388.795 323.84,387.423C323.585,385.704 321.194,386.329 316.701,381.333C312.954,377.167 313.448,374.552 309.432,376.378C309.107,376.525 307.993,377.333 306.651,377.868C305.097,378.486 305.049,378.263 304.5,378.399Z" style="fill:rgb(14,14,12);"/>
            </g>
            <g transform="matrix(1.786133,0,0,1.786133,21,12)">
                <path d="M232.466,483.672C232.164,483.57 230.008,482.836 228.85,482.015C228.624,481.855 227.26,480.887 226.414,479.559C223.701,475.299 225.895,474.282 222.811,470.264C217.072,462.786 220.898,457.83 226.503,457.79C228.017,457.779 227.991,457.887 229.506,457.86C233.335,457.792 234.917,452.459 240.587,454.195C246.554,456.021 246.966,461.78 250.781,464.002C251.347,464.332 258.79,466.093 259.211,471.531C259.544,475.821 256.039,477.767 254.571,478.61C252.904,479.568 252.962,481.081 252.728,482.537C251.827,488.136 245.483,488.737 239.705,485.153C237.477,483.771 237.341,484.073 232.466,483.672ZM249.743,474.917C252.209,473.678 252.238,473.724 252.473,473.474C254.978,470.807 249.492,469.85 247.368,468.736C242.038,465.938 241.379,456.021 235.489,461.488C230.78,465.858 228.321,462.587 226.755,463.836C225.349,464.957 228.111,467.471 228.263,467.673C230.955,471.25 229.783,476.019 232.519,477.467C234.801,478.675 235.89,477.385 241.458,479.562C243.195,480.242 245.047,482.279 246.319,481.298C246.758,480.959 246.98,479.59 247.005,479.433C247.572,475.931 248.311,476.268 249.743,474.917Z" style="fill:rgb(13,13,10);"/>
            </g>
            <g transform="matrix(1.786133,0,0,1.786133,21,12)">
                <path d="M220.546,354.915C222.359,354.824 222.347,354.817 222.504,354.816C229.207,354.813 229.254,360.345 229.262,360.513C229.406,363.552 228.095,365.334 226.295,367.322C223.293,370.638 225.477,372 224.235,375.406C221.912,381.774 216.008,380.866 212.494,380.869C207.482,380.874 206.744,385.765 200.497,385.691C192.895,385.602 194.381,377.661 194.228,376.532C193.898,374.113 189.674,371.924 191.413,367.462C193.013,363.354 196.907,362.134 198.427,361.346C201.811,359.591 201.455,358.468 202.842,356.773C208.28,350.128 213.565,353.198 214.393,353.678C217.208,355.313 217.312,355.333 220.546,354.915ZM206.525,376.547C208.464,375.802 208.421,375.668 210.49,375.413C210.691,375.389 210.686,375.395 214.479,375.222C219.621,374.987 218.733,371.956 218.935,369.525C219.362,364.372 222.519,363.509 223.127,362.36C223.666,361.342 222.557,360.739 222.428,360.669C222.153,360.518 219.764,360.9 219.534,360.937C219.375,360.962 218.199,361.15 217.518,361.085C212.829,360.637 211.208,355.776 207.463,360.473C207.069,360.967 205.216,363.291 201.764,365.945C200.753,366.722 198.771,367.607 198.627,367.69C196.573,368.881 198.084,370.511 198.249,370.688C202.694,375.482 198.639,378.999 200.739,380.074C202.026,380.733 201.868,379.685 206.525,376.547Z" style="fill:rgb(13,13,12);"/>
            </g>
            <g transform="matrix(1.786133,0,0,1.786133,21,12)">
                <path d="M354.149,370.656C357.245,378.486 359.94,385.297 355.462,386.107C354.33,386.311 352.719,384.792 352.346,383.558C351.607,381.115 351.344,376.804 347.555,370.466C347.372,370.161 347.325,370.201 345.098,366.772C343.811,364.791 339.408,360.758 338.213,359.858C331.541,354.839 327.878,354.709 327.279,352.574C327.249,352.467 326.089,346.154 334.33,350.822C337.1,352.391 337.012,352.5 339.717,354.154C341.214,355.068 348.408,359.464 354.149,370.656Z" style="fill:rgb(14,14,11);"/>
            </g>
            <g transform="matrix(1.786133,0,0,1.786133,21,12)">
                <path d="M166.361,353.432C166.515,353.186 166.625,352.915 166.779,352.669C168.106,350.547 168.125,350.578 169.447,348.461C172.188,344.071 180.333,336.715 187.649,333.868C190.644,332.702 193.277,334.05 192.505,336.502C191.614,339.336 187.569,338.65 179.567,345.582C174.223,350.212 174.363,351.479 171.721,355.63C169.09,359.766 167.985,365.447 167.449,367.487C166.58,370.797 162.854,370.544 162.556,367.494C162.032,362.136 165.542,355.287 166.361,353.432Z" style="fill:rgb(14,14,13);"/>
            </g>
            <g transform="matrix(1.786133,0,0,1.786133,21,12)">
                <path d="M297.542,490.542C310.96,476.571 306.145,465.878 311.617,467.126C314.494,467.781 313.078,474.187 312.289,476.432C309.629,483.992 307.184,487.754 303.491,492.492C303.316,492.716 300.651,495.418 300.524,495.524C297.675,497.907 295.269,500.137 289.365,503.225C285.082,505.466 283.274,502.6 284.314,500.4C285.745,497.373 288.228,499.72 297.542,490.542Z" style="fill:rgb(14,14,11);"/>
            </g>
            <g transform="matrix(1.786133,0,0,1.786133,21,12)">
                <path d="M235.479,415.451C236.186,415.171 242.448,412.697 244.497,412.467C247.415,412.14 247.71,415.428 247.712,415.495C247.755,417.456 246.427,417.682 242.353,419.028C228.978,423.443 226.478,430.998 223.448,434.455C221.195,437.025 216.673,435.129 220.158,429.308C225.08,421.091 232.222,417.291 235.479,415.451Z" style="fill:rgb(16,16,15);"/>
            </g>
            <g transform="matrix(1.786133,0,0,1.786133,21,12)">
                <path d="M155.1,350.447C155.26,349.841 156.294,345.913 158.025,343.18C159.5,340.853 162.467,336.24 167.615,332.667C172.062,329.582 173.257,333.482 173.074,334.458C172.568,337.147 169.993,337.063 166.38,341.394C161.467,347.281 161.257,349.601 160.596,351.534C159.414,354.99 155.411,354.628 155.085,351.551C155.047,351.185 155.139,350.813 155.1,350.447Z" style="fill:rgb(14,14,12);"/>
            </g>
            <g transform="matrix(1.786133,0,0,1.786133,21,12)">
                <path d="M363.296,361.58C363.546,362.257 366.935,369.541 362.536,369.878C357.717,370.248 361.882,363.251 349.16,352.916C348.683,352.529 345.714,351.205 346.791,348.635C348.522,344.506 354.756,350.275 355.269,350.75C360.134,355.253 361.763,358.61 363.296,361.58Z" style="fill:rgb(10,10,8);"/>
            </g>
            <g transform="matrix(1.786133,0,0,1.786133,21,12)">
                <path d="M318.281,493.382C310.063,505.726 304.416,506.554 303.277,503.607C302.026,500.37 306.591,499.172 309.122,496.196C316.834,487.123 314.803,484.626 316.936,482.997C317.608,482.484 321.535,481.373 320.87,486.553C320.664,488.163 319.239,491.098 318.281,493.382Z" style="fill:rgb(14,14,12);"/>
            </g>
            <g transform="matrix(1.786133,0,0,1.786133,21,12)">
                <path d="M241.529,471.418C242.888,472.203 243.307,471.923 243.648,473.46C243.743,473.889 243.858,477.268 240.5,476.497C235.868,475.435 234.638,473.709 233.75,471.405C232.381,467.856 235.806,466.071 238.438,469.553C239.508,470.967 240.983,471.189 241.529,471.418Z" style="fill:rgb(14,15,13);"/>
            </g>
            <g transform="matrix(1.786133,0,0,1.786133,21,12)">
                <path d="M308.597,385.289C307.066,384.277 307.031,384.332 306.946,384.199C305.155,381.378 311.439,377.551 316.377,385.562C317.834,387.926 316.478,389.001 316.251,389.181C314.514,390.559 312.288,388.176 312.049,387.92C309.725,385.432 309.454,385.783 308.597,385.289Z" style="fill:rgb(17,17,14);"/>
            </g>
            <g transform="matrix(1.786133,0,0,1.786133,21,12)">
                <path d="M211.539,368.57C209.349,369.968 206.292,372.377 204.696,370.342C201.913,366.795 212.027,360.135 214.341,364.56C214.347,364.572 214.778,365.891 213.98,366.842C213.249,367.713 212.405,368.052 211.539,368.57Z" style="fill:rgb(12,12,11);"/>
            </g>
            <g transform="matrix(1.786133,0,0,1.786133,21,12)">
                <path d="M257.514,417.633C257.178,417.56 256.822,417.632 256.487,417.56C253.389,416.89 254.306,411.558 257.556,412.272C259.631,412.727 259.949,416.553 258.434,417.377C258.155,417.529 257.794,417.481 257.514,417.633Z" style="fill:rgb(8,8,5);"/>
            </g>
        </g>
    </g>
</svg>
