<?xml version="1.0" encoding="UTF-8" standalone="no"?>
<!DOCTYPE svg PUBLIC "-//W3C//DTD SVG 1.1//EN" "http://www.w3.org/Graphics/SVG/1.1/DTD/svg11.dtd">
<svg width="100%" height="100%" viewBox="0 0 501 316" version="1.1" xmlns="http://www.w3.org/2000/svg" xmlns:xlink="http://www.w3.org/1999/xlink" xml:space="preserve" xmlns:serif="http://www.serif.com/" style="fill-rule:evenodd;clip-rule:evenodd;stroke-linejoin:round;stroke-miterlimit:2;">
    <g transform="matrix(1,0,0,1,-1198.795877,-97.446226)">
        <g>
            <g transform="matrix(1.786133,0,0,1.786133,21,12)">
                <path d="M843.524,58.511C843.941,58.458 844.056,57.735 844.473,57.682C844.503,57.678 845.974,58.449 846.383,58.712C850.38,61.282 850.601,60.877 852.656,62.255C854.946,63.792 855.049,63.598 856.513,64.488C857.355,65 856.831,65.213 856.827,65.498C856.824,65.722 857.08,65.93 857.012,66.143C856.983,66.232 850.539,69.919 848.369,71.259C844.542,73.621 844.709,73.857 844.349,74.006C843.846,74.215 842.64,73.654 842.899,72.525C843.273,70.891 843.74,71.09 844.233,69.467C844.453,68.741 844.378,68.684 843.818,68.173C842.872,67.31 842.727,67.797 841.458,68.021C839.328,68.396 836.492,68.5 835.542,68.719C835.222,68.792 832.305,69.464 831.556,69.7C826.402,71.324 826.253,70.885 821.345,73.153C821.33,73.16 814.448,76.125 814.147,77.371C813.796,78.824 815.697,80.76 816.371,81.6C818.896,84.744 818.711,84.861 820.875,88.261C822.925,91.484 822.986,91.426 823.158,91.709C825.307,95.239 828.906,103.928 829.128,104.616C832.059,113.718 832.159,113.682 832.512,115.497C833.583,121.003 833.624,120.993 833.681,121.477C834.034,124.497 834.215,124.455 834.714,127.454C834.741,127.614 834.94,128.816 835.656,129.242C836.128,129.523 836.533,129.763 842.513,129.641C846.146,129.567 843.757,126.155 843.557,125.489C843.156,124.153 843.191,123.86 844.504,123.393C845.076,123.19 847.397,125.419 856.621,130.375C857.521,130.858 857.138,131.105 857.134,131.497C857.129,131.966 857.415,132.166 856.59,132.596C852.392,134.787 852.425,134.812 848.334,137.192C844.92,139.177 844.858,139.984 843.723,139.145C842.937,138.564 843.12,138.406 843.36,137.477C843.643,136.38 844.015,136.554 844.352,135.475C844.388,135.358 844.66,134.489 844.086,133.968C843.696,133.613 843.546,133.476 837.507,133.645C834.324,133.734 834.864,136.232 834.82,139.51C834.746,145.06 834.362,145.011 833.672,150.525C833.564,151.386 832.906,154.087 832.823,154.543C831.517,161.702 830.853,161.514 829.377,166.461C828.606,169.045 828.397,168.951 827.358,171.436C824.188,179.016 822.985,180.197 820.9,183.741C817.43,189.64 814.29,191.554 817.478,192.551C826.675,195.426 827.57,195.544 828.477,195.663C832.506,196.193 832.431,196.552 836.461,196.966C840.857,197.416 843.54,198.327 844.208,197.311C844.84,196.349 843.369,194.237 843.385,193.494C843.396,192.966 844.252,191.847 844.45,191.829C844.582,191.818 848.591,194.355 848.594,194.357C851.535,196.169 852.311,196.367 853.238,196.938C856.671,199.047 856.847,198.705 857.097,198.947C857.225,199.07 857.395,200.139 857.291,200.391C857.148,200.739 854.967,201.824 854.755,201.93C852.525,203.04 852.582,203.105 850.44,204.404C848.816,205.389 848.696,205.146 846.499,206.498C845.113,207.35 844.986,208.266 843.801,207.17C842.618,206.076 843.449,205.86 844.076,204.384C844.197,204.099 844.348,203.81 844.361,203.501C844.448,201.428 839.222,201.672 836.497,201.536C834.558,201.439 827.863,199.733 826.497,199.52C823.53,199.056 823.506,199.165 816.483,196.548C812.355,195.01 811.622,195.987 809.299,198.299C801.359,206.195 797.305,208.119 794.389,210.342C790.591,213.237 782.46,216.968 781.446,217.343C771.122,221.159 768.325,222.402 757.564,223.85C756.059,224.052 744.01,224.745 736.47,223.672C729.96,222.745 729.95,222.832 723.631,221.041C713.832,218.264 708.046,214.921 706.61,214.264C704.978,213.517 705.068,213.382 703.505,212.492C684.085,201.426 672.912,184.092 668.308,174.599C665.829,169.486 663.835,163.486 663.506,162.498C661.237,155.671 661.69,155.564 660.724,150.458C659.975,146.496 660.165,146.483 659.798,142.473C659.154,135.429 659.4,135.435 659.912,127.529C660.141,123.997 660.398,124.053 660.941,120.559C663.601,103.424 673.044,88.995 673.396,88.432C677.423,81.984 682.89,76.048 683.456,75.459C692.223,66.343 692.926,67.156 698.583,62.605C699.906,61.541 703.355,59.72 704.244,59.117C707.295,57.049 713.421,54.831 716.496,53.49C718.279,52.712 728.152,49.515 730.461,49.236C738.273,48.293 738.231,47.867 745.502,47.841C758.153,47.795 758.783,48.544 760.456,48.793C764.547,49.4 764.61,49.047 768.572,50.249C780.439,53.848 782.417,54.994 789.495,58.51C789.643,58.583 794.764,61.663 795.634,62.308C799.654,65.285 802.765,67.108 807.871,72.124C810.431,74.64 811.377,73.695 815.311,71.201C816.783,70.268 817.362,70.271 819.382,69.263C823.672,67.123 823.773,67.425 828.376,66.092C836.834,63.642 837.704,64.584 842.593,63.858C845.175,63.475 844.379,62.002 843.377,59.509L843.524,58.511ZM805.664,131.494C805.639,131.018 805.437,127.168 805.102,125.565C801.467,108.145 793.644,99.717 790.197,95.753C789.05,94.434 784.368,90.104 783.51,89.488C777.292,85.022 777.426,84.776 770.414,81.7C767.074,80.235 767.083,80.209 760.536,78.356C745.973,74.234 733.922,78.307 728.57,79.794C724.772,80.849 715.928,85.744 714.601,86.649C700.146,96.505 694.902,109.093 694.254,110.375C692.234,114.376 692.52,114.474 690.991,118.691C688.602,125.279 688.399,135.484 688.518,138.5C689.076,152.632 694.643,162.337 695.233,163.625C699.096,172.059 709.186,181.73 713.452,184.567C726.129,192.998 735.73,194.207 740.592,195.052C746.14,196.016 751.52,195.461 752.474,195.318C757.676,194.541 757.986,194.452 758.452,194.319C760.674,193.681 765.036,192.69 768.394,191.246C772.37,189.536 772.852,189.889 781.37,184.295C783.715,182.754 784.87,181.584 785.796,180.879C789.613,177.972 787.101,177.105 784.921,174.184C782.693,171.199 787.143,170.331 789.169,172.807C790.904,174.928 791.657,174.519 793.398,172.416C796.192,169.04 800.907,161.408 802.269,156.438C803.839,150.71 806.472,147.922 805.664,131.494ZM742.501,70.588C747.583,70.521 753.41,70.382 755.435,70.836C758.978,71.632 758.978,71.532 762.515,72.439C767.828,73.801 767.76,73.95 770.684,75.03C776.034,77.008 776.153,76.947 783.403,81.654C786.603,83.732 786.403,83.979 787.845,85.068C797.715,92.517 802.399,101.734 804.207,104.67C807.778,110.469 811.011,122.077 811.17,123.542C812.308,134.04 812.146,136.373 812.068,137.489C811.351,147.8 811.134,148.668 810.896,149.613C808.996,157.184 806.728,162.327 806.259,163.391C805.083,166.058 805.006,165.999 803.575,168.544C800.186,174.575 798.125,176.657 797.971,176.86C796.694,178.546 795.761,179.746 801.36,183.703C807.724,188.2 808.859,187.901 809.566,187.715C811.884,187.105 818.488,175.614 819.465,173.484C822.035,167.88 822.115,167.921 822.326,167.429C826.074,158.708 826.549,153.688 827.12,151.394C828.355,146.429 829.257,136.179 828.261,134.652C827.125,132.909 822.646,134.117 820.537,133.418C819.085,132.936 817.703,129.688 822.502,129.587C825.582,129.523 828.558,130.341 828.084,126.561C827.828,124.517 827.997,124.503 827.511,122.498C826.401,117.926 826.58,117.9 826.478,117.505C825.174,112.442 825.405,112.387 823.489,107.504C821.759,103.095 820.549,100.806 820.428,100.534C819.931,99.416 816.746,92.256 812.702,87.344C810.261,84.379 804.693,77.822 802.857,76.135C798.983,72.577 799.056,72.498 797.553,71.428C793.802,68.758 793.87,68.672 793.536,68.452C783.747,62.014 777.752,59.685 773.543,58.348C767.563,56.448 765.056,55.381 758.459,54.808C756.601,54.647 755.327,53.944 751.489,53.88C739.345,53.675 739.388,54.365 735.547,54.831C726.545,55.926 725.783,57.056 720.493,58.473C717.879,59.173 714.443,61.046 713.471,61.429C712.906,61.652 710.649,62.542 706.702,64.868C704.923,65.917 705.005,66.016 703.245,67.1C702.361,67.644 700.15,69.006 692.946,74.988C691.115,76.508 690.419,77.605 687.912,79.968C687.395,80.455 687.28,80.841 684.716,83.696C682.723,85.913 682.967,86.092 681.689,87.649C680.308,89.333 679.263,91.13 679.167,91.272C677.514,93.716 677.643,93.772 676.15,96.302C675.732,97.012 672.859,101.883 671.576,105.529C667.289,117.72 667.969,118.446 667.837,119.549C667.382,123.34 666.043,123.143 665.864,132.499C665.701,141.008 665.54,141.021 666.918,149.434C667.264,151.543 667.601,151.465 668.034,154.569C668.611,158.699 668.966,158.597 670.237,162.582C671.746,167.315 671.819,167.271 674.028,171.732C676.225,176.168 676.365,176.086 676.554,176.471C679.635,182.747 686.739,191.173 691.504,195.496C699.804,203.026 699.96,202.814 703.669,205.23C713.888,211.887 719.585,213.286 725.612,215.184C732.351,217.307 732.547,216.323 739.431,217.88C742.088,218.481 752.685,218.487 755.564,217.873C761.412,216.624 762.682,217.37 768.452,215.37C771.092,214.456 774.536,213.537 775.388,213.212C793.335,206.376 805.188,193.768 805.383,193.435C806.325,191.829 804.545,190.899 804.343,190.794C803.827,190.524 803.26,190.357 802.751,190.074C802.502,189.937 802.541,189.919 799.861,188.005C794.955,184.501 793.774,181.783 791.273,184.245C785.16,190.261 777.014,194.272 775.789,194.979C775.101,195.376 774.029,195.995 766.623,198.803C764.909,199.454 763.27,199.471 761.589,199.894C758.051,200.784 757.986,200.347 754.431,201.126C751.52,201.763 742.378,201.792 739.582,201.123C736.885,200.478 736.847,200.763 734.577,200.192C731.029,199.299 730.905,199.807 727.514,198.463C721.678,196.149 721.196,196.357 715.253,192.962C701.32,185.004 694.674,174.421 693.783,173.281C693.431,172.83 692.348,171.444 689.991,167.219C689.156,165.722 686.06,158.839 685.917,158.366C682.504,147.13 682.361,141.963 682.321,140.507C681.983,128.222 683.157,125.661 683.445,123.492C683.933,119.824 684.349,119.932 685.502,115.5C686.46,111.817 689.422,105.263 692.087,101.225C696.162,95.052 703.816,84.784 719.578,76.651C724.898,73.906 734.367,71.814 735.522,71.654C739.028,71.17 738.959,70.734 742.501,70.588Z" style="fill:rgb(13,13,12);"/>
            </g>
            <g transform="matrix(1.786133,0,0,1.786133,21,12)">
                <path d="M780.938,141.523C780.296,146.737 778.829,151.98 775.01,159.231C774.878,159.482 772.159,163.427 771.909,163.79C768.768,168.347 760.259,177.039 751.477,178.364C743.544,179.561 739.622,177.543 738.709,177.073C735.683,175.516 730.592,172.973 725.213,166.743C723.151,164.354 719.293,158.709 718.326,156.583C717.688,155.182 713.795,147.749 713.721,138.495C713.647,129.243 715.813,122.985 723.188,116.164C727.202,112.452 729.813,113.027 728.093,109.685C727.771,109.058 725.101,103.141 726.692,100.622C729.235,96.595 736.969,100.999 739.231,100.016C740.901,99.29 743.159,93.546 747.485,93.75C750.729,93.904 754.175,99.429 755.305,99.919C756.583,100.473 756.628,100.043 761.463,99.262C765.505,98.609 768.877,97.737 767.775,105.543C767.161,109.893 764.577,110.902 767.632,113.328C769.29,114.644 770.369,114.64 774.604,119.407C775.736,120.682 777.701,123.836 777.95,124.235C778.107,124.486 780.912,130.015 780.986,136.498C781.011,138.7 780.984,138.683 780.938,141.523ZM737.661,106.035C734.269,104.728 733.617,104.283 732.947,104.985C731.864,106.12 734.186,108.928 734.668,109.215C736.088,110.061 741.346,108.95 742.512,108.731C750.708,107.19 758.14,110.779 760.291,109.213C760.834,108.817 761.997,106.721 762.099,106.397C762.19,106.107 762.215,104.297 760.503,104.54C760.458,104.547 760.458,104.551 757.577,105.681C751.323,108.135 750.67,101.766 748.509,100.487C748.383,100.413 746.78,98.841 744.472,102.48C742.189,106.08 741.898,106.543 737.661,106.035ZM737.436,115.217C736.305,115.436 735.756,114.87 728.769,118.957C727.968,119.425 724.125,122.405 722.439,125.463C719.52,130.755 716.737,138.593 722.638,152.437C726.66,161.875 735.835,170.329 741.572,172.276C742.898,172.726 747.174,174.998 754.546,171.597C759.213,169.444 762.556,165.81 763.137,165.178C766.027,162.036 776.78,151.205 775.218,134.533C774.58,127.729 770.202,121.457 764.246,117.938C759.512,115.141 758.125,115.523 756.625,115.077C753.119,114.036 753.132,114.025 749.491,113.627C748.771,113.548 745.878,113.231 740.464,114.315L737.436,115.217Z" style="fill:rgb(14,14,13);"/>
            </g>
            <g transform="matrix(1.786133,0,0,1.786133,21,12)">
                <path d="M730.531,143.492C731.007,145.499 730.862,145.966 734.478,152.513C735.717,154.756 739.125,157.952 739.591,158.409C741.266,160.055 743.519,161.274 742.525,163.514C742.479,163.617 740.985,165.918 738.181,163.971C737.571,163.547 735.822,162.332 731.655,157.368C730.366,155.833 727.661,151.148 727.432,150.53C724.145,141.679 724.429,139.488 724.557,138.508C724.918,135.732 728.856,134.992 729.528,139.496C729.832,141.541 729.882,141.52 730.531,143.492Z" style="fill:rgb(15,15,15);"/>
            </g>
            <g transform="matrix(2.276563,0,0,2.276563,-1994.212604,-139.18545)">
                <text x="1561.909px" y="116.937px" style="font-family:'Helvetica-Bold', 'Helvetica';font-weight:700;font-size:12px;">Jeju</text>
                <g transform="matrix(12,0,0,12,1603.253233,128.93749)">
                </g>
                <text x="1561.909px" y="128.937px" style="font-family:'Helvetica-Bold', 'Helvetica';font-weight:700;font-size:12px;">Matcha</text>
            </g>
            <g transform="matrix(2.276563,0,0,2.276563,-1993.881758,-22.263632)">
                <text x="1561.909px" y="116.937px" style="font-family:'Helvetica-Bold', 'Helvetica';font-weight:700;font-size:12px;">Dark</text>
                <g transform="matrix(12,0,0,12,1619.917295,128.93749)">
                </g>
                <text x="1561.909px" y="128.937px" style="font-family:'Helvetica-Bold', 'Helvetica';font-weight:700;font-size:12px;">Chocolate</text>
            </g>
            <g transform="matrix(2.276563,0,0,2.276563,-1998.943957,97.480958)">
                <text x="1561.909px" y="116.937px" style="font-family:'Helvetica-Bold', 'Helvetica';font-weight:700;font-size:12px;">Korean</text>
                <g transform="matrix(12,0,0,12,1624.604795,128.93749)">
                </g>
                <text x="1561.909px" y="128.937px" style="font-family:'Helvetica-Bold', 'Helvetica';font-weight:700;font-size:12px;">Strawberry</text>
            </g>
        </g>
    </g>
</svg>
