<?xml version="1.0" encoding="UTF-8" standalone="no"?>
<!DOCTYPE svg PUBLIC "-//W3C//DTD SVG 1.1//EN" "http://www.w3.org/Graphics/SVG/1.1/DTD/svg11.dtd">
<svg width="100%" height="100%" viewBox="0 0 588 334" version="1.1" xmlns="http://www.w3.org/2000/svg" xmlns:xlink="http://www.w3.org/1999/xlink" xml:space="preserve" xmlns:serif="http://www.serif.com/" style="fill-rule:evenodd;clip-rule:evenodd;stroke-linejoin:round;stroke-miterlimit:2;">
    <g transform="matrix(1,0,0,1,-167.635545,-94.613187)">
        <g>
            <g transform="matrix(1.786133,0,0,1.786133,21,12)">
                <path d="M263.506,103.024C263.06,102.952 261.615,103.145 257.797,101.009C255.828,99.907 252.488,95.566 250.523,94.463C244.77,91.231 242.659,94.022 237.047,102.164C236.225,103.357 230.907,109.551 226.549,108.306C220.023,106.442 220.365,103.331 218.557,98.478C217.411,95.403 216.977,93.157 214.493,93.215C213.342,93.242 209.309,94.94 207.764,95.897C205.264,97.446 205.121,97.165 202.689,98.787C199.429,100.96 198.652,100.805 196.607,101.735C192.523,103.592 192.525,103.597 188.502,104.508C185.34,105.224 184.718,108.264 183.211,110.291C177.893,117.441 178.191,117.637 172.979,124.857C167.298,132.726 167.177,132.616 161.038,140.122C160.952,140.228 153.079,149.015 153.036,149.061C151.081,151.122 151.044,151.06 149.084,153.112C143.042,159.438 139.953,161.765 135.239,166.211C132.246,169.035 132.103,168.841 130.331,170.293C128.392,171.881 128.349,171.803 126.368,173.316C122.964,175.917 123.011,175.951 115.669,180.728C114.153,181.715 113.176,181.49 113.815,183.179C114.066,183.843 116.589,183.35 120.5,183.353C181.881,183.391 181.859,183.349 185.501,183.376C192.041,183.426 190.279,189.192 185.51,189.139C173,188.999 173.022,189.083 160.499,189.1C139.994,189.128 140.01,188.999 119.498,188.998C86.378,188.997 86.375,189.036 85.458,188.944C80.787,188.474 82.241,184.985 82.566,184.55C84.026,182.599 91.303,183.68 96.484,183.291C108.207,182.411 134.889,158.716 135.808,157.813C144.679,149.099 144.801,149.238 148.826,144.784C155.282,137.638 156.182,136.471 156.771,135.707C158.711,133.193 160.852,131.166 162.209,129.297C165.397,124.91 165.392,124.924 168.739,120.669C170.969,117.834 170.688,117.658 172.85,114.759C174.349,112.75 174.245,112.701 175.707,110.644C180.507,103.89 184.158,97.169 185.867,94.759C188.21,91.454 189.85,87.462 191.237,85.332C193.244,82.25 194.962,78.582 196.208,76.364C199.634,70.267 199.459,70.178 199.768,69.655C201.811,66.2 201.899,64.775 202.927,62.695C205.455,57.583 206.94,51.759 214.547,49.668C218.445,48.596 221.782,50.827 225.525,51.231C230.84,51.805 232.486,50.302 234.333,49.206C239.865,45.924 241.85,46.251 248.503,46.27C254.807,46.289 254.629,47.243 260.574,50.351C266.478,53.437 272.669,49.329 276.502,49.404C280.446,49.481 283.13,51.993 283.58,52.414C286.949,55.567 288.38,59.602 288.719,60.415C290.01,63.516 290.235,63.4 291.563,66.472C291.791,66.999 291.803,66.992 297.175,77.66C299.968,83.205 300.234,83.032 300.472,83.514C301.968,86.543 302.21,86.393 303.596,89.45C305.761,94.221 309.592,99.392 309.616,99.433C316.569,110.957 327.965,125.643 330.708,129.358C333.3,132.868 340.646,141.116 342.576,143.44C343.817,144.935 355.641,156.521 356.109,156.939C358.518,159.094 369.353,169.798 385.611,179.311C386.284,179.704 389.493,181.582 394.619,183.022C398.426,184.091 409.167,182.23 410.557,184.456C410.711,184.702 411.848,186.523 410.098,188.051C408.202,189.707 405.312,188.877 399.5,189.025C395.63,189.123 309.917,189.168 308.511,189.099C303.786,188.869 303.559,184.326 306.523,183.574C307.484,183.329 314.623,183.344 364.499,183.351C376.514,183.353 376.49,183.681 377.532,183.649C378.716,183.614 379.134,183.687 379.054,182.495C379.029,182.122 379.233,181.9 378.517,181.485C378.308,181.364 378.074,181.29 377.867,181.166C368.967,175.85 369.383,175.257 365.44,172.592C363.406,171.218 362.876,170.474 362.148,169.947C361.361,169.378 358.44,167.265 352.961,162.021C352.899,161.962 346.282,155.655 345.828,155.179C339.081,148.094 339.111,148.091 338.521,147.48C331.32,140.005 331.112,138.908 329.214,136.758C327.551,134.874 327.76,134.722 326.131,132.825C322.99,129.167 322.891,129.271 317.836,122.266C313.914,116.83 307.147,106.325 305.239,104.899C304.066,104.022 303.192,104.911 294.684,101.1C294.214,100.889 286.624,96.93 286.355,96.764C281.279,93.633 279.058,92.409 275.545,94.565C274.222,95.377 271.954,99.703 268.523,101.54C265.146,103.349 264.95,102.876 263.506,103.024ZM244.501,52.587C241.402,52.68 240.976,52.139 236.675,54.805C225.885,61.492 216.824,52.027 212.477,57.48C209.81,60.827 209.226,64.308 206.851,68.674C205.243,71.632 205.422,71.711 203.776,74.649C203.252,75.584 202.047,78.752 198.692,84.609C193.785,93.174 193.301,93.867 192.767,94.631C192.675,94.763 191.844,95.953 191.923,96.453C191.945,96.592 192.116,97.673 193.48,97.272C194.159,97.072 194.085,96.919 201.283,93.097C207.406,89.847 207.254,88.694 213.495,87.476C219.496,86.305 222.147,91.753 222.509,92.496C225.024,97.664 225.717,107.155 231.391,99.419C231.996,98.594 234.129,95.124 238.192,91.177C238.908,90.482 243.505,84.809 251.553,88.385C255.564,90.166 259.795,96.808 263.483,96.935C268.898,97.122 269.346,86.771 279.475,87.747C282.696,88.058 284.113,88.604 289.429,91.625C290.358,92.154 291.668,93.056 293.692,94.127C297.957,96.383 298.861,97.171 299.44,97.074C301.553,96.721 299.981,94.531 299.852,94.352C299.121,93.333 297.569,91.172 292.11,80.718C288.473,73.753 288.329,73.837 285.098,66.689C284.95,66.363 284.863,66.409 283.101,62.687C281.778,59.895 280.698,54.742 274.55,55.744C270.154,56.46 270.229,57.313 263.506,57.225C262.897,57.217 259.683,57.175 256.262,54.865C252.371,52.238 252.106,52.622 244.501,52.587Z" style="fill:rgb(15,15,14);"/>
            </g>
            <g transform="matrix(1.786133,0,0,1.786133,21,12)">
                <path d="M309.545,147.503C308.869,151.275 308.513,151.942 307.246,157.43C306.331,161.397 303.396,170.138 298.638,176.6C296.512,179.489 294.459,182.584 289.339,186.265C288.905,186.577 288.598,186.798 283.709,189.85C283.313,190.097 283.281,190.027 278.411,192.296C277.793,192.584 277.758,192.466 270.48,195.451C267.351,196.735 260.449,197.269 258.398,201.447C255.828,206.684 256.477,208.055 255.305,212.444C255.031,213.473 253.915,219.78 253.849,221.512C253.584,228.43 254.602,232.136 251.606,232.946C248.325,233.834 248.229,228.988 247.331,225.55C246.636,222.894 246.772,218.385 243.508,213.494C242.392,211.823 240.145,211.307 233.616,209.166C232.092,208.667 232.117,208.664 230.554,208.29C228.553,207.81 228.738,207.37 225.597,206.228C225.068,206.035 220.587,204.787 215.209,200.881C214.641,200.469 211.458,198.595 208.061,194.902C206.602,193.315 206.085,192.927 204.509,190.493C203.314,188.649 203.01,188.865 201.729,186.38C199.97,182.965 199.776,183.075 198.69,180.422C196.968,176.219 196.704,176.321 194.433,168.519C194.341,168.202 194.369,168.201 193.381,164.531C193.259,164.076 192.287,156.638 192.737,154.561C193.62,150.483 200.434,152.777 204.529,153.275C207.562,153.643 207.498,153.888 210.5,154.5C212.541,154.916 213.18,155.401 215.606,156.214C221.724,158.266 228.415,160.438 236.947,169.035C238.971,171.075 242.766,176.884 243.495,178.503C246.518,185.219 246.873,187.595 246.998,188.428C248.11,195.868 248.11,195.87 248.137,196.523C248.582,207.537 246.725,211.14 249.577,210.706C250.64,210.545 249.859,209.892 251.915,202.63C252.649,200.035 252.593,200.036 253.603,197.545C255.273,193.425 253.758,193.216 254.489,183.499C254.72,180.43 254.509,180.41 255.334,177.468C256.214,174.332 255.29,174.092 257.852,167.643C260.522,160.922 261.1,161.24 265.491,155.492C269.345,150.445 278.326,146.236 279.57,145.653C280.056,145.426 280.087,145.541 285.717,142.973C287.417,142.197 289.105,142.035 292.371,141.055C293.468,140.726 301.334,138.366 306.491,138.649C310.356,138.861 309.824,141.692 309.545,147.503ZM208.581,160.077C205.071,159.16 205.077,159.23 201.492,158.548C200.51,158.36 200.454,158.129 199.593,158.644C198.551,159.268 198.866,161.233 198.902,161.462C199.861,167.44 201.939,173.042 202.347,174.543C203.328,178.159 208.324,187.875 215.73,194.247C216.704,195.086 221.101,197.909 222.464,198.571C228.399,201.456 228.356,201.55 231.466,202.608C234.829,203.753 236.224,204.451 236.499,204.504C238.035,204.802 238.256,203.651 238.287,203.49C238.527,202.236 230.106,192.028 228.715,190.326C222.94,183.262 214.569,177.431 214.568,177.43C211.755,174.672 213.627,169.628 219.249,173.838C226.194,179.039 230.154,183.42 233.236,186.741C241.349,195.482 240.522,199.831 242.848,197.802C243.392,197.328 243.26,197.237 243.081,196.536C242.989,196.179 242.796,195.853 242.704,195.496C242.572,194.984 242.678,194.894 241.988,192.409C240.778,188.052 240.495,182.68 235.138,175.77C231.108,170.571 226.23,167.197 224.555,166.399C221.607,164.993 221.521,164.623 219.415,163.737C214.103,161.503 214.253,161.002 208.581,160.077ZM261.429,175.488C260.482,178.988 260.451,179.163 260.395,179.488C260.13,181.019 260.144,181 259.752,182.516C259.377,183.968 258.98,184.669 260.48,184.671C261.297,184.672 261.271,184.523 261.733,183.854C262.804,182.303 262.624,182.213 263.726,180.682C264.832,179.147 264.62,179.015 266.658,176.63C274.864,167.03 275.082,167.232 276.742,165.784C280.456,162.547 286.372,156.713 288.821,159.163C290.752,161.096 288.036,163.542 287.753,163.797C285.776,165.577 282.368,167.466 275.256,175.279C270.434,180.576 268.594,183.464 268.101,184.237C266.729,186.389 266.495,186.206 265.185,188.38C264.368,189.736 263.815,189.828 264.646,191.175C264.718,191.293 278.657,186.574 282.671,183.766C290.478,178.305 293.972,175.061 299.246,163.386C299.956,161.816 302.476,153.596 302.497,153.499C304.054,146.498 304.471,144.099 301.558,144.838C296.494,146.122 296.341,145.485 291.409,147.234C287.489,148.624 285.508,148.923 283.346,150.225C282.218,150.904 275.494,153.23 269.171,160.202C266.911,162.693 265.09,166.042 263.694,168.604C262.22,171.309 261.537,174.919 261.429,175.488Z" style="fill:rgb(14,14,12);"/>
            </g>
            <g transform="matrix(1.786133,0,0,1.786133,21,12)">
                <path d="M255.835,157.558C254.892,161.113 254.79,161.065 253.571,164.524C252.361,167.96 254.549,179.161 249.441,176.586C247.411,175.562 248.621,170.09 245.396,166.603C242.239,163.188 237.403,158.887 233.848,151.336C232.896,149.313 228.546,140.072 232.194,123.441C232.319,122.869 232.995,119.787 234.478,116.489C235.084,115.142 237.171,114.067 239.677,116.296C246.525,122.389 250.44,126.063 255.264,136.601C256.356,138.986 257.451,147.645 257.014,150.446C256.459,154.009 256.345,153.977 255.835,157.558ZM251.271,145.505C250.504,135.596 243.405,128.082 242.745,127.3C240.537,124.683 239.623,122.965 238.274,124.272C237.672,124.854 237.833,125.591 237.614,126.535C236.704,130.464 236.85,130.478 236.41,134.493C235.916,139 237.907,149.399 242.278,154.685C244.337,157.175 244.146,157.321 246.395,159.634C249.273,162.595 250.104,155.796 250.461,154.489C251.375,151.146 251.295,151.118 251.271,145.505Z" style="fill:rgb(16,16,13);"/>
            </g>
        </g>
    </g>
</svg>
