<?xml version="1.0" encoding="UTF-8" standalone="no"?>
<!DOCTYPE svg PUBLIC "-//W3C//DTD SVG 1.1//EN" "http://www.w3.org/Graphics/SVG/1.1/DTD/svg11.dtd">
<svg width="100%" height="100%" viewBox="0 0 296 339" version="1.1" xmlns="http://www.w3.org/2000/svg" xmlns:xlink="http://www.w3.org/1999/xlink" xml:space="preserve" xmlns:serif="http://www.serif.com/" style="fill-rule:evenodd;clip-rule:evenodd;stroke-linejoin:round;stroke-miterlimit:2;">
    <g transform="matrix(1,0,0,1,-1207.851561,-581.469871)">
        <g>
            <g transform="matrix(1.786133,0,0,1.786133,21,12)">
                <path d="M829.102,406.484C828.783,409.229 825.985,425.859 825.586,427.523C824.013,434.092 822.105,438.655 821.714,439.59C820.055,443.555 820.545,443.773 815.056,454.279C812.237,459.675 812.014,459.525 808.625,464.588C806.803,467.308 797.306,478.809 792.52,482.523C789.117,485.164 789.36,485.437 785.873,487.97C785.457,488.272 785.612,488.461 780.822,491.95C774.178,496.792 769.053,499.154 766.663,500.767C766.299,501.013 759.957,504.252 757.398,505.224C751.779,507.36 749.174,510.939 739.635,506.203C738.93,505.853 738.871,506.004 730.653,502.172C727.112,500.52 727.311,500.202 719.468,495.549C718.443,494.942 708.27,487.567 705.622,485.349C699.695,480.383 690.488,470.552 688.406,467.567C685.013,462.706 683.379,461.281 678.696,452.397C677.653,450.419 677.434,450.542 676.667,448.437C675.814,446.094 674.351,443.334 673.629,441.452C670.28,432.718 670.817,432.559 668.314,423.558C668.137,422.922 668.267,422.904 666.878,415.429C666.575,413.802 666.858,413.768 666.03,409.6C665.188,405.357 663.451,380.785 665.304,362.479C665.768,357.902 665.266,357.86 666.102,353.423C666.939,348.984 666.378,345.962 670.508,345.593C674.029,345.279 674.003,345.215 677.533,344.837C679.948,344.579 679.979,345.017 684.398,344.103C686.91,343.583 686.939,343.85 689.447,343.266C693.482,342.327 693.582,342.913 697.581,341.792C709.304,338.504 709.115,337.955 711.393,337.187C711.747,337.068 713.652,336.737 719.316,334.101C721.558,333.057 721.606,333.188 723.762,331.976C725.967,330.737 726.127,331.09 729.751,328.924C730.823,328.283 732.344,327.76 736.271,325.164C736.628,324.927 740.817,322.271 741.213,322.02C744.981,319.63 746.013,316.936 751.372,320.693C752.959,321.805 760.307,326.329 761.273,326.891C762.402,327.549 772.631,332.929 777.666,335.129C782.004,337.024 782.131,336.647 786.508,338.48C789.058,339.548 798.6,342.168 799.526,342.317C802.535,342.801 802.53,342.732 805.514,343.428C805.669,343.464 806.456,343.648 807.479,343.739C811.021,344.052 810.946,344.492 814.486,344.706C817.522,344.889 817.493,344.998 820.516,345.359C825.262,345.927 826.825,344.741 827.869,349.414C827.976,349.89 827.839,349.91 828.788,355.439C829.237,358.055 830,377.31 829.556,393.502C829.378,400.008 829.31,399.989 829.102,406.484ZM823.578,402.503C823.701,399.816 823.633,399.824 823.83,398.542C824.634,393.305 824.55,392.687 824.59,381.5C824.64,367.365 823.713,366.303 823.607,363.495C823.577,362.69 823.38,357.477 822.929,353.45C822.444,349.124 818.335,351.2 813.552,350.209C807.027,348.858 806.194,349.855 797.492,347.53C791.975,346.056 791.881,346.411 786.548,344.365C784.012,343.392 782.672,343.557 774.35,339.849C771.953,338.781 766.099,335.924 764.672,335.167C762.099,333.803 762.103,333.827 759.584,332.359C754.544,329.421 754.53,329.473 749.648,326.253C746.57,324.223 746.277,325.808 737.325,331.196C733.269,333.638 731.449,334.445 730.272,335.079C728.653,335.953 721.044,339.74 720.306,340.02C714.873,342.079 714.922,342.194 714.449,342.37C710.849,343.706 710.807,343.524 706.38,345.171C703.253,346.334 702.729,346.091 700.556,346.693C700.145,346.807 696.898,347.705 695.412,348.071C694.499,348.296 694.487,348.089 691.538,348.688C686.045,349.804 685.982,349.231 680.449,350.213C676.029,350.998 673.206,349.947 671.965,351.766C671.225,352.85 669.447,382.667 670.548,396.497C671.576,409.397 671.31,409.412 672.604,416.481C672.887,418.03 673.126,417.955 673.395,419.519C674.715,427.19 675.268,427.041 677.288,434.556C678.336,438.457 681.876,446.147 681.943,446.282C684.815,452.038 684.919,451.966 685.717,453.382C689.497,460.091 697.179,469.766 702.902,475.077C706.28,478.211 706.276,478.181 709.735,481.234C713.668,484.706 716.813,486.651 718.758,488.158C726.351,494.039 744.14,503.025 747.517,502.858C749.85,502.743 762.462,496.854 765.654,494.736C769.013,492.508 769.173,492.795 772.54,490.562C773.542,489.897 781.348,484.722 784.654,481.666C789.052,477.602 790.386,477.035 795.949,470.916C802.129,464.12 801.858,463.59 803.583,461.568C807.484,456.995 813.231,445.473 813.267,445.395C814.922,441.885 817.418,434.536 817.744,433.579C820.178,426.413 820.246,423.376 820.488,422.497C821.037,420.505 821.03,420.523 821.45,418.488C822.031,415.678 822.106,415.705 822.142,415.459C823.383,407.149 823.534,403.545 823.578,402.503Z" style="fill:rgb(13,13,12);"/>
            </g>
            <g transform="matrix(1.786133,0,0,1.786133,21,12)">
                <path d="M811.173,428.435C807.735,438.553 806.354,442.037 803.225,447.349C801.961,449.496 802.093,449.556 800.656,451.611C800.353,452.045 800.504,452.126 797.013,457.133C796.721,457.552 796.525,457.394 793.069,462.155C792.489,462.954 784.733,471.313 779.808,474.941C779.269,475.338 779.343,475.428 773.189,480.075C769.808,482.629 764.927,485.56 764.188,486.004C763.046,486.69 753.135,492.031 750.638,492.902C747.569,493.973 747.424,494.146 743.44,492.672C742.689,492.394 728.745,485.829 721.668,480.274C717.143,476.722 716.865,477.088 711.661,472.321C698.923,460.653 696.501,455.161 692.227,448.676C690.43,445.95 688.463,441.299 688.183,440.636C686.871,437.533 686.489,437.704 685.59,434.477C685.053,432.549 682.878,426.463 682.385,423.524C681.094,415.838 680.518,415.957 680.264,413.532C678.409,395.825 678.228,393.503 678.931,365.517C679.133,357.467 681.479,358.352 683.45,358.096C691.529,357.043 691.584,357.407 699.461,355.357C702.861,354.472 703.2,355.247 712.307,352.025C714.855,351.124 714.895,351.269 717.364,350.188C721.483,348.385 721.635,348.771 725.608,346.702C726.475,346.251 734.68,342.768 740.651,338.741C746.979,334.475 747.507,334.732 749.765,336.062C757.913,340.862 760.25,342.928 767.347,345.888C770.234,347.091 770.042,347.518 774.337,348.965C775.1,349.222 782.746,352.36 789.565,354.245C790.108,354.395 790.138,354.24 796.445,355.716C810.623,359.034 814.297,356.726 814.898,361.453C815.764,368.253 815.778,371.612 815.782,372.499C815.854,389.513 816.324,393.938 815.26,402.477C814.738,406.672 815.238,408.867 813.854,415.553C813.63,416.637 813.496,418.849 813.052,420.375C811.766,424.791 811.279,427.781 811.173,428.435ZM685.819,410.477C686.434,417.134 686.608,417.095 688.99,426.36C690.818,433.471 696.42,445.015 699.027,448.816C700.907,451.557 700.917,451.542 701.077,451.782C702.701,454.207 702.903,454.048 704.51,456.493C704.858,457.023 710.516,463.522 711.536,464.461C714.294,466.999 717.881,470.09 718.44,470.572C718.961,471.021 725.542,476.038 725.731,476.168C728.325,477.953 734.791,481.875 735.587,482.358C738.083,483.873 738.174,483.673 740.718,485.132C741.29,485.461 745.588,487.446 746.468,487.628C751.148,488.597 772.919,473.666 776.476,470.474C788.524,459.662 789.473,457.75 795.772,448.673C799.793,442.879 802.003,436.65 803.931,431.659C804.48,430.24 804.62,430.195 807.243,420.427C807.285,420.272 808.859,410.598 808.865,410.535C809.28,405.999 809.731,406.058 809.922,401.516C810.038,398.768 811.306,391.371 810.42,374.503C809.901,364.631 809.756,364.514 809.097,363.979C807.757,362.893 807.472,363.69 800.56,362.2C799.839,362.044 799.822,362.166 791.483,360.588C789.346,360.183 788.019,359.461 783.554,358.31C780.595,357.547 769.288,353.514 762.74,350.03C756.98,346.966 756.829,347.262 751.361,343.722C747.93,341.501 747.003,341.801 746.617,341.926C745.42,342.314 741.678,344.867 741.265,345.148C740.529,345.65 740.468,345.53 731.421,350.348C727.468,352.454 727.32,352.116 723.348,354.183C721.563,355.112 721.195,354.757 717.407,356.249C716.396,356.647 715.62,356.953 704.444,360.294C704.097,360.398 691.581,362.718 690.534,362.813C689.386,362.916 686.443,362.87 685.187,364.278C683.614,366.041 683.313,391.879 684.337,399.52C684.668,401.987 684.659,401.967 684.846,404.468C685.073,407.508 685.483,407.427 685.819,410.477Z" style="fill:rgb(15,15,13);"/>
            </g>
            <g transform="matrix(1.786133,0,0,1.786133,21,12)">
                <path d="M793.297,408.464C791.216,415.965 789.367,419.203 787.609,422.56C787.496,422.777 784.275,427.466 782.388,429.388C780.432,431.381 775.046,436.354 764.543,440.601C759.105,442.799 753.416,443.347 752.087,446.315C750.007,450.958 749.872,455.676 749.848,456.511C749.69,462.005 750.62,465.575 747.465,466.111C745.15,466.504 744.82,463.763 744.784,463.463C744.569,461.684 744.834,461.66 744.118,457.582C743.047,451.479 741.453,452.231 735.557,450.325C734.127,449.862 727.819,447.328 727.633,447.234C722.361,444.563 721.185,443.65 720.678,443.257C717.368,440.688 711.245,437.209 705.84,426.329C704.959,424.557 703.481,422.355 701.039,411.597C700.842,410.728 699.881,406.493 699.995,400.509C700.091,395.518 702.386,395.918 710.498,397.511C711.95,397.796 714.019,398.743 718.435,399.739C719.098,399.889 720.327,400.166 726.311,402.933C726.435,402.991 726.538,403.086 726.658,403.151C728.122,403.935 728.185,404.415 729.679,403.679C730.932,403.062 729.304,402.448 730.512,392.501C730.914,389.192 731.454,389.076 732.657,385.557C735.379,377.593 738.54,372.018 744.51,364.509C747.888,360.259 750.913,364.669 756.846,374.306C757.36,375.141 760.164,380.546 760.553,381.478C761.385,383.473 762.517,386.954 762.674,387.435C763.983,391.462 763.57,396.359 765.486,396.576C767.308,396.783 766.955,395.374 773.418,393.276C777.955,391.802 777.807,391.336 782.493,390.462C784.045,390.173 784.007,390.062 785.552,389.75C791.044,388.641 791.016,388.59 791.501,388.586C796.18,388.541 795.048,393.952 794.554,400.505C794.506,401.148 794.344,401.112 793.297,408.464ZM781.453,396.331C777.866,397.427 777.824,397.275 773.408,399.303C771.589,400.138 761.273,403.786 755.17,415.331C752.633,420.131 751.818,423.765 751.646,424.534C751.491,425.225 749.83,432.636 750.649,433.335C751.52,434.078 752.069,433.281 752.137,433.182C752.375,432.836 752.164,432.745 754.457,428.474C754.873,427.698 757.627,423.657 759.547,421.543C763.653,417.02 764.127,415.411 768.732,411.783C772.273,408.994 773.785,406.748 776.539,408.456C778.575,409.719 776.463,412.048 776.257,412.275C774.659,414.038 766.903,420.394 762.53,426.526C760.83,428.911 760.709,428.808 759.093,431.238C758.816,431.654 755.822,436.158 755.75,436.525C755.698,436.791 756.184,437.553 756.442,437.617C757.606,437.906 759.819,436.507 761.619,435.804C764.768,434.574 764.759,434.58 767.751,432.985C770.221,431.668 773.514,430.276 778.708,424.695C780.944,422.292 783.145,418.771 783.78,417.644C783.832,417.552 786.076,412.81 786.238,412.404C787.615,408.948 789.782,398.021 789.663,396.481C789.489,394.214 788.331,394.348 783.546,395.661C783.377,395.707 783.391,395.71 781.453,396.331ZM736.193,393.441C733.532,407.786 737.028,409.863 737.58,410.416C740.099,412.942 740.359,412.732 742.214,415.777C742.769,416.687 742.563,416.92 743.543,417.32C745.078,417.947 744.876,414.782 744.86,414.536C744.763,413.016 744.603,410.519 744.642,395.5C744.644,394.854 744.18,390.962 746.463,390.387C749.329,389.665 749.74,392.136 749.791,392.445C749.949,393.391 749.862,405.882 749.748,407.491C749.727,407.791 749.507,410.901 749.834,411.256C749.968,411.402 751.001,411.502 751.355,411.278C751.922,410.92 752.073,408.635 756.8,403.794C759.527,401.001 760.09,400.749 758.894,395.421C756.761,385.922 756.652,385.848 751.972,377.242C750.546,374.62 750.502,374.668 748.816,372.225C746.852,369.38 745.394,372.896 745.154,373.273C744.177,374.81 744.1,374.741 743.173,376.323C736.956,386.935 736.601,390.869 736.193,393.441ZM739.647,422.424C738.719,420.825 736.076,415.66 729.579,411.382C729.195,411.13 721.906,405.368 707.484,402.639C705.352,402.236 705.368,403.65 705.506,404.499C706.039,407.789 706.515,410 706.617,410.475C706.762,411.147 707.338,415.882 710.455,423.52C711.297,425.584 714.75,430.813 717.522,433.477C718.228,434.156 722.722,438.476 727.371,440.757C738.052,445.998 738.481,445.929 739.107,445.146C739.638,444.482 739.31,443.856 737.208,440.678C731.379,431.866 730.478,431.58 728.973,430.037C728.198,429.243 728.435,429.028 723.554,424.439C722.515,423.462 719.171,420.575 718.836,420.202C717.362,418.558 718.466,416.195 719.615,415.787C721.12,415.251 721.152,415.626 722.487,416.517C726.129,418.948 729.955,422.843 730.551,423.45C740.033,433.105 742.155,439.014 742.609,439.365C742.724,439.454 743.748,440.247 744.427,439.453C744.693,439.142 744.445,437.656 744.42,437.502C742.598,426.595 741.236,425.17 739.647,422.424Z" style="fill:rgb(14,14,13);"/>
            </g>
        </g>
    </g>
</svg>
