<?xml version="1.0" encoding="UTF-8" standalone="no"?>
<!DOCTYPE svg PUBLIC "-//W3C//DTD SVG 1.1//EN" "http://www.w3.org/Graphics/SVG/1.1/DTD/svg11.dtd">
<svg width="100%" height="100%" viewBox="0 0 358 330" version="1.1" xmlns="http://www.w3.org/2000/svg" xmlns:xlink="http://www.w3.org/1999/xlink" xml:space="preserve" xmlns:serif="http://www.serif.com/" style="fill-rule:evenodd;clip-rule:evenodd;stroke-linejoin:round;stroke-miterlimit:2;">
    <g transform="matrix(1,0,0,1,-1217.679932,-568.847258)">
        <g>
            <g transform="matrix(1.558594,0,0,1.558594,162,18)">
                <path d="M862.499,537.706C865.071,537.652 867.883,538.32 874.218,534.077C876.824,532.332 880.517,525.655 890.542,527.283C896.757,528.292 909.896,541.426 891.338,555.273C882.084,562.177 876.358,562.408 871.548,563.716C870.003,564.136 870.05,564.732 859.497,564.617C853.944,564.557 843.822,562.531 834.813,556.078C825.476,549.389 826.758,547.487 824.551,547.202C822.036,546.876 822.889,549.722 815.827,554.954C812.348,557.531 809.665,560.783 800.45,563.317C796.577,564.381 795.912,564.795 789.497,564.585C787.928,564.534 781.627,563.328 777.266,560.936C775.729,560.093 766.84,557.304 750.873,534.239C747.382,529.195 747.643,529.044 743.962,524.158C743.305,523.285 742.211,520.675 733.564,508.455C731.931,506.147 732.214,506.003 729.768,502.327C725.677,496.18 721.98,486.925 721.424,485.532C718.338,477.806 718.716,477.691 718.176,475.57C717.997,474.866 717.732,474.188 717.533,473.49C717.421,473.098 717.668,473.058 716.381,468.534C715.795,466.474 714.968,452.824 716.446,447.483C718.556,439.85 718.609,437.901 722.989,430.824C725.822,426.249 733.37,418.37 741.382,414.266C743.775,413.04 744.767,412.139 742.183,409.853C741.55,409.293 735.966,405.189 733.12,397.652C732.414,395.781 731.864,391.242 733.445,390.417C734.399,389.919 734.446,389.867 742.517,390.149C746.097,390.275 746.001,390.769 749.522,391.385C750.178,391.5 754.616,393.563 755.393,391.462C756.11,389.523 754.605,389.565 754.413,383.504C754.286,379.524 753.392,373.831 761.606,376.159C761.627,376.165 771.932,379.922 773.359,380.749C780.422,384.842 780.789,384.652 781.416,384.327C782.375,383.831 782.21,382.883 782.527,378.502C782.891,373.468 783.292,370.868 786.819,361.629C791.155,350.27 794.823,353.585 798.328,354.933C803.979,357.106 807.672,359.157 808.268,359.727C812.018,363.314 803.772,367.354 800.81,381.546C800.156,384.679 798.517,386.526 800.476,386.59C801.874,386.636 803.226,384.662 805.473,383.453C810.311,380.852 810.196,380.63 815.579,378.7C823.062,376.016 828.904,372.969 829.273,379.515C829.791,388.702 827.995,390.502 829.127,391.863C829.846,392.728 830.123,392.572 837.495,390.48C838.361,390.234 848.824,389.436 850.363,390.676C852.648,392.516 851.095,399.639 846.319,405.356C842.252,410.223 839.619,411.021 839.975,412.362C840.527,414.442 855.679,417.754 865.072,438.689C866.865,442.686 867.236,447.731 868.3,452.535C870.418,462.099 864.572,465.955 870.476,467.588C873.233,468.351 876.579,468.291 882.658,471.169C884.478,472.03 885.02,471.742 889.308,474.785C894.46,478.44 901.502,483.57 900.751,492.527C900.153,499.66 892.573,505.353 885.542,504.281C878.02,503.136 877.632,498.376 868.423,494.709C866.416,493.909 860.065,493.378 856.616,494.795C848.401,498.169 846.586,501.734 844.237,505.344C841.574,509.436 839.849,520.353 844.845,527.25C846.511,529.549 847.147,532.34 854.629,536.249C857.023,537.5 861.859,537.682 862.499,537.706ZM821.18,512.486C821.17,512.732 819.374,525.106 826.37,537.58C826.544,537.889 826.559,537.844 828.895,541.223C830.149,543.038 837.117,550.752 844.628,554.201C849.669,556.516 855.437,559.137 868.529,557.842C870.919,557.606 881.483,555.5 888.27,549.251C890.887,546.841 897.344,541.799 892.273,535.688C890.948,534.091 885.819,532.244 882.536,535.533C880.045,538.029 880.16,538.146 877.239,540.09C876.013,540.905 870.707,543.665 866.462,544.1C857.004,545.071 853.846,542.686 850.503,541.491C848.181,540.661 841.177,535.932 838.314,529.587C835.755,523.913 835.111,522.244 835.005,516.506C834.901,510.897 835.549,507.936 838.672,501.587C841.331,496.179 845.954,493.054 849.601,490.66C850.099,490.333 855.624,487.707 859.502,487.526C876.754,486.724 878.587,494.054 884.608,497.287C889.344,499.83 898.483,493.254 891.978,486.061C885.769,479.197 880.568,476.909 870.606,474.066C869.98,473.887 868.537,473.475 862.51,473.285C857.046,473.113 853.299,474.353 852.534,474.605C846.966,476.448 843.979,476.99 836.15,483.041C824.958,491.69 821.547,505.069 821.257,510.48C821.221,511.148 821.216,511.818 821.18,512.486ZM790.39,373.484C789.147,378.433 789.361,378.454 788.941,383.539C788.127,393.374 791.92,396.623 792.771,393.641C792.989,392.873 792.34,389.368 794.267,378.453C794.332,378.087 796.633,370.817 799.845,365.66C801.849,362.441 795.628,361.464 794.675,361.831C794.586,361.865 793.711,362.032 792.422,365.469C790.959,369.371 790.946,369.359 790.39,373.484Z" style="fill:rgb(15,15,13);"/>
            </g>
            <g transform="matrix(1.558594,0,0,1.558594,162,18)">
                <path d="M802.499,410.576C815.381,410.848 818.18,412.672 826.469,414.629C826.748,414.695 836.239,418.111 838.392,419.654C839.556,420.489 846.666,423.832 852.248,430.69C854.454,433.4 854.503,433.361 857.737,439.38C860.087,443.752 862.772,455.018 861.551,461.508C860.769,465.665 860.862,466.656 858.573,466.964C851.505,467.914 842.901,469.027 831.831,477.887C827.052,481.712 824.561,485.412 824.053,486.165C822.754,488.094 815.41,496.413 814.418,510.495C813.381,525.221 816.125,530.403 817.29,533.577C819.404,539.338 820.607,539.761 818.376,542.403C815.635,545.647 809.3,553.196 800.477,556.432C793.84,558.865 779.504,561.795 760.748,536.325C760.582,536.101 751.823,523.446 751.323,522.612C743.099,508.897 741.74,509.774 734.009,495.777C727.733,484.415 726.129,480.26 723.236,468.56C722.225,464.469 722.012,451.566 723.193,447.422C726.411,436.13 730.373,430.215 740.63,422.687C743.767,420.385 754.693,415.518 757.555,414.75C773.092,410.584 773.256,410.961 783.503,410.544C789.927,410.283 789.925,409.407 799.506,410.453C799.744,410.479 799.728,410.462 802.499,410.576Z" style="fill:rgb(255,185,174);"/>
            </g>
            <g transform="matrix(1.558594,0,0,1.558594,162,18)">
                <path d="M876.503,391.499C876.309,390.745 876.24,388.737 873.669,385.382C873.328,384.936 871.382,382.396 868.352,380.797C866.527,379.834 858.547,379.524 860.022,375.311C861.228,371.867 870.088,374.751 875.381,364.437C876.762,361.747 877.176,355.168 879.447,354.374C883.631,352.912 882.767,359.869 885.391,364.561C887.318,368.006 887.562,367.826 890.679,370.268C895.59,374.116 901.292,372.467 901.168,376.481C901.054,380.2 894.319,379.107 890.396,382.369C880.136,390.901 885.857,398.091 880.489,397.939C877.81,397.862 877.733,395.258 876.503,391.499ZM884.21,372.763C881.627,369.628 882.096,368.814 880.515,368.814C879.025,368.814 878.98,370.052 877.144,372.198C874.542,375.24 871.665,375.651 874.807,378.12C877.09,379.914 877.066,379.924 878.779,382.277C878.941,382.498 880.857,385.129 882.089,383.172C883.252,381.324 882.716,380.875 886.206,378.158C886.419,377.992 888.706,376.212 887.112,374.915C885.696,373.763 885.597,373.942 884.21,372.763Z" style="fill:rgb(15,15,15);"/>
            </g>
            <g transform="matrix(1.558594,0,0,1.558594,162,18)">
                <path d="M712.257,550.568C711.109,546.752 710.468,545.705 706.72,543.147C701.212,539.387 696.845,541.013 696.489,537.501C696.121,533.877 700.8,534.736 704.616,532.715C714.798,527.321 712.857,518.098 715.447,516.434C719.613,513.759 719.705,520.857 720.775,523.379C726.545,536.971 736.149,532.366 737.548,536.481C738.89,540.431 731.21,540.437 727.665,542.75C718.101,548.989 721.127,557.956 717.589,558.8C714.502,559.536 714.182,555.534 712.257,550.568ZM713.477,533.477C710.189,536.562 710,536.393 709.926,536.774C709.729,537.789 710.997,538.732 711.152,538.847C711.511,539.114 713.877,540.873 715.118,542.785C716.071,544.253 715.836,545.022 717.554,544.659C718.57,544.445 718.098,542.826 721.784,539.855C722.995,538.878 725.068,537.769 722.975,536.088C720.144,533.813 718.931,531.813 718.667,531.377C716.896,528.455 715.497,531.347 713.477,533.477Z" style="fill:rgb(17,17,16);"/>
            </g>
            <g transform="matrix(1.558594,0,0,1.558594,162,18)">
                <path d="M766.506,397.495C763.625,394.234 763.463,392.762 763.009,391.734C761.665,388.684 761.287,388.796 760.892,385.483C760.551,382.627 762.996,383.243 772.373,387.758C781.119,391.969 786.683,400.37 786.834,401.434C787.112,403.403 786.484,403.475 784.505,403.56C775.527,403.945 773.449,405.164 766.506,397.495Z" style="fill:rgb(140,255,178);"/>
            </g>
            <g transform="matrix(1.558594,0,0,1.558594,162,18)">
                <path d="M822.457,387.494C821.367,390.931 820.143,396.059 812.173,402.098C809.266,404.301 806.234,403.657 799.5,403.502C794.476,403.386 799.498,397.902 801.017,396.083C802.147,394.73 804.516,390.711 817.686,384.904C818.306,384.63 821.931,382.736 822.509,384.495C822.719,385.138 822.715,385.411 822.713,385.492C822.696,386.528 822.475,386.473 822.457,387.494Z" style="fill:rgb(140,255,178);"/>
            </g>
            <g transform="matrix(1.558594,0,0,1.558594,162,18)">
                <path d="M692.556,414.387C691.398,413.671 691.399,413.723 690.737,413.198C685.438,408.993 689.927,406.252 692.44,406.798C693.502,407.03 709.638,415.789 711.365,417.62C712.214,418.521 712.562,420.687 711.738,421.677C708.939,425.04 702.322,419.283 692.556,414.387Z" style="fill:rgb(14,14,14);"/>
            </g>
            <g transform="matrix(1.558594,0,0,1.558594,162,18)">
                <path d="M876.718,414.847C881.101,412.595 880.963,412.389 885.366,410.231C885.894,409.972 893.635,403.889 895.475,408.512C896.974,412.277 892.112,414.002 890.269,415.099C883.883,418.899 883.807,418.752 883.254,419.084C881.516,420.125 873.291,425.133 872.313,420.548C871.633,417.363 873.762,416.943 876.718,414.847Z" style="fill:rgb(15,15,12);"/>
            </g>
            <g transform="matrix(1.558594,0,0,1.558594,162,18)">
                <path d="M703.64,496.794C707.373,495.096 707.339,495.081 707.672,494.96C710.086,494.086 712.338,495.502 712.151,497.49C711.809,501.124 705.774,502.635 702.234,505.103C699.009,507.352 698.675,506.753 695.689,508.78C689.581,512.927 686.14,507.382 690.766,503.877C690.956,503.733 702.139,497.585 703.64,496.794Z" style="fill:rgb(16,16,15);"/>
            </g>
            <g transform="matrix(1.558594,0,0,1.558594,162,18)">
                <path d="M699.496,455.544C699.668,455.581 702.768,455.186 702.257,459.461C701.818,463.124 699.288,461.531 682.5,462.024C675.323,462.234 676.92,456.264 679.543,455.671C681.442,455.242 697.9,455.517 699.496,455.544Z" style="fill:rgb(6,6,6);"/>
            </g>
            <g transform="matrix(1.558594,0,0,1.558594,162,18)">
                <path d="M898.5,455.509C901.272,455.525 905.397,455.023 906.515,457.493C907.012,458.589 907.153,461.871 902.519,461.953C882.958,462.301 882.58,461.804 881.868,460.308C881.833,460.234 880.083,455.553 885.499,455.486C888.34,455.451 897.46,455.503 898.5,455.509Z" style="fill:rgb(6,6,6);"/>
            </g>
            <g transform="matrix(1.558594,0,0,1.558594,162,18)">
                <path d="M825.457,400.378C831.134,398.433 831.172,398.664 839.473,397.237C839.792,397.182 845.565,396.19 841.668,400.632C831.81,411.873 828.291,407.311 822.468,406.646C822.242,406.62 819.709,406.331 820.581,404.53C821.635,402.354 825.002,400.613 825.457,400.378Z" style="fill:rgb(140,255,178);"/>
            </g>
            <g transform="matrix(1.558594,0,0,1.558594,162,18)">
                <path d="M842.491,375.927C842.099,375.79 841.306,376.132 840.198,374.702C840.085,374.556 839.397,373.667 839.514,372.501C839.563,372.012 842.026,366.577 843.737,363.63C846.023,359.692 848.669,351.986 852.433,354.596C855.734,356.885 851.464,363.009 846.577,372.541C844.658,376.284 843.398,375.681 842.491,375.927Z" style="fill:rgb(15,15,15);"/>
            </g>
            <g transform="matrix(1.558594,0,0,1.558594,162,18)">
                <path d="M757.545,400.303C758.066,400.436 759.368,400.222 762.134,402.859C766.272,406.806 759.611,406.81 759.564,406.817C754.821,407.488 753.226,410.163 747.077,404.979C746.526,404.515 740.845,399.725 740.871,398.463C740.903,396.893 743.274,397.23 743.503,397.262C750.016,398.187 756.438,399.992 757.545,400.303Z" style="fill:rgb(140,255,178);"/>
            </g>
            <g transform="matrix(1.558594,0,0,1.558594,162,18)">
                <path d="M738.915,361.288C741.344,366.434 747.619,375.279 741.546,375.917C738.397,376.248 738.455,374.347 730.61,359.44C728.158,354.782 734.045,351.779 736.385,356.565C737.572,358.993 737.599,358.95 738.915,361.288Z" style="fill:rgb(17,17,15);"/>
            </g>
            <g transform="matrix(1.558594,0,0,1.558594,162,18)">
                <path d="M763.418,492.495C762.656,496.149 760.749,503.977 757.196,500.909C754.734,498.783 751.453,489.315 757.315,487.017C757.663,486.881 759.773,486.054 761.851,488.145C763.552,489.859 763.208,490.079 763.418,492.495Z" style="fill:rgb(15,15,15);"/>
            </g>
            <g transform="matrix(1.558594,0,0,1.558594,162,18)">
                <path d="M780.039,466.491C779.892,467.307 778.415,475.489 775.542,475.828C772.415,476.197 769.767,467.547 770.787,464.592C772.446,459.788 778.754,460.179 779.886,465.424C779.962,465.775 779.964,466.14 780.039,466.491Z" style="fill:rgb(17,17,17);"/>
            </g>
            <g transform="matrix(1.558594,0,0,1.558594,162,18)">
                <path d="M787.969,496.396C787.765,494.945 786.752,490.687 788.588,488.574C792.121,484.509 797.545,488.806 796.458,493.492C795.395,498.072 794.897,499.128 794.68,499.588C794.531,499.904 793.137,502.856 790.651,501.276C789.432,500.501 788.119,496.816 787.969,496.396Z" style="fill:rgb(15,15,15);"/>
            </g>
            <g transform="matrix(1.558594,0,0,1.558594,162,18)">
                <path d="M804.589,470.483C804.17,466.678 803.421,462.53 806.557,461.676C812.667,460.013 815.209,464.984 811.718,472.607C810.871,474.457 809.479,477.317 806.721,474.294C805.224,472.654 805.416,472.533 804.589,470.483Z" style="fill:rgb(13,13,13);"/>
            </g>
            <g transform="matrix(1.558594,0,0,1.558594,162,18)">
                <path d="M763.498,441.5C761.602,449.392 757.945,448.802 756.496,445.502C755.963,444.287 754.664,439.944 754.612,439.486C754.15,435.421 758.392,432.27 761.366,433.781C764.781,435.517 763.629,440.143 763.498,441.5Z" style="fill:rgb(12,12,11);"/>
            </g>
            <g transform="matrix(1.558594,0,0,1.558594,162,18)">
                <path d="M787.859,442.418C787.495,439.718 787.475,439.737 787.466,439.502C787.128,430.256 798.049,433.196 796.441,439.485C795.927,441.498 796.052,441.502 795.546,443.513C793.704,450.831 790.03,446.959 789.614,446.422C788.586,445.096 788.82,445.001 787.859,442.418Z" style="fill:rgb(16,16,15);"/>
            </g>
            <g transform="matrix(1.558594,0,0,1.558594,162,18)">
                <path d="M746.861,465.484C746.776,467.925 746.965,470.25 744.557,473.549C744.175,474.071 740.775,478.356 738.166,468.604C735.985,460.448 743.774,458.819 746.223,462.684C746.937,463.81 746.653,463.884 746.861,465.484Z" style="fill:rgb(14,14,11);"/>
            </g>
            <g transform="matrix(1.558594,0,0,1.558594,162,18)">
                <path d="M827.684,445.586C827.676,445.597 826.303,448.831 823.534,447.443C820.489,445.917 817.76,432.783 825.478,433.662C832.237,434.432 828.05,444.688 827.684,445.586Z" style="fill:rgb(17,17,14);"/>
            </g>
            <g transform="matrix(1.558594,0,0,1.558594,162,18)">
                <path d="M792.518,531.345C792.697,531.413 794.752,531.508 795.841,534.368C797.25,538.067 795.095,545.404 792.528,545.696C788.158,546.192 784.708,534.873 790.586,531.688C790.724,531.614 790.729,531.663 792.518,531.345Z" style="fill:rgb(14,14,13);"/>
            </g>
            <g transform="matrix(1.558594,0,0,1.558594,162,18)">
                <path d="M771.301,521.563C771.299,521.552 770.89,520.16 770.583,518.488C769.733,513.85 772.915,510.754 776.69,512.023C783.026,514.153 776.723,534.848 771.301,521.563Z" style="fill:rgb(17,17,16);"/>
            </g>
        </g>
    </g>
</svg>
