<?xml version="1.0" encoding="UTF-8" standalone="no"?>
<!DOCTYPE svg PUBLIC "-//W3C//DTD SVG 1.1//EN" "http://www.w3.org/Graphics/SVG/1.1/DTD/svg11.dtd">
<svg width="100%" height="100%" viewBox="0 0 303 329" version="1.1" xmlns="http://www.w3.org/2000/svg" xmlns:xlink="http://www.w3.org/1999/xlink" xml:space="preserve" xmlns:serif="http://www.serif.com/" style="fill-rule:evenodd;clip-rule:evenodd;stroke-linejoin:round;stroke-miterlimit:2;">
    <g transform="matrix(1,0,0,1,-360.085294,-569.497848)">
        <g>
            <g transform="matrix(1.558594,0,0,1.558594,162,18)">
                <path d="M127.105,471.504C127.091,464.205 127.056,460.827 127.225,459.454C127.661,455.919 127.944,455.988 128.291,452.473C128.463,450.734 129.067,449.407 129.226,448.456C130.244,442.381 130.972,439.7 135.367,429.437C137.979,423.336 138.139,423.421 139.173,421.325C142.956,413.658 142.795,413.601 145.777,405.6C148.135,399.273 148.093,392.86 153.617,387.623C156.953,384.461 162.385,384.019 163.541,384.162C175.067,385.582 177.128,395.234 176.658,399.517C175.932,406.142 171.181,409.536 170.823,409.857C161.967,417.792 161.442,421.114 159.973,429.591C159.31,433.418 160.83,448.001 166.512,448.33C171.313,448.608 171.33,441.941 171.475,440.498C172.136,433.961 172.296,434.002 173.082,427.461C174.377,416.684 184.663,415.396 189.368,417.783C198.634,422.484 196.945,431.437 193.852,435.747C185.63,447.204 189.426,462.558 199.141,471.89C201.162,473.831 203.178,476.414 204.417,475.4C205.229,474.734 204.005,472.582 203.883,472.368C203.558,471.795 202.085,469.202 201.432,464.514C200.663,458.99 200.129,459.067 200.133,453.497C200.136,449.421 199.905,447.909 202.487,437.497C204.783,428.238 213.343,411.666 216.082,407.254C220.411,400.283 220.204,400.167 220.638,399.602C220.97,399.171 229.377,387.004 229.662,386.615C230.235,385.829 235.998,377.942 236.923,376.86C245.681,366.629 245.184,366.212 254.581,356.579C259.745,351.285 260.805,354.659 264.573,358.428C270.342,364.198 269.987,364.485 275.443,370.552C279.756,375.349 290.294,389.011 294.771,396.339C295.163,396.981 297.824,401.336 299.876,404.235C301.584,406.645 301.268,406.804 302.788,409.326C307.567,417.254 307.686,418.599 310.677,424.412C312.636,428.218 312.16,428.395 313.894,432.308C316.051,437.175 315.765,438.366 317.369,443.539C319.971,451.926 318.982,452.117 320.585,461.486C320.986,463.83 320.997,472.948 320.548,475.508C319.495,481.51 319.682,481.507 318.544,487.508C318.341,488.581 317.11,495.074 314.896,500.655C314.617,501.357 311.711,508.682 311.304,509.389C307.259,516.416 302.312,527.534 286.84,540.899C281.921,545.148 281.111,545.406 279.583,546.606C272.472,552.194 258.668,558.033 258.377,558.125C251.149,560.422 251.188,560.507 250.553,560.682C243.784,562.552 241.968,562.405 240.527,562.659C235.567,563.533 235.548,563.188 230.54,563.86C222.572,564.931 219.975,563.799 213.505,563.419C209.946,563.211 210.032,562.782 206.51,562.401C198.26,561.509 197.35,560.119 191.491,558.533C185.612,556.94 171.222,548.536 167.886,546.019C153.648,535.277 146.295,524.57 145.951,524.136C144.352,522.125 138.193,511.764 137.611,510.444C133.397,500.876 130.831,495.627 129.514,487.497C129.025,484.475 128.632,484.575 128.286,481.528C127.714,476.498 127.24,476.563 127.105,471.504ZM178.318,442.483C176.502,456.759 164.334,457.495 158.693,451.325C158.069,450.643 155.629,446.509 155.296,445.575C154.729,443.987 152.297,437.178 153.833,424.55C154.239,421.214 156.892,414.765 159.632,411.608C162.416,408.401 162.45,408.472 165.614,405.63C167.327,404.092 173.893,398.595 167.353,392.665C164.532,390.107 157.123,388.278 154.304,400.459C152.342,408.937 148.996,416.138 148.39,417.442C147.993,418.296 147.566,419.759 146.951,420.765C145.576,423.013 138.219,438.599 137.544,442.508C136.379,449.258 135.468,449.072 134.819,455.545C133.969,464.014 133.761,464.003 134.179,472.513C134.304,475.054 135.002,482.503 136.516,487.495C138.034,492.506 137.324,492.717 139.446,497.523C141.443,502.045 141.092,502.166 143.349,506.575C150.586,520.711 158.019,528.678 166.182,535.849C167.07,536.63 177.127,544.779 184.372,547.808C186.538,548.714 186.878,549.551 196.58,553.291C196.87,553.403 201.292,554.857 206.457,555.723C208.205,556.016 209.19,556.601 211.474,556.777C216.236,557.146 222.591,558.749 234.413,557.034C237.576,556.576 237.598,556.865 239.461,556.35C246.936,554.285 247.133,555.018 254.383,552.217C268.469,546.775 275.764,541.61 283.638,534.658C285.92,532.642 293.89,524.433 298.174,518.271C300.821,514.464 306.12,505.553 307.899,499.623C309.714,493.576 310.743,493.874 311.873,486.554C312.56,482.105 315.903,475.523 313.568,475.301C311.822,475.134 312.513,476.235 308.984,482.783C299.074,501.171 278.971,509.456 270.563,510.79C258.509,512.702 258.435,512.357 247.447,510.767C244.328,510.316 234.657,506.958 233.171,505.986C230.068,503.956 223.446,501.363 214.126,490.809C210.998,487.267 211.831,486.244 208.636,485.099C207.366,484.645 198.827,482.684 189.635,471.386C189.349,471.033 185.662,465.079 184.642,461.459C182.337,453.281 181.522,446.863 184.95,437.704C186.605,433.283 191.859,430.636 188.469,425.524C186.291,422.24 180.66,423.336 179.675,427.545C178.962,430.594 178.599,438.36 178.318,442.483ZM209.03,440.389C206.452,448.83 206.128,453.847 208.121,462.581C208.691,465.08 208.858,465.02 209.321,467.537C209.914,470.76 217.113,491.211 237.573,500.326C241.474,502.064 241.4,502.221 245.583,503.175C248.064,503.741 247.999,503.96 250.53,504.328C251.012,504.398 254.64,505.804 262.492,505.313C264.341,505.198 274.84,502.999 278.296,501.134C282.552,498.837 288.855,497.735 299.65,484.621C301.552,482.31 306.491,474.34 307.944,468.625C309.652,461.906 311.006,461.606 310.436,447.503C310.36,445.622 308.327,436.034 305.944,431.291C305.524,430.457 305.708,430.379 301.261,420.598C298.599,414.745 287.322,396.173 275.016,380.896C273.842,379.438 261.309,363.88 259.59,363.309C256.962,362.437 255.074,366.597 251.373,370.381C249.285,372.517 242.527,380.817 241.776,381.74C240.53,383.27 240.769,383.422 238.323,386.358C234.269,391.224 212.126,422.818 209.03,440.389Z" style="fill:rgb(15,15,14);"/>
            </g>
            <g transform="matrix(1.558594,0,0,1.558594,162,18)">
                <path d="M192.495,390.034C178.628,388.865 172.599,374.144 182.394,364.389C189.36,357.452 203.766,360.11 205.958,371.439C207.957,381.771 202.08,388.948 192.495,390.034ZM184.744,373.54C184.694,375.108 183.928,379.547 188.672,382.185C194.055,385.178 202.819,379.599 198.386,370.564C197.053,367.849 190.405,364.425 185.769,370.691C185.046,371.669 185.25,371.744 184.744,373.54Z" style="fill:rgb(17,17,17);"/>
            </g>
            <g transform="matrix(1.558594,0,0,1.558594,162,18)">
                <path d="M222.497,546.659C218.31,546.515 205.623,544.588 202.498,543.506C187.14,538.189 184.449,535.747 177.676,531.226C170.155,526.203 160.323,514.957 158.349,511.595C154.987,505.869 149.218,497.581 154.422,496.234C157.864,495.343 159.249,499.43 159.343,499.595C165.288,510.034 170.006,518.275 186.698,529.179C190.157,531.439 201.465,536.436 205.536,537.322C211.007,538.513 210.97,538.658 211.446,538.755C217.408,539.975 217.407,540.012 223.508,540.057C228.986,540.097 228.629,543.85 227.202,545.222C225.481,546.878 224.099,546.612 222.497,546.659Z" style="fill:rgb(14,14,13);"/>
            </g>
            <g transform="matrix(1.558594,0,0,1.558594,162,18)">
                <path d="M266.487,486.449C269.066,485.892 269.08,486.02 270.47,485.431C282.953,480.142 287.313,471.533 287.82,470.686C291.371,464.746 290.82,464.5 291.517,462.506C293.601,456.546 293.33,456.466 293.659,452.517C293.974,448.741 298.645,447.578 300.07,451.625C300.869,453.896 299.823,476.64 278.772,488.997C269.549,494.412 262.21,494.303 260.497,494.371C255.088,494.583 255.044,491.193 255.935,489.772C257.636,487.061 260.109,488.657 266.487,486.449Z" style="fill:rgb(15,15,13);"/>
            </g>
            <g transform="matrix(1.558594,0,0,1.558594,162,18)">
                <path d="M152.853,482.419C152.862,482.541 153.857,486.281 150.552,486.785C144.832,487.657 145.49,477.475 150.557,479.344C151.125,479.553 151.686,480.145 151.768,480.233C152.673,481.187 152.79,482.257 152.853,482.419Z" style="fill:rgb(20,20,16);"/>
            </g>
        </g>
    </g>
</svg>
