<?xml version="1.0" encoding="UTF-8" standalone="no"?>
<!DOCTYPE svg PUBLIC "-//W3C//DTD SVG 1.1//EN" "http://www.w3.org/Graphics/SVG/1.1/DTD/svg11.dtd">
<svg width="100%" height="100%" viewBox="0 0 367 327" version="1.1" xmlns="http://www.w3.org/2000/svg" xmlns:xlink="http://www.w3.org/1999/xlink" xml:space="preserve" xmlns:serif="http://www.serif.com/" style="fill-rule:evenodd;clip-rule:evenodd;stroke-linejoin:round;stroke-miterlimit:2;">
    <g transform="matrix(1,0,0,1,-328.154132,-77.356376)">
        <g>
            <g transform="matrix(1.558594,0,0,1.558594,162,18)">
                <path d="M260.48,73.499C260.268,75.563 260.143,75.511 259.554,77.509C258.428,81.329 265.122,78.44 267.472,78.225C276.38,77.41 282.851,75.418 281.598,82.513C279.139,96.428 266.72,96.364 272.689,100.233C275.76,102.223 285.746,107.33 292.171,118.687C292.898,119.973 299.978,130.184 298.065,149.457C297.791,152.224 297.906,153.958 295.816,160.596C295.209,162.524 295.344,164.024 293.055,169.309C291.007,174.034 291.062,174.042 288.663,178.588C285.524,184.537 285.671,184.589 282.127,190.273C277.948,196.977 277.811,196.867 273.374,203.414C272.796,204.267 268.096,212.016 266.332,214.38C262.014,220.168 249.461,241.624 232.449,246.325C232.065,246.431 227.88,247.341 227.483,247.427C222.807,248.444 212.329,247.19 202.189,238.895C201.355,238.213 197.854,235.349 192.739,229.301C187.177,222.724 171.602,198.553 169.263,195.684C169.109,195.494 164.667,188.182 162.14,183.723C155.919,172.742 154.645,168.16 151.77,159.417C151.749,159.354 151.686,159.367 150.295,150.539C149.374,144.696 149.861,132.748 152.419,126.469C156.055,117.539 158.218,112.678 169.282,104.225C172.729,101.591 172.857,101.811 176.603,99.605C177.209,99.248 177.186,99.189 177.205,98.476C177.255,96.561 175.778,97.482 171.386,92.603C168.212,89.075 162.073,77.222 170.5,77.376C173.387,77.429 181.878,78.167 183.453,78.661C183.763,78.758 186.584,79.643 187.451,79.375C190.027,78.58 185.535,69.847 187.934,64.718C189.691,60.963 194.503,63.648 204.471,67.577C209.212,69.445 211.888,72.114 213.598,71.738C214.256,71.594 214.747,71.486 215.25,63.482C215.536,58.932 215.743,57.805 219.402,48.463C219.539,48.113 221.991,42.921 224.274,42.008C226.706,41.037 228.32,42.459 237.595,46.273C244.364,49.056 238.213,54.629 236.474,58.488C234.707,62.41 234.406,62.285 233.32,66.448C232.56,69.362 230.076,74.489 232.497,74.301C233.507,74.223 235.114,71.894 236.77,70.985C242.051,68.086 242.126,68.283 247.655,65.855C251.432,64.196 251.445,64.262 255.445,63.289C261.642,61.781 260.711,67.762 260.48,73.499ZM222.017,63.444C221.767,64.855 219.434,78.054 222.623,81.351C224.686,83.485 224.74,79.764 224.743,79.541C224.782,76.852 225.83,67.959 226.258,66.435C228.308,59.145 232.262,52.817 232.276,52.465C232.332,51.001 230.777,50.413 230.573,50.336C228.648,49.608 226.946,48.672 225.849,50.703C225.544,51.267 223.039,55.523 222.017,63.444Z" style="fill:rgb(15,15,14);"/>
            </g>
            <g transform="matrix(1.558594,0,0,1.558594,162,18)">
                <path d="M291.318,141.501C291.309,151.209 291.619,151.294 288.869,160.604C286.75,167.775 286.827,167.808 283.361,174.43C282.005,177.019 281.751,176.85 280.577,179.537C280.318,180.128 280.014,179.952 276.523,186.513C276.252,187.022 276.147,186.946 272.699,192.621C270.634,196.02 265.83,202.184 260.636,210.59C258.768,213.614 247.578,230.009 238.672,235.788C236.912,236.929 228.225,243.273 219.541,240.384C214.015,238.545 213.907,238.733 208.218,234.901C204.2,232.195 198.25,225.953 195.704,222.366C194.099,220.104 194.12,220.122 176.2,193.697C168.235,181.951 164.918,174.444 164.134,172.67C162.776,169.596 162.59,169.7 161.375,166.553C158.515,159.145 158.504,159.139 157.706,153.461C157.689,153.342 156.172,150.776 156.622,138.505C156.735,135.424 157.335,135.548 157.798,132.557C158.479,128.153 162.429,116.485 175.802,107.95C181.086,104.577 187.719,102.052 189.522,101.587C195.055,100.163 194.921,99.679 200.559,98.822C205.529,98.067 205.463,97.774 210.5,97.497C214.37,97.284 214.297,96.559 220.5,96.516C233.023,96.428 232.96,97.118 239.498,97.535C240.771,97.616 253.355,99.222 260.586,102.305C271.232,106.844 272.748,107.209 279.956,114.043C292.374,125.818 291.309,140.051 291.318,141.501Z" style="fill:rgb(255,185,174);"/>
            </g>
            <g transform="matrix(1.558594,0,0,1.558594,162,18)">
                <path d="M311.771,204.535C311.681,206.028 311.673,206.008 311.592,207.505C311.529,208.677 310.917,211.384 312.383,211.89C313.536,212.287 315.181,210.901 318.514,208.517C322.182,205.894 320.504,197.44 324.511,196.546C326.826,196.03 327.581,198.648 327.058,200.449C326.458,202.511 325.986,202.627 326.654,203.366C328.104,204.97 332.431,199.19 334.916,202.216C336.7,204.388 332.221,206.773 331.819,206.987C330.105,207.9 329.252,207.563 329.518,209.492C329.732,211.038 336.062,210.179 335.44,213.485C334.982,215.921 330.848,214.84 330.45,214.736C323.2,212.839 323.195,212.792 322.552,212.88C320.525,213.156 317.669,215.14 317.38,215.293C315.822,216.12 315.065,215.798 315.276,217.545C315.376,218.373 316.185,218.557 318.649,220.287C325.199,224.885 331.479,217.024 334.951,220.077C336.413,221.362 335.393,223.568 331.521,224.551C328.963,225.2 329.174,226.673 331.362,227.703C339.203,231.396 334.008,233.517 333.512,233.574C331.207,233.839 327.773,230.21 326.736,231.688C326.191,232.464 328.303,236.996 326.424,238.399C325.865,238.816 323.184,239.535 322.121,235.602C320.505,229.622 321.335,227.743 316.427,224.621C314.727,223.54 312.873,221.985 311.749,222.866C310.922,223.513 310.664,230.73 312.764,233.271C315.656,236.768 321.477,240.179 318.869,242.897C316.669,245.19 313.568,240.146 312.556,240.03C310.142,239.752 310.996,241.089 311.249,243.501C311.749,248.273 306.686,249.502 306.315,244.519C306.146,242.251 307.1,240.644 305.696,240.108C304.416,239.62 304.163,240.34 303.333,241.311C300.082,245.119 296.306,242.567 299.064,239.17C304.372,232.63 306.413,233.371 306.318,227.503C306.283,225.313 306.403,223.699 305.684,223.308C303.991,222.387 303.936,223.103 302.274,224.083C298.117,226.532 297.82,226.64 295.693,233.551C295.635,233.739 294.975,239.885 291.533,238.442C289.007,237.383 292.187,231.872 290.584,231.395C288.182,230.678 286.256,234.261 283.593,233.285C282.615,232.926 281.66,231.02 282.782,229.734C284.211,228.095 287.18,227.501 287.34,226.437C287.722,223.9 282.315,224.768 282.179,221.509C281.948,215.968 291.488,223.361 296.501,221.503C297.098,221.282 301.486,218.997 302.054,218.194C302.362,217.757 302.193,216.451 301.235,215.879C296.373,212.98 295.099,212.979 294.513,212.978C291.679,212.975 282.962,217.294 282.272,213.556C281.808,211.04 286.068,210.495 286.483,210.442C286.677,210.417 288.29,210.211 288.157,208.664C288.111,208.12 280.23,204.509 282.923,201.918C284.595,200.309 287.29,202.141 287.601,202.352C287.904,202.558 289.312,204.076 290.43,203.398C292.157,202.351 288.59,197.581 291.494,196.487C296.664,194.539 294.608,205.328 299.701,209.206C301.018,210.209 304.021,212.063 304.553,212.03C306.127,211.933 306.247,209.723 306.26,209.478C306.767,200.086 302.717,201.256 298.688,195.392C297.644,193.872 298.255,189.304 302.205,192.872C302.215,192.881 305.304,196.344 306.279,194.415C306.397,194.181 304.897,187.387 308.49,187.271C312.628,187.137 309.939,194.534 310.785,195.301C310.854,195.364 312.183,195.374 312.388,195.288C312.489,195.245 312.431,195.195 313.362,194.315C314.361,193.369 316.959,190.23 318.691,192.337C320.442,194.469 316.712,197.976 316.337,198.329C313.437,201.055 312.857,200.736 311.771,204.535Z" style="fill:rgb(17,17,17);"/>
            </g>
            <g transform="matrix(1.558594,0,0,1.558594,162,18)">
                <path d="M130.93,79.504C130.945,76.79 131.152,74.272 130.342,73.696C129.878,73.366 129.455,73.089 126.319,75.205C121.732,78.301 122.055,78.847 120.637,85.534C119.805,89.458 116.088,89.398 115.557,87.479C115.159,86.042 115.54,86.055 116.263,83.467C116.447,82.812 116.308,80.112 113.399,82.305C109.182,85.483 107.492,82.683 107.526,81.501C107.594,79.139 111.843,77.975 112.573,77.575C113.683,76.965 113.141,75.947 113.072,75.819C112.845,75.392 109.792,74.585 109.497,74.508C105.944,73.569 106.2,69.79 110.533,70.111C113.237,70.311 113.166,70.61 117.662,72.017C121.325,73.164 121.312,72.007 126.431,69.407C129.946,67.622 122.454,64.383 121.315,63.972C118.113,62.818 112.586,65.832 109.493,65.559C106.22,65.271 106.253,62.029 110.612,60.736C112.562,60.158 113.071,60.554 113.13,59.416C113.196,58.16 112.457,58.176 110.53,57.448C106.497,55.922 107.433,52.556 108.724,51.897C111.228,50.619 113.866,55.505 115.826,53.882C116.919,52.977 116.384,52.747 115.887,51.416C115.755,51.06 114.209,46.916 117.502,46.952C119.831,46.978 120.557,49.958 122.229,56.567C123.043,59.788 125.04,59.516 128.261,61.958C128.441,62.095 130.603,63.734 131.048,61.432C131.171,60.793 131.015,60.13 131.013,59.479C131.01,58.245 131.369,55.865 130.866,54.356C129.882,51.405 120.289,45.996 123.913,42.956C126.124,41.102 128.983,45.593 129.432,45.694C129.808,45.779 131.041,45.453 131.099,45.346C131.283,45.006 131.179,44.991 131.059,42.492C131.04,42.095 130.869,38.518 133.427,38.126C138.161,37.401 134.777,46.119 137.439,46.107C138.029,46.104 139.717,44.134 139.888,43.935C142.331,41.082 143.971,43.183 144.17,43.669C145.175,46.119 142.279,48.115 141.712,48.7C136.927,53.637 136.052,53.646 136.185,60.536C136.273,65.143 140.654,61.071 141.545,60.575C144.62,58.864 145.683,58.667 147.506,49.501C148.208,45.972 151.51,46.419 152.118,48.582C152.483,49.88 149.121,57.03 155.616,52.69C159.91,49.821 161.381,54.1 159.15,56.1C157.195,57.853 154.265,57.612 154.481,59.505C154.614,60.674 157.664,60.638 159.327,61.753C161.595,63.274 160.79,66.82 155.541,65.354C150.401,63.919 147.99,62.721 144.574,64.635C141.029,66.62 141.004,66.573 140.716,66.778C139.107,67.924 140.5,69.174 140.65,69.309C140.967,69.593 141.046,69.455 145.379,71.726C149.547,73.91 151.117,70.487 157.484,70.181C162.054,69.96 161.239,73.965 157.56,74.712C157.284,74.768 151.814,75.878 156.187,77.95C156.616,78.154 161.487,80.461 159.79,82.668C156.942,86.371 153.627,80.33 151.913,81.867C150.948,82.732 151.95,85.253 152.027,85.57C152.092,85.841 152.7,88.356 150.551,88.719C148.2,89.117 147.533,86.809 147.449,86.516C144.798,77.336 144.19,76.967 141.538,75.437C138.115,73.462 136.034,71.773 136.144,75.467C136.282,80.149 136.235,80.118 136.287,80.519C137.004,86.035 147.467,89.544 144.125,93.157C141.987,95.467 138.688,90.584 137.498,90.548C135.584,90.489 136.287,94.931 136.265,95.489C136.142,98.733 133.905,99.075 132.603,98.326C130.094,96.882 131.25,91.63 131.205,91.543C131.135,91.406 129.714,90.611 129.554,90.621C129.282,90.638 129.633,91.061 127.182,93.072C125.713,94.277 123.599,93.861 123.232,92.61C122.632,90.568 124.688,88.753 125.714,87.716C129.319,84.074 130.768,84.615 130.93,79.504Z" style="fill:rgb(16,16,16);"/>
            </g>
            <g transform="matrix(1.558594,0,0,1.558594,162,18)">
                <path d="M106.605,185.498C106.695,185.07 106.482,184.495 107.242,183.341C109.107,180.505 109.986,178.695 110.711,177.646C114.066,172.793 113.988,172.778 114.283,172.361C116.194,169.659 117.248,167.519 117.81,166.714C124.729,156.795 127.342,149.982 130.203,151.976C131.669,152.998 132.837,155.412 133.001,155.75C133.608,157.006 140.02,170.26 140.582,171.461C143.727,178.188 144.029,178.925 144.301,179.586C146.875,185.853 149.536,186.473 145.962,190.892C135.475,203.857 134.975,204.817 131.496,204.577C121.849,203.912 117.613,203.095 116.422,202.865C112.959,202.197 113.458,200.841 107.261,187.627C106.727,186.489 106.901,186.456 106.605,185.498ZM125.478,198.866C130.014,199.146 130.747,201.027 133.75,197.72C135.462,195.834 135.541,195.927 136.949,193.795C139.678,189.662 143.18,189.051 141.652,185.437C141.248,184.479 141.022,184.585 136.241,173.62C136,173.067 133.276,166.821 133.202,166.722C132.568,165.88 132.387,165.94 131.432,166.414C131.257,166.5 130.983,166.471 130.896,166.644C130.88,166.676 131.064,171.012 130.936,173.53C130.663,178.876 130.098,180.448 134.636,183.283C134.872,183.43 136.966,184.738 137.218,185.607C137.53,186.684 137.066,191.433 130.543,186.445C126.508,183.36 125.771,183.034 126.11,178.473C126.558,172.46 126.108,172.456 126.902,166.458C127.062,165.254 127.737,164.942 126.652,164.363C124.338,163.129 124.961,165.204 120.684,171.615C120.51,171.875 112.858,184.222 112.737,184.581C111.861,187.194 116.746,196.999 118.423,197.654C121.796,198.973 121.866,198.648 125.478,198.866Z" style="fill:rgb(17,17,16);"/>
            </g>
            <g transform="matrix(1.558594,0,0,1.558594,162,18)">
                <path d="M312.468,39.815C319.689,41.041 320.536,40.915 322.667,46.429C324.868,52.124 328.73,56.004 326.456,60.475C325.838,61.69 317.394,74.878 311.821,84.672C310.367,87.225 310.229,87.111 308.642,89.595C306.336,93.202 303.215,90.749 301.775,87.377C299.211,81.373 294.602,73.001 290.639,64.432C287.763,58.212 284.362,56.43 290.769,49.755C299.27,40.9 299.253,37.979 303.48,38.624C307.531,39.243 307.495,39.401 312.468,39.815ZM307.995,80.038C308.532,80.045 308.9,80.655 309.432,79.42C309.97,78.172 310.639,77.615 311.567,75.536C313.081,72.147 319.564,62.055 319.804,61.705C322.716,57.47 322.068,56.968 319.88,52.305C318.73,49.855 318.879,49.81 317.704,47.385C316.505,44.911 312.096,45.075 310.443,44.733C304.228,43.447 303.614,43.037 301.05,46.107C298.049,49.7 291.882,54.542 292.743,57.434C292.794,57.606 295.881,63.738 296.816,65.333C298.105,67.53 298.2,68.559 299.157,70.652C301.913,76.674 301.461,76.834 301.778,77.311C301.858,77.432 304.366,79.573 304.134,75.477C303.561,65.355 303.762,65.346 303.59,64.482C302.925,61.14 295.514,58.974 297.846,55.779C299.185,53.945 303.095,56.947 303.627,57.315C308.23,60.498 308.538,60.891 308.336,66.494C307.938,77.534 307.696,77.501 307.664,78.459C307.63,79.501 307.967,79.906 307.995,80.038Z" style="fill:rgb(18,18,16);"/>
            </g>
            <g transform="matrix(1.558594,0,0,1.558594,162,18)">
                <path d="M328.469,141.488C326.544,145.925 325.961,150.716 322.4,149.855C318.466,148.904 317.968,137.774 313.213,133.875C309.293,130.661 303.909,129.055 305.234,125.386C306.235,122.613 313.256,120.746 315.481,116.49C319.776,108.271 319.243,102.943 323.517,103.351C327.59,103.74 327.187,111.835 332.487,118.511C335.078,121.775 343.679,123.723 341.704,127.613C340.724,129.544 332.698,132.744 330.289,137.387C329.248,139.395 329.312,139.392 328.469,141.488ZM315.374,124.35C314.264,125.307 312.344,126.383 314.727,128.182C319.253,131.596 319.534,132.864 322.1,137.865C323.001,139.62 324.264,138.696 324.585,137.544C327.269,127.906 334.696,128.729 332.417,125.565C331.61,124.445 326.9,123.018 324.797,116.348C324.4,115.091 324.843,114.526 323.516,114.428C320.481,114.205 323.72,118.21 315.374,124.35Z" style="fill:rgb(15,15,15);"/>
            </g>
            <g transform="matrix(1.558594,0,0,1.558594,162,18)">
                <path d="M147.504,226.506C149.757,225.177 152.109,224.512 153.534,222.528C157.365,217.196 157.156,211.753 160.504,211.539C163.497,211.348 164.357,215.319 164.766,216.404C169.135,227.999 174.04,224.558 175.642,228.433C177.006,231.732 172.891,232.811 170.786,233.999C165.492,236.986 164.588,245.059 162.572,246.579C158.418,249.711 156.798,242.763 156.676,242.427C152.852,231.909 146.859,233.813 145.544,230.481C144.61,228.113 147.155,226.799 147.504,226.506ZM159.838,237.133C160.049,237.14 160.227,236.921 160.439,236.928C160.461,236.929 161.158,237.517 161.627,236.633C163.339,233.416 163.342,233.361 166.312,231.251C169.42,229.042 165.868,227.897 163.725,225.318C162.577,223.937 162.137,222.907 162.069,222.815C159.494,219.356 159.778,223.69 156.632,226.636C154.62,228.521 154.011,228.192 154.015,229.436C154.016,229.702 153.848,229.992 153.961,230.233C154.676,231.754 156.682,230.58 159.838,237.133Z" style="fill:rgb(17,17,15);"/>
            </g>
            <g transform="matrix(1.558594,0,0,1.558594,162,18)">
                <path d="M209.303,77.778C210.202,78.359 214.931,81.416 218.497,87.502C220.825,91.476 215.381,90.636 211.506,90.726C210.25,90.755 207.446,92.221 200.853,86.126C196.258,81.879 195.079,76.564 194.32,74.556C192.065,68.598 198.768,72.287 200.638,73.206C203.329,74.528 206.399,75.557 209.303,77.778Z" style="fill:rgb(140,255,178);"/>
            </g>
            <g transform="matrix(1.558594,0,0,1.558594,162,18)">
                <path d="M251.395,80.438C250.749,81.463 249.24,84.729 243.759,88.852C240.759,91.109 240.484,90.787 231.501,90.489C226.777,90.332 230.943,85.703 233.495,82.496C233.714,82.221 238.269,78.19 238.754,77.846C245.192,73.292 252.503,71.135 252.526,71.135C255.56,71.128 253.144,77.525 251.395,80.438Z" style="fill:rgb(140,255,178);"/>
            </g>
            <g transform="matrix(1.558594,0,0,1.558594,162,18)">
                <path d="M269.511,84.722C271.353,84.519 271.34,84.516 271.5,84.503C273.305,84.364 274.222,85.314 272.952,86.717C272.457,87.265 270.42,89.879 269.516,90.52C262.725,95.334 262.257,95.46 256.403,93.834C255.663,93.629 249.412,93.426 253.066,90.148C254.6,88.772 255.707,86.008 269.511,84.722Z" style="fill:rgb(140,255,178);"/>
            </g>
            <g transform="matrix(1.558594,0,0,1.558594,162,18)">
                <path d="M186.504,94.88C184.153,94.38 184.162,94.342 182.207,92.902C178.74,90.35 178.476,90.655 175.698,87.359C174.234,85.622 174.227,84.379 176.5,84.499C177.21,84.537 189.292,86.056 192.741,88.054C193.805,88.67 198.27,90.912 195.807,92.906C194.989,93.568 192.713,93.322 190.636,93.94C188.592,94.548 188.63,94.584 186.504,94.88Z" style="fill:rgb(140,255,178);"/>
            </g>
            <g transform="matrix(1.558594,0,0,1.558594,162,18)">
                <path d="M194.901,182.642C190.377,191.883 186.107,178.879 187.546,174.518C189.124,169.738 196.803,170.672 196.034,177.454C195.729,180.148 195.032,182.151 194.901,182.642Z" style="fill:rgb(21,21,20);"/>
            </g>
            <g transform="matrix(1.558594,0,0,1.558594,162,18)">
                <path d="M219.483,220.5C219.53,220.171 219.496,219.834 219.543,219.506C220.007,216.261 224.285,213.596 226.826,216.173C229.665,219.052 228.007,223.963 227.79,224.606C224.256,235.075 219.807,226.53 219.483,220.5Z" style="fill:rgb(13,13,13);"/>
            </g>
            <g transform="matrix(1.558594,0,0,1.558594,162,18)">
                <path d="M240.506,146.288C240.814,146.373 243.186,146.189 244.227,149.577C244.935,151.882 244.29,161.685 239.561,160.333C237.826,159.837 236.309,156.915 235.925,153.459C235.082,145.881 240.274,146.329 240.506,146.288Z" style="fill:rgb(19,19,19);"/>
            </g>
            <g transform="matrix(1.558594,0,0,1.558594,162,18)">
                <path d="M202.811,201.483C203.037,199.503 202.548,199.306 203.855,197.784C204.071,197.533 205.582,195.774 207.508,195.852C214.933,196.155 210.904,209.052 208.304,210.047C204.593,211.467 202.954,202.284 202.811,201.483Z" style="fill:rgb(11,11,10);"/>
            </g>
            <g transform="matrix(1.558594,0,0,1.558594,162,18)">
                <path d="M219.465,178.502C219.466,178.168 219.452,177.834 219.454,177.5C219.479,170.815 225.916,170.674 228.064,174.698C229.138,176.711 227.609,187.266 223.376,185.871C220.315,184.863 219.553,179.163 219.465,178.502Z" style="fill:rgb(11,11,11);"/>
            </g>
            <g transform="matrix(1.558594,0,0,1.558594,162,18)">
                <path d="M219.457,125.501C219.464,125.266 219.524,123.013 219.711,122.57C222.121,116.855 229.774,119.512 228.306,126.461C226.208,136.386 222.807,133.163 222.324,132.671C219.875,130.177 219.512,126.116 219.457,125.501Z" style="fill:rgb(10,10,7);"/>
            </g>
            <g transform="matrix(1.558594,0,0,1.558594,162,18)">
                <path d="M260.45,124.501C260.431,125.151 260.316,129.055 258.214,132.315C257.425,133.539 254.926,134.623 253.399,131.556C247.36,119.433 257.606,116.381 260.207,122.598C260.266,122.74 260.225,122.739 260.45,124.501Z" style="fill:rgb(11,11,8);"/>
            </g>
            <g transform="matrix(1.558594,0,0,1.558594,162,18)">
                <path d="M171.968,154.402C171.918,153.9 170.473,147.447 174.387,146.185C178.228,144.945 179.822,148.258 180.037,148.704C181.97,152.721 176.74,168.223 171.968,154.402Z" style="fill:rgb(15,15,14);"/>
            </g>
            <g transform="matrix(1.558594,0,0,1.558594,162,18)">
                <path d="M207.491,146.341C207.828,146.404 208.18,146.352 208.516,146.416C212.604,147.188 212.713,153.685 211.122,157.344C207.092,166.611 202.045,153.739 203.757,149.601C205.173,146.18 207.391,146.37 207.491,146.341Z" style="fill:rgb(14,14,14);"/>
            </g>
            <g transform="matrix(1.558594,0,0,1.558594,162,18)">
                <path d="M191.483,119.385C191.825,119.401 192.168,119.327 192.51,119.343C198.928,119.639 196.173,131.829 193.333,133.213C189.536,135.063 187.37,127.303 188.025,123.433C188.679,119.574 191.12,119.519 191.483,119.385Z" style="fill:rgb(15,15,15);"/>
            </g>
            <g transform="matrix(1.558594,0,0,1.558594,162,18)">
                <path d="M268.217,155.588C268.131,155.192 268.005,154.806 267.919,154.41C266.026,145.673 272.934,144.784 275.072,146.932C278.422,150.297 273.799,168.319 268.217,155.588Z" style="fill:rgb(18,18,16);"/>
            </g>
            <g transform="matrix(1.558594,0,0,1.558594,162,18)">
                <path d="M237.479,206.509C236.657,203.99 236.501,204.052 236.355,202.512C235.677,195.339 241.509,195.201 243.401,196.625C246.162,198.703 244.597,204.056 243.976,206.625C243.425,208.903 240.436,211.858 237.838,207.321C237.691,207.064 237.626,206.766 237.479,206.509Z" style="fill:rgb(17,17,16);"/>
            </g>
            <g transform="matrix(1.558594,0,0,1.558594,162,18)">
                <path d="M260.485,179.497C260.342,180.049 259.016,185.155 256.488,185.397C252.778,185.752 252.315,177.412 252.528,175.504C253.082,170.528 260.619,169.812 260.723,176.496C260.746,177.995 260.649,177.966 260.485,179.497Z" style="fill:rgb(15,16,13);"/>
            </g>
        </g>
    </g>
</svg>
