<?xml version="1.0" encoding="UTF-8" standalone="no"?>
<!DOCTYPE svg PUBLIC "-//W3C//DTD SVG 1.1//EN" "http://www.w3.org/Graphics/SVG/1.1/DTD/svg11.dtd">
<svg width="100%" height="100%" viewBox="0 0 351 319" version="1.1" xmlns="http://www.w3.org/2000/svg" xmlns:xlink="http://www.w3.org/1999/xlink" xml:space="preserve" xmlns:serif="http://www.serif.com/" style="fill-rule:evenodd;clip-rule:evenodd;stroke-linejoin:round;stroke-miterlimit:2;">
    <g transform="matrix(1,0,0,1,-1221.353755,-77.695215)">
        <g>
            <g transform="matrix(1.558594,0,0,1.558594,162,18)">
                <path d="M805.5,242.477C786.305,242.567 786.294,242.552 780.485,241.638C775.017,240.777 774.931,241.736 769.485,240.583C766.081,239.862 766.03,240.397 762.437,239.853C759.094,239.346 751.871,238.582 745.423,236.763C745.264,236.718 741.145,235.976 736.421,234.837C736.139,234.769 730.976,232.915 729.482,232.578C728.118,232.27 725.616,231.706 713.489,225.52C709.3,223.383 702.436,217.252 701.541,216.453C690.846,206.901 689.867,201.76 685.917,194.283C685.108,192.752 684.088,188.924 681.801,182.396C681.537,181.645 681.603,181.653 680.212,172.565C679.318,166.729 679.82,152.278 679.881,150.515C680.16,142.463 680.698,142.533 681.384,134.491C681.488,133.273 681.558,132.448 684.983,119.637C685.204,118.808 685.281,118.52 688.65,109.557C688.89,108.919 689.076,109.002 691.982,101.719C692.015,101.638 697.429,91.6 697.904,90.72C698.447,89.712 706.707,78.041 709.781,74.762C713.59,70.698 718.175,65.361 725.244,60.138C726.947,58.879 726.795,58.699 729.668,56.748C736.87,51.857 737.822,51.165 742.29,49.095C744.37,48.132 744.267,47.975 746.374,47.129C754.102,44.025 754.169,43.91 756.449,43.307C756.449,43.307 761.138,41.816 767.394,40.144C768.262,39.912 768.296,40.34 778.534,38.701C780.361,38.408 796.366,37.856 802.428,38.959C807.804,39.936 810.06,39.478 812.592,40.161C823.716,43.161 850.562,48.728 874.918,76.104C882.83,84.997 882.504,85.234 888.897,95.247C890.683,98.043 896.515,110.621 896.75,111.411C900.894,125.35 900.93,125.318 901.132,126.563C902.109,132.588 903.592,135.765 904.379,147.507C905.162,159.176 904.305,164.476 903.337,173.476C903.116,175.537 902.772,175.451 900.8,183.58C900.56,184.568 897.271,193.865 895.306,197.384C890.509,205.971 886.387,210.449 885.456,211.46C881.618,215.63 881.742,215.734 877.422,219.408C867.232,228.073 862.25,229.397 859.306,231.171C858.38,231.729 844.614,237.394 835.571,238.939C834.445,239.131 822.32,241.202 821.486,241.231C813.459,241.515 813.547,242.446 805.5,242.477ZM897.031,141.518C896.92,140.307 896.324,133.762 894.209,126.571C892.571,120.999 892.644,120.984 892.493,120.502C888.808,108.762 882.233,97.15 881.212,95.708C871.276,81.676 869.166,78.813 856.177,67.904C847.164,60.334 834.592,54.563 834.489,54.526C827.903,52.12 828.03,51.827 827.455,51.629C818.888,48.685 816.945,47.653 816.507,47.588C815.714,47.469 814.929,48.492 815.518,49.489C815.665,49.738 815.72,49.685 818.117,50.858C818.921,51.251 819.87,51.884 820.017,51.982C820.353,52.207 823.96,54.613 824.205,54.825C824.355,54.956 834.162,64.377 834.383,64.611C851.928,83.146 861.703,112.29 862.29,114.56C863.448,119.035 863.593,118.964 864.791,123.411C866.41,129.416 866.155,129.45 867.308,135.542C870.836,154.175 869.871,168.285 869.864,168.516C869.676,175.051 869.216,175 868.756,181.522C868.6,183.728 867.963,184.665 867.688,186.524C867.238,189.571 866.982,189.487 866.459,192.494C865.642,197.186 865.223,197.044 863.533,201.514C860.02,210.806 858.797,211.547 856.348,215.405C854.555,218.229 853.977,218.253 852.872,219.793C848.843,225.41 845.075,226.488 843.91,227.803C842.955,228.881 843.943,229.791 844.38,229.847C844.975,229.924 844.942,229.784 847.532,228.684C849.015,228.054 849.056,228.248 850.54,227.598C857.231,224.667 858.064,224.196 858.688,223.843C865.773,219.833 872.176,216.111 880.209,207.25C891.191,195.136 896.285,176.749 896.818,171.54C897.576,164.127 897.826,164.167 897.877,163.522C898.768,152.313 897.305,145.889 897.031,141.518ZM779.495,46.14C774.684,46.245 768.149,46.424 759.52,49.552C756.731,50.563 756.47,49.944 750.626,52.781C747.327,54.382 743.07,55.384 732.411,63.381C721.002,71.94 717.88,75.74 710.17,85.231C705.631,90.818 697.31,105.827 695.643,110.547C692.902,118.31 692.338,118.516 691.666,122.531C691.253,124.994 689.886,126.201 688.192,137.452C687.578,141.53 687.795,141.546 686.891,145.558C686.716,146.334 686.898,146.348 686.036,155.467C685.931,156.585 685.717,158.846 686.685,169.484C686.905,171.903 687.551,172.669 687.757,174.466C688.591,181.774 690.153,188.1 695.677,198.409C702.289,210.747 713.611,217.265 715.565,218.39C720.593,221.285 723.444,223.463 731.399,225.847C735.965,227.216 735.798,227.752 740.5,228.502C743.758,229.022 750.521,231.481 760.518,232.293C763.57,232.541 763.438,233.265 766.503,233.455C772.535,233.829 772.46,234.44 778.49,234.712C784.064,234.964 796.612,236.646 811.508,234.564C811.912,234.507 811.878,234.388 816.488,233.442C818.26,233.079 818.385,232.574 820.456,232.229C821.894,231.989 826.199,231.27 837.199,225.019C838.784,224.118 847.86,216.785 852.188,209.329C858.738,198.044 859.66,191.886 861.482,184.496C861.812,183.159 865.369,162.431 861.26,140.558C860.406,136.014 860.464,136.034 859.599,131.483C858.44,125.382 858.268,125.451 856.343,119.555C855.944,118.335 856.129,118.004 854.362,112.544C854.317,112.404 850.437,101.581 846.953,95.252C844.586,90.952 844.771,90.867 842.182,86.685C837.11,78.494 837.003,78.587 830.895,71.165C826.019,65.242 816.4,56.975 809.464,53.567C805.459,51.6 805.598,51.354 801.386,49.813C801.078,49.7 801.104,49.642 797.591,48.257C796.975,48.013 795.921,47.598 789.503,46.478C786.956,46.034 782.176,46.134 779.495,46.14Z" style="fill:rgb(14,14,13);"/>
            </g>
            <g transform="matrix(1.558594,0,0,1.558594,162,18)">
                <path d="M695.502,171.5C694.298,156.995 694.248,156.991 695.463,142.497C695.72,139.433 696.063,139.524 696.616,136.519C699.077,123.149 700.611,122.554 701.663,118.545C702.626,114.874 707.192,105.71 707.734,104.623C708.248,103.591 710.91,98.249 715.374,92.409C725.92,78.611 732.462,74.343 734.574,72.588C745.753,63.301 757.469,59.586 762.622,57.862C766.426,56.59 770.477,55.988 770.604,55.954C773.526,55.162 773.522,55.198 776.535,54.95C777.647,54.859 786.029,54.169 790.465,55.618C793.104,56.48 794.949,56.454 799.486,58.531C808.893,62.836 811.292,65.126 813.376,66.667C814.468,67.475 820.126,71.659 825.818,78.227C829.066,81.975 835.461,90.108 838.566,96.465C846.039,111.764 845.47,112.179 847.44,117.521C850.392,125.526 849.726,125.71 851.149,130.591C851.421,131.523 852.876,136.516 853.487,142.501C853.798,145.55 854.085,145.474 854.485,148.502C854.645,149.718 855.056,162.095 855.036,163.497C854.927,171.077 854.995,171.073 853.78,178.539C852.874,184.104 853.311,184.182 851.535,189.512C845.767,206.822 838.802,211.197 835.859,213.889C826.123,222.796 812.456,225.742 806.477,226.182C801.959,226.515 799.235,227.361 790.482,226.819C789.279,226.744 777.308,226.002 775.455,225.867C770.124,225.478 768.538,224.884 765.489,224.647C761.936,224.37 762.044,223.819 758.511,223.408C754.974,222.997 755.04,222.732 751.537,222.234C745.257,221.342 745.427,220.68 736.523,218.406C729.665,216.654 717.564,210.193 710.824,203.185C708.608,200.88 708.662,200.861 706.723,198.328C702.49,192.799 698.629,184.078 697.966,181.381C695.727,172.276 695.647,172.302 695.502,171.5ZM701.871,165.487C702.436,173.259 702.429,173.287 705.835,183.387C708.231,190.49 716.762,202.777 730.453,208.609C734.43,210.304 734.263,210.683 738.421,211.792C742.671,212.926 742.765,213.917 754.459,215.701C756.576,216.023 759.709,217.452 771.534,218.231C777.056,218.595 776.983,219.157 782.506,219.423C785.796,219.582 791.706,221.517 802.541,219.727C806.057,219.146 806.12,219.627 809.536,218.639C810.338,218.407 832.358,216.433 842.406,194.453C844.602,189.648 844.9,189.737 845.706,184.535C845.803,183.909 845.988,183.956 847.59,176.518C847.985,174.684 848.682,163.177 848.391,158.508C847.697,147.368 847.326,144.848 846.144,140.61C844.916,136.205 846.06,135.955 843.379,127.54C841.968,123.11 839.856,113.094 831.243,97.632C830.289,95.918 830.225,95.973 825.228,88.676C816.758,76.31 804.131,67.202 794.658,64.041C791.055,62.838 784.494,59.179 769.413,63.158C761.726,65.186 751.527,68.202 738.422,78.392C730.291,84.713 723.256,93.591 721.124,96.199C716.268,102.143 707.663,118.624 705.705,127.552C704.771,131.809 701.992,138.275 701.876,148.505C701.824,153.166 701.33,153.66 701.305,156.496C701.267,161.024 701.666,160.974 701.871,165.487Z" style="fill:rgb(15,15,14);"/>
            </g>
            <g transform="matrix(1.558594,0,0,1.558594,162,18)">
                <path d="M722.479,162.5C722.428,156.182 722.416,153.089 722.82,151.573C725.937,139.872 725.024,138.785 731.878,126.712C737.225,117.293 737.555,117.514 741.088,112.188C743.923,107.914 744.01,107.998 746.863,103.741C753.724,93.506 753.917,93.652 755.95,90.837C764.01,79.673 770.268,77.125 772.689,75.873C773.405,75.503 776.877,73.708 782.502,73.596C785.736,73.532 798.25,72.978 810.221,93.657C810.579,94.276 813.972,100.137 814.603,101.446C816.554,105.491 816.808,105.333 818.951,109.27C829.383,128.434 829.78,130.203 830.862,132.324C831.491,133.559 835.221,143.412 835.247,143.556C837.785,157.536 838.658,161.012 837.461,166.493C836.149,172.5 835.779,183.772 824.677,195.668C816.304,204.641 803.057,207.671 800.535,207.86C787.074,208.868 786.816,207.568 779.424,205.879C772.043,204.192 742.618,212.214 726.845,180.335C725.904,178.432 723.953,171.412 723.789,170.443C723.114,166.464 722.609,166.552 722.479,162.5ZM787.921,151.432C787.448,147.92 787.281,147.98 786.596,144.478C785.69,139.85 784.708,138.281 784.219,136.581C783.472,133.982 783.65,133.962 782.861,131.358C781.057,125.407 779.148,131.354 778.612,132.554C774.783,141.116 774.42,142.505 774.183,143.412C772.979,148.025 772.476,147.837 771.252,152.433C767.818,165.325 767.814,165.363 767.679,166.517C766.507,176.541 765.411,176.615 767.44,186.515C768.074,189.61 771.118,193.784 771.698,194.28C777.561,199.293 781.679,196.78 785.056,194.007C786.657,192.692 789.739,187.394 790.194,184.455C791.029,179.064 790.756,172.527 790.712,171.49C790.287,161.318 790.191,161.329 787.921,151.432Z" style="fill:rgb(15,15,14);"/>
            </g>
            <g transform="matrix(1.558594,0,0,1.558594,162,18)">
                <path d="M763.573,157.516C762.405,165.576 761.421,165.402 760.753,173.525C760.191,180.37 759.549,182.946 763.385,192.543C764.577,195.524 767.795,198.042 765.706,198.836C763.968,199.495 759.164,198.242 758.611,198.098C754.524,197.033 754.335,197.591 749.653,195.2C741.69,191.133 737.313,184.839 737.211,184.71C736.44,183.735 733.756,179.696 733.109,177.634C731.714,173.19 726.306,162.732 731.473,144.492C731.59,144.079 731.673,144.11 733.138,139.392C733.166,139.301 735.437,133.508 738.939,127.756C744.558,118.528 744.845,118.739 750.936,109.82C751.636,108.795 752.182,108.732 753.416,106.451C753.729,105.873 753.75,105.898 761.107,95.219C761.51,94.634 769.721,83.248 777.405,81.165C782.961,79.659 783.097,79.533 788.594,81.19C796.348,83.528 804.012,96.368 804.147,96.651C805.726,99.948 808.104,103.029 811.38,109.564C812.278,111.356 812.392,111.258 823.172,131.662C823.525,132.329 823.462,132.354 826.887,140.335C828.431,143.934 832.461,158.92 830.823,166.551C829.609,172.206 828.649,178.605 823.556,186.541C822.689,187.893 817.008,194.694 811.408,197.284C801.355,201.935 799.187,201.37 791.519,201.247C791.297,201.244 789.006,201.207 788.753,201.028C788.661,200.964 788.308,199.71 788.344,199.467C788.512,198.347 793.772,195.625 795.687,186.545C796.678,181.846 796.959,181.889 796.935,176.505C796.895,167.415 796.589,167.448 795.908,163.454C795.786,162.738 795.755,160.452 795.341,158.54C794.058,152.618 794.738,152.508 793.874,149.389C791.095,139.355 791.092,137.522 789.486,133.506C788.442,130.894 785.917,118.115 778.495,122.493C774.516,124.84 769.662,139.559 768.129,143.347C767.517,144.861 767.577,144.879 763.573,157.516Z" style="fill:rgb(255,185,174);"/>
            </g>
            <g transform="matrix(1.558594,0,0,1.558594,162,18)">
                <path d="M804.49,131.491C805.762,130.159 805.69,130.11 807.187,129.01C807.4,128.854 809.164,127.559 810.461,128.558C813.504,130.902 808.627,134.937 805.289,138.3C805.033,138.559 802.487,141.124 800.83,139.195C798.61,136.611 804.31,131.68 804.49,131.491Z" style="fill:rgb(20,20,19);"/>
            </g>
            <g transform="matrix(1.558594,0,0,1.558594,162,18)">
                <path d="M754.521,150.476C755.699,151.83 756.168,151.839 755.636,153.557C754.435,157.437 747.981,151.534 745.299,149.806C745.042,149.641 742.685,148.594 742.795,146.525C742.853,145.446 743.826,143.647 746.347,144.813C747.762,145.467 753.882,150.003 754.521,150.476Z" style="fill:rgb(23,23,20);"/>
            </g>
            <g transform="matrix(1.558594,0,0,1.558594,162,18)">
                <path d="M811.518,156.538C811.419,156.588 804.757,160.59 804.411,156.513C804.184,153.837 807.356,153.505 811.686,150.809C817.662,147.089 819.027,151.394 817.233,153.25C816.333,154.18 811.78,156.397 811.518,156.538Z" style="fill:rgb(19,19,17);"/>
            </g>
            <g transform="matrix(1.558594,0,0,1.558594,162,18)">
                <path d="M785.385,98.497C785.333,99.429 785.082,107.901 783.58,108.622C780.035,110.325 780.085,104.927 780.088,104.494C780.165,96.078 780.581,95.663 781.114,95.13C781.826,94.419 785.253,93.175 785.388,97.505C785.398,97.835 785.375,98.166 785.385,98.497Z" style="fill:rgb(19,19,17);"/>
            </g>
            <g transform="matrix(1.558594,0,0,1.558594,162,18)">
                <path d="M814.423,177.166C810.204,177.996 806.796,179.467 806.045,176.607C805.21,173.432 810.583,173.012 813.344,172.011C813.562,171.932 816.799,170.124 818.473,171.534C818.676,171.705 820.353,173.118 818.978,174.804C817.53,176.581 815.327,176.896 814.423,177.166Z" style="fill:rgb(21,21,21);"/>
            </g>
            <g transform="matrix(1.558594,0,0,1.558594,162,18)">
                <path d="M757.116,126.752C760.079,131.321 764.515,135.608 760.483,136.443C758.401,136.875 757.084,135.386 756.882,135.157C756.457,134.676 753.366,131.18 752.274,128.604C750.641,124.754 754.288,123.521 756.294,125.702C756.595,126.029 756.815,126.425 757.116,126.752Z" style="fill:rgb(16,16,14);"/>
            </g>
            <g transform="matrix(1.558594,0,0,1.558594,162,18)">
                <path d="M746.598,173.229C743.945,172.046 743.967,172.065 741.35,170.843C736.104,168.394 739.713,165.703 740.517,165.631C741.931,165.504 754.928,169.858 751.295,173.293C749.971,174.545 746.698,173.257 746.598,173.229Z" style="fill:rgb(19,19,16);"/>
            </g>
            <g transform="matrix(1.558594,0,0,1.558594,162,18)">
                <path d="M763.475,110.506C763.393,109.846 763.233,109.198 763.151,108.538C762.669,104.671 766.201,104.154 767.522,107.491C770.324,114.569 771.409,117.886 768.45,118.233C767.169,118.383 765.407,117.847 763.475,110.506Z" style="fill:rgb(22,22,19);"/>
            </g>
            <g transform="matrix(1.558594,0,0,1.558594,162,18)">
                <path d="M794.667,114.582C797.282,109.893 797.213,109.864 797.457,109.467C798.632,107.564 800.678,108.341 801.235,108.81C801.898,109.369 803.397,110.63 798.054,119.167C797.05,120.771 794.951,120.763 794.355,119.614C793.3,117.582 794.427,115.361 794.667,114.582Z" style="fill:rgb(17,18,15);"/>
            </g>
        </g>
    </g>
</svg>
