<?xml version="1.0" encoding="UTF-8" standalone="no"?>
<!DOCTYPE svg PUBLIC "-//W3C//DTD SVG 1.1//EN" "http://www.w3.org/Graphics/SVG/1.1/DTD/svg11.dtd">
<svg width="100%" height="100%" viewBox="0 0 376 291" version="1.1" xmlns="http://www.w3.org/2000/svg" xmlns:xlink="http://www.w3.org/1999/xlink" xml:space="preserve" xmlns:serif="http://www.serif.com/" style="fill-rule:evenodd;clip-rule:evenodd;stroke-linejoin:round;stroke-miterlimit:2;">
    <g transform="matrix(1,0,0,1,-354.273469,-135.346575)">
        <g>
            <g transform="matrix(1.595703,0,0,1.595703,143,79)">
                <path d="M239.919,200.339C242.51,204.253 242.561,205.248 243.314,204.313C243.705,203.827 245.082,197.28 245.872,195.861C249.178,189.931 247.015,197.717 247.721,204.455C248.086,207.937 251.528,208.7 246.184,215.224C240.841,221.747 238.584,216.081 198.12,166.792C180.076,144.813 134.404,90.511 132.469,86.512C130.538,82.522 170.91,36.209 171.693,35.927C171.76,35.902 310.332,34.036 314.102,36.926C314.729,37.406 349.681,80.863 351.017,82.835C354.254,87.615 343.684,100.31 338.518,99.404C330.83,98.055 342.468,90.107 340.521,88.476C339.919,87.971 294.64,88.325 293.486,88.414C291.376,88.576 290.717,88.894 282.588,112.528C279.797,120.645 279.285,120.264 273.686,126.905C265.82,136.236 285.631,91.423 285.437,89.509C285.201,87.19 199.787,87.769 199.179,89.352C198.375,91.446 236.547,191.502 239.919,200.339ZM217.659,156.442C212.041,141.384 212.33,141.45 206.755,126.406C193.005,89.307 192.855,88.273 189.504,88.238C145.345,87.776 141.501,87.482 143.823,90.308C146.522,93.591 146.699,93.261 149.44,96.548C155.962,104.367 220.675,181.95 230.163,194.957C236.043,203.017 229.24,186.216 217.659,156.442ZM276.741,76.252C247.407,48.602 244.206,44.349 242.444,43.951C240.865,43.594 201.751,81.038 202.687,82.349C204.212,84.484 274.399,83.029 280.633,82.899C283.764,82.834 277.191,76.673 276.741,76.252ZM226.457,50.457C233.126,44.054 233.504,44.298 233.539,43.505C233.632,41.394 179.153,42.57 178.832,42.883C177.935,43.757 193.829,80.916 196.465,79.417C198.01,78.538 224.083,52.8 226.457,50.457ZM306.367,56.445C305.808,57.515 294.896,81.301 294.928,81.489C295.203,83.118 296.159,82.351 339.582,82.881C343.212,82.925 340.248,80.565 325.574,62.441C314.921,49.283 311.848,44.481 310.669,46.657C310.261,47.409 310.454,47.482 306.367,56.445ZM262.774,55.212C287.045,78.926 288.82,81.415 290.26,78.381C306.168,44.852 307.595,42.546 304.506,42.474C253.074,41.271 248.449,41.534 251.462,44.526C252.345,45.404 252.476,45.107 262.774,55.212ZM147.498,82.693C187.564,82.846 190.593,83.631 189.224,80.582C174.083,46.846 172.805,44.449 170.925,46.874C144.779,80.585 140.514,82.58 144.393,82.824C145.427,82.89 146.464,82.628 147.498,82.693Z" style="fill:rgb(16,16,15);"/>
            </g>
            <g transform="matrix(1.595703,0,0,1.595703,143,79)">
                <path d="M340.65,109.263C345.942,111.254 354.312,98.908 364.549,101.291C368.71,102.26 368.458,107.031 364.503,107.519C361.351,107.909 344.702,108.49 350.275,118.622C356.313,129.6 343.191,173.148 321.212,188.111C317.307,190.769 301.269,201.687 265.569,207.902C248.748,210.83 256.927,187.691 259.706,172.536C260.63,167.495 264.603,124.046 326.574,107.756C336.362,105.183 339.951,108.911 340.65,109.263ZM343.389,138.48C347.025,125.675 346.94,125.571 346.23,124.699C341.265,118.603 340.966,164.042 276.8,196.971C274.769,198.013 275.836,200.073 277.506,199.58C308.132,190.535 333.384,183.631 343.389,138.48ZM332.009,114.294C330.031,112.667 329.873,112.632 327.513,113.553C280.307,131.967 275.542,135.22 263.504,182.501C258.498,202.163 269.185,177.085 269.937,175.764C296.341,129.372 330.398,115.948 332.009,114.294ZM341.145,118.544C339.795,116.21 337.096,113.613 311.356,134.318C284.659,155.793 276.825,174.779 265.165,196.449C265.628,198.845 266.564,197.968 268.608,196.727C281.832,188.697 320.066,170.499 340.583,121.533C341.08,120.346 340.91,120.405 341.145,118.544Z" style="fill:rgb(14,14,14);"/>
            </g>
            <g transform="matrix(1.595703,0,0,1.595703,143,79)">
                <path d="M262.5,199.119C262.728,199.286 264.73,200.749 265.113,201.5C266.441,204.109 259.744,202.74 262.5,199.119Z" style="fill:rgb(13,13,13);"/>
            </g>
            <g transform="matrix(1.595703,0,0,1.595703,143,79)">
                <path d="M232.7,201.5C233.066,202.692 234.395,202.848 233.222,203.199C232.084,203.539 233.065,202.688 232.7,201.5Z" style="fill:rgb(9,9,9);"/>
            </g>
        </g>
    </g>
</svg>
