<?xml version="1.0" encoding="UTF-8" standalone="no"?>
<!DOCTYPE svg PUBLIC "-//W3C//DTD SVG 1.1//EN" "http://www.w3.org/Graphics/SVG/1.1/DTD/svg11.dtd">
<svg width="100%" height="100%" viewBox="0 0 302 270" version="1.1" xmlns="http://www.w3.org/2000/svg" xmlns:xlink="http://www.w3.org/1999/xlink" xml:space="preserve" xmlns:serif="http://www.serif.com/" style="fill-rule:evenodd;clip-rule:evenodd;stroke-linejoin:round;stroke-miterlimit:2;">
    <g transform="matrix(1,0,0,1,-383.224583,-594.091279)">
        <g>
            <g transform="matrix(1.595703,0,0,1.595703,143,79)">
                <path d="M293.49,369.696C363.336,383.285 348.819,476.2 283.497,473.608C269.429,473.05 258.645,462.625 255.591,466.573C208.931,526.892 124.835,466.609 158.156,405.319C167.532,388.073 183.676,382.756 183.611,380.516C183.418,373.851 180.498,365.129 189.717,347.613C207.224,314.353 266.075,311.89 281.669,356.442C282.084,357.628 284.307,367.666 284.656,368.419C285.462,370.157 285.959,369.302 293.49,369.696ZM214.495,376.592C233.527,380.184 233.011,381.73 244.412,388.679C249.172,391.58 246.325,380.087 273.479,371.43C276.292,370.534 279.271,369.964 274.795,356.405C263.139,321.099 201.098,317.278 190.447,363.487C186.795,379.33 191.315,378.861 192.513,378.62C203.453,376.42 203.401,376.634 214.495,376.592ZM266.03,430.503C265.797,441.526 266.457,441.743 261.205,456.408C257.858,465.753 320.499,484.628 332.494,428.499C339.625,395.128 294.162,351.498 252.648,391.66C249.424,394.778 252.251,395.203 257.056,402.773C263.368,412.715 265.685,428.197 266.03,430.503ZM158.614,421.52C146.826,491.988 240.917,509.787 258.749,443.56C270.081,401.474 210.937,359.227 171.75,397.759C162.11,407.237 159.13,419.41 158.614,421.52Z" style="fill:rgb(15,15,14);"/>
            </g>
            <g transform="matrix(1.595703,0,0,1.595703,143,79)">
                <path d="M181.51,428.55C163.537,429.597 176.963,416.594 175.276,412.592C168.804,397.239 184.34,402.021 188.313,398.296C189.207,397.457 198.006,389.206 202.251,391.919C207.293,395.141 203.867,398.537 209.416,400.765C220.693,405.292 216.307,410.329 206.434,417.426C203.678,419.407 204.902,435.806 189.591,428.327C186.851,426.988 186.794,426.803 181.51,428.55ZM204.511,405.442C199.774,403.681 201.769,402.104 200.509,398.496C199.842,396.586 197.296,397.022 195.671,398.689C190.317,404.181 190.118,404.085 182.506,405.527C177.959,406.388 179.667,408.221 181.384,412.544C182.861,416.263 178.42,420.173 178.31,421.489C177.992,425.291 180.169,422.756 185.505,421.522C191.439,420.149 196.058,429.088 198.648,421.558C200.846,415.167 200.46,414.68 206.218,411.085C213.621,406.464 205.93,405.901 204.511,405.442Z" style="fill:rgb(16,16,15);"/>
            </g>
            <g transform="matrix(1.595703,0,0,1.595703,143,79)">
                <path d="M300.473,419.247C289.88,419.102 288.694,416.959 289.202,406.485C289.454,401.277 274.536,391.553 294.484,390.364C295.082,390.328 302.802,379.006 309.063,388.801C311.665,392.871 310.582,393.923 317.354,397.753C329.226,404.468 317.582,410.945 317.797,413.46C319.411,432.324 308.573,419.932 300.473,419.247ZM306.621,396.448C303.29,388.703 301.082,392.179 300.802,392.659C298.28,396.987 297.51,396.477 292.498,395.523C287.095,394.495 293.091,401.208 293.417,401.573C297.411,406.045 290.558,413.577 298.533,414.165C303.025,414.496 303.513,412.72 309.257,416.867C316.193,421.874 309.214,411.301 313.777,407.853C320.672,402.643 312.17,403.07 306.621,396.448Z" style="fill:rgb(17,17,16);"/>
            </g>
            <g transform="matrix(1.595703,0,0,1.595703,143,79)">
                <path d="M221.511,339.635C229.377,338.122 230.714,327.473 240.382,336.613C246.303,342.21 261.71,340.659 251.47,350.466C248.223,353.576 249.598,354.192 248.845,358.586C247.787,364.764 236.412,361.315 235.363,360.998C230.964,359.664 218.875,369.742 218.379,354.506C218.254,350.697 202.901,343.257 221.511,339.635ZM244.761,348.818C247.806,346.701 248.624,346.869 248.058,345.686C247.784,345.113 247.637,345.335 242.465,344.778C238.497,344.35 234.495,336.683 231.581,339.601C226.953,344.237 226.799,344.042 220.3,345.172C216.454,345.84 220.775,346.757 223.072,349.804C225.333,352.803 221.445,358.252 228.508,356.531C234.932,354.965 234.871,356.376 241.533,357.091C246.377,357.612 241.256,353.111 244.761,348.818Z" style="fill:rgb(16,16,15);"/>
            </g>
            <g transform="matrix(1.595703,0,0,1.595703,143,79)">
                <path d="M204.519,477.07C201.111,476.405 178.439,471.979 168.851,452.333C166.574,447.668 171.228,446.42 173.216,449.674C191.794,480.089 208.396,468.764 213.36,472.705C218.887,477.092 205.308,477.071 204.519,477.07Z" style="fill:rgb(17,17,16);"/>
            </g>
            <g transform="matrix(1.595703,0,0,1.595703,143,79)">
                <path d="M305.381,456.222C291.676,461.218 291.136,458.649 291.131,457.504C291.101,450.552 305.559,460.852 318.995,433.746C321.178,429.343 324.964,431.709 323.243,436.4C318.46,449.438 316.699,448.368 305.381,456.222Z" style="fill:rgb(16,16,16);"/>
            </g>
            <g transform="matrix(1.595703,0,0,1.595703,143,79)">
                <path d="M201.339,366.466C201.212,366.872 199.588,372.091 196.789,369.222C192.914,365.251 206.883,342.426 206.07,354.466C206,355.496 204.702,354.96 201.339,366.466Z" style="fill:rgb(19,19,19);"/>
            </g>
            <g transform="matrix(1.595703,0,0,1.595703,143,79)">
                <path d="M186.481,413.499C190.106,404.699 196.281,406.293 197.046,407.71C197.753,409.02 188.294,421.519 186.481,413.499Z" style="fill:rgb(15,15,15);"/>
            </g>
            <g transform="matrix(1.595703,0,0,1.595703,143,79)">
                <path d="M304.043,407.693C303.673,407.193 294.9,395.349 304.272,399.924C311.496,403.449 307.903,414.854 304.043,407.693Z" style="fill:rgb(17,17,14);"/>
            </g>
            <g transform="matrix(1.595703,0,0,1.595703,143,79)">
                <path d="M231.484,351.079C219.968,348.751 238.904,341.885 238.83,348.515C238.804,350.78 236.89,351.053 231.484,351.079Z" style="fill:rgb(16,16,14);"/>
            </g>
            <g transform="matrix(1.595703,0,0,1.595703,143,79)">
                <path d="M170.204,440.503C167.363,447.603 163.313,438.7 166.545,437.598C168.94,436.781 170.084,440.149 170.204,440.503Z" style="fill:rgb(18,18,15);"/>
            </g>
        </g>
    </g>
</svg>
