<?xml version="1.0" encoding="UTF-8" standalone="no"?>
<!DOCTYPE svg PUBLIC "-//W3C//DTD SVG 1.1//EN" "http://www.w3.org/Graphics/SVG/1.1/DTD/svg11.dtd">
<svg width="100%" height="100%" viewBox="0 0 283 287" version="1.1" xmlns="http://www.w3.org/2000/svg" xmlns:xlink="http://www.w3.org/1999/xlink" xml:space="preserve" xmlns:serif="http://www.serif.com/" style="fill-rule:evenodd;clip-rule:evenodd;stroke-linejoin:round;stroke-miterlimit:2;">
    <g transform="matrix(1,0,0,1,-1213.973763,-135.183868)">
        <g>
            <g transform="matrix(1.595703,0,0,1.595703,143,79)">
                <path d="M755.495,214.862C754.495,214.728 753.474,214.795 752.474,214.661C662.619,202.635 648.498,98.536 703.856,54.927C774.985,-1.106 870.351,72.119 843.742,151.583C821.375,218.381 757.192,214.821 755.495,214.862ZM709.936,188.646C713.284,200.457 772.922,224.274 813.119,187.03C866.004,138.031 827.469,70.387 820.428,72.3C819.483,72.557 733.899,162.86 709.936,188.646ZM678.284,117.493C677.925,123.06 675.699,157.605 701.835,183.125C704.121,185.358 704.592,182.733 760.615,124.614C765.01,120.055 812.135,71.167 815.125,67.222C818.943,62.185 761.944,18.299 707.789,60.885C683.503,79.983 678.988,112.435 678.284,117.493Z" style="fill:rgb(13,13,13);"/>
            </g>
            <g transform="matrix(1.595703,0,0,1.595703,143,79)">
                <path d="M770.521,190.606C762.214,191.979 744.677,195.205 727.93,180.1C727.505,179.717 725.719,170.805 734.797,178.12C757.489,196.407 789.278,177.572 782.553,176.419C775.395,175.191 770.907,176.741 771.056,162.486C771.364,133.048 796.343,134.389 794.622,128.463C793.053,123.062 785.045,113.383 790.718,109.87C794.379,107.603 799.568,129.115 802.525,129.102C805.066,129.09 822.785,124.497 822.25,132.485C819.451,174.273 796.169,173.608 790.859,178.863C781.712,187.914 773.797,189.445 770.521,190.606ZM776.476,161.5C776.367,170.339 780.235,160.543 798.821,145.89C803.512,142.191 805.843,147.074 802.232,150.205C792.245,158.866 777.071,170.727 783.431,170.862C786.837,170.934 811.067,175.48 816.523,135.499C817.125,131.088 782.207,134.669 777.868,153.581C777.724,154.208 777.825,154.107 776.476,161.5Z" style="fill:rgb(15,16,14);"/>
            </g>
            <g transform="matrix(1.595703,0,0,1.595703,143,79)">
                <path d="M712.918,150.483C712.939,136.143 713.335,126.375 736.079,91.213C755.704,60.871 757.501,52.613 762.223,60.668C779.767,90.599 780.924,89.873 782.062,92.662C782.281,93.198 781.24,101.92 774.835,92.28C760.24,70.314 759.563,64.606 756.696,69.626C745.895,88.54 729.749,109.701 722.881,127.656C713.606,151.906 724.33,156.131 718.204,162.167C715.189,165.137 713.075,151.496 712.918,150.483Z" style="fill:rgb(15,15,14);"/>
            </g>
            <g transform="matrix(1.595703,0,0,1.595703,143,79)">
                <path d="M752.561,172.263C753.147,172.423 764.333,175.48 757.345,178.16C749.084,181.329 728.019,165.216 739.498,165.196C744.123,165.188 742.472,168.997 752.561,172.263Z" style="fill:rgb(17,17,15);"/>
            </g>
            <g transform="matrix(1.595703,0,0,1.595703,143,79)">
                <path d="M725.723,144.503C726.073,142.329 726.016,142.496 726.073,142.329C729.219,133.155 734.505,148.434 728.462,151.443C725.939,152.699 725.879,145.561 725.723,144.503Z" style="fill:rgb(15,15,12);"/>
            </g>
            <g transform="matrix(1.595703,0,0,1.595703,143,79)">
                <path d="M705.342,188.436C706.184,189.721 707.218,190.757 705.703,190.264C704.488,189.868 704.653,189.571 705.342,188.436Z" style="fill:rgb(6,6,6);"/>
            </g>
        </g>
    </g>
</svg>
