<?xml version="1.0" encoding="UTF-8" standalone="no"?>
<!DOCTYPE svg PUBLIC "-//W3C//DTD SVG 1.1//EN" "http://www.w3.org/Graphics/SVG/1.1/DTD/svg11.dtd">
<svg width="100%" height="100%" viewBox="0 0 312 291" version="1.1" xmlns="http://www.w3.org/2000/svg" xmlns:xlink="http://www.w3.org/1999/xlink" xml:space="preserve" xmlns:serif="http://www.serif.com/" style="fill-rule:evenodd;clip-rule:evenodd;stroke-linejoin:round;stroke-miterlimit:2;">
    <g transform="matrix(1,0,0,1,-1196.911022,-588.894666)">
        <g>
            <g transform="matrix(1.595703,0,0,1.595703,143,79)">
                <path d="M820.282,422.499C818.62,437.074 815.865,436.862 817.628,451.491C819.335,465.657 803.669,463.55 795.227,469.047C749.349,498.919 667.766,469.377 690.32,403.44C707.408,353.481 774.437,324.712 810.084,382.762C819.884,398.721 820.227,419.217 820.282,422.499ZM763.516,474.735C767.184,474.185 775.209,474.621 792.297,464.179C804.516,456.713 812.641,461.655 812.037,452.495C810.677,431.854 816.535,431.997 814.12,411.531C812.326,396.321 800.438,372.923 803.023,387.509C807.679,413.791 786.256,465.653 733.476,470.444C731.058,470.664 733.042,476.816 763.516,474.735ZM730.5,465.433C732.795,465.309 747.056,464.537 758.274,458.064C813.407,426.254 807.609,356.915 762.496,355.883C693.859,354.313 660.97,461.839 730.5,465.433Z" style="fill:rgb(15,15,15);"/>
            </g>
            <g transform="matrix(1.595703,0,0,1.595703,143,79)">
                <path d="M697.926,424.499C698.003,423.601 698.563,417.052 700.556,413.536C701.033,412.695 703.065,411.072 702.947,409.475C701.418,388.819 721.16,381.319 722.216,379.359C729.252,366.309 747.221,363.544 749.598,364.223C756.063,366.071 755.879,362.435 762.484,362.824C779.51,363.829 782.589,376.307 783.782,377.067C795.095,384.275 792.459,402.4 789.029,407.118C785.099,412.525 789.256,414.448 786.518,420.507C777.307,440.886 768.641,439.264 767.434,441.456C758.68,457.354 740.098,457.406 739.576,457.245C732.554,455.076 732.61,459.81 725.523,458.377C707.1,454.653 707.794,443.991 706.276,442.829C697.86,436.387 699.538,435.058 697.926,424.499ZM728.511,453.917C734.19,452.782 733.983,451.556 736.709,438.535C737.028,437.012 740.358,421.103 740.653,419.486C741.66,413.972 732.844,423.939 715.381,439.362C706.993,446.77 716.413,452.875 728.511,453.917ZM742.52,452.761C744.434,452.391 764.257,448.551 762.912,439.424C762.583,437.187 747.251,417.917 747.229,417.902C745.817,416.93 744.701,417.946 741.166,438.441C739.202,449.827 737.538,452.052 742.52,452.761ZM743.552,406.603C735.797,411.547 741.959,416.804 746.332,413.305C751.237,409.382 749.737,405.448 743.552,406.603ZM725.533,389.478C723.921,387.447 721.689,380.932 713.757,391.701C705.07,403.494 706.65,406.432 707.302,407.644C708.49,409.855 736.184,408.137 736.35,408.106C738.269,407.746 738.455,406.009 725.533,389.478ZM746.507,368.58C744.618,369.124 721.865,375.676 726.839,383.303C740.182,403.763 742.761,403.332 743.511,401.506C744.677,398.665 748.813,376.615 749.221,374.44C749.999,370.297 750.642,368.772 746.507,368.58ZM764.499,412.308C752.932,412.448 752.125,411.299 751.243,413.341C750.282,415.568 766.209,436.488 768.429,436.027C774.179,434.833 792.942,410.562 777.501,411.508L764.499,412.308ZM749.84,394.546C749.698,395.131 747.526,404.099 750.274,402.065C750.95,401.565 750.776,401.531 758.085,395.041C772.973,381.818 786.994,376.051 768.561,368.345C752.968,361.827 753.116,376.128 749.84,394.546ZM756.499,407.743C776.06,407.295 786.345,409.962 787.609,398.514C788.426,391.121 785.179,377.008 778.581,382.603C752.44,404.769 750.759,406.673 753.427,407.645C753.658,407.729 753.655,407.652 756.499,407.743ZM702.553,425.5C703.578,437.186 706.258,441.448 712.246,436.215C717.578,431.556 736.192,414.469 736.23,414.386C737.775,411.056 706.659,412.988 705.286,414.265C703.028,416.366 702.601,424.576 702.553,425.5Z" style="fill:rgb(19,19,18);"/>
            </g>
            <g transform="matrix(1.595703,0,0,1.595703,143,79)">
                <path d="M775.509,338.418C766.086,336.734 760.511,337.819 759.397,335.562C753.743,324.103 833.516,332.566 845.151,401.695C846.159,407.681 849.711,392.256 854.581,393.185C859.838,394.187 847.16,419.476 841.759,415.149C826.033,402.554 826.001,402.03 826.169,400.453C827.087,391.82 840.8,409.539 839.836,403.55C831.234,350.099 782.677,339.92 775.509,338.418Z" style="fill:rgb(15,15,14);"/>
            </g>
            <g transform="matrix(1.595703,0,0,1.595703,143,79)">
                <path d="M760.502,501.307C758.235,501.068 736.075,498.736 732.641,495.357C725.098,487.938 745.226,493.21 745.544,493.254C765.823,496.097 766.209,498.253 785.538,491.623C828.315,476.951 837.149,438.366 838.883,436.946C848.793,428.83 840.189,465.367 809.423,486.387C785.575,502.681 762.27,501.185 760.502,501.307Z" style="fill:rgb(14,14,14);"/>
            </g>
            <g transform="matrix(1.595703,0,0,1.595703,143,79)">
                <path d="M688.623,335.524C689.755,330.132 690.871,330.631 691.227,330.867C692.184,331.502 691.509,334.448 694.95,342.299C698.55,350.512 717.748,351.383 710.452,353.415C696.809,357.216 695.426,357.623 692.07,371.352C690.805,376.526 688.534,367.926 688.426,367.517C683.681,349.547 667.381,356.241 669.988,351.726C672.544,347.3 683.126,355.448 688.623,335.524ZM700.014,351.784C691.195,346.775 693.859,342.807 690.534,342.911C689.645,342.939 691.767,345.14 682.845,350.949C679.67,353.015 686.759,354.314 688.662,358.409C691.113,363.684 692.01,358.91 693.841,356.796C696.952,353.203 698.513,354.951 700.014,351.784Z" style="fill:rgb(24,24,24);"/>
            </g>
            <g transform="matrix(1.595703,0,0,1.595703,143,79)">
                <path d="M679.59,388.226C679.915,388.321 686.844,390.35 682.428,391.361C671.089,393.954 676.323,400.848 672.501,401.503C669.699,401.982 671.448,393.323 664.426,391.744C664.12,391.675 657.881,390.271 661.704,388.91C668.347,386.544 668.714,386.347 670.881,379.651C673.302,372.17 671.801,384.775 679.59,388.226ZM673.856,391.913C678.362,384.633 668.478,387.436 669.269,390.572C670.044,393.64 671.063,393.293 673.856,391.913Z" style="fill:rgb(44,44,44);"/>
            </g>
            <g transform="matrix(1.595703,0,0,1.595703,143,79)">
                <path d="M730.593,331.693C726.942,334.593 727.504,334.977 726.156,339.332C723.635,347.476 725.487,332.202 717.163,330.933C709.767,329.805 721.977,329.481 723.337,323.436C723.395,323.179 725.133,315.452 726.498,322.501C727.913,329.808 740.657,329.394 733.349,331.104C733.187,331.141 733.031,330.962 732.867,330.983C732.678,331.007 732.698,331.035 730.593,331.693ZM726.106,328.861C724.318,328.199 723.57,327.473 723.302,329.455C723.056,331.266 727.457,333.689 726.106,328.861Z" style="fill:rgb(38,38,38);"/>
            </g>
        </g>
    </g>
</svg>
