<?xml version="1.0" encoding="UTF-8" standalone="no"?>
<!DOCTYPE svg PUBLIC "-//W3C//DTD SVG 1.1//EN" "http://www.w3.org/Graphics/SVG/1.1/DTD/svg11.dtd">
<svg width="100%" height="100%" viewBox="0 0 250 270" version="1.1" xmlns="http://www.w3.org/2000/svg" xmlns:xlink="http://www.w3.org/1999/xlink" xml:space="preserve" xmlns:serif="http://www.serif.com/" style="fill-rule:evenodd;clip-rule:evenodd;stroke-linejoin:round;stroke-miterlimit:2;">
    <g transform="matrix(1,0,0,1,-251.892674,-1739.385542)">
        <g transform="matrix(0.487126,0,0,0.487126,197.033897,1558.961022)">
            <g transform="matrix(2.75,0,0,2.75,0,0)">
                <path d="M160.506,151.95C161.257,152.008 166.788,152.439 169.639,154.26C172.709,156.221 173.961,154.057 175.863,150.695C179.383,144.472 179.777,130.09 191.67,136.141C207.231,144.06 195.583,152.532 196.247,155.585C196.809,158.166 235.495,166.996 225.437,213.488C224.113,219.606 223.087,224.023 219.489,223.939C215.607,223.847 202.35,213.712 202.341,213.705C195.645,208.29 196.215,206.315 194.331,207.291C193.657,207.641 193.81,215.136 193.102,221.46C192.281,228.802 187.716,223.757 187.247,222.62C186.17,220.007 188.647,201.018 188.81,198.526C189.506,187.926 189.407,187.448 188.523,187.416C187.409,187.375 187.775,187.941 186.578,192.526C183.637,203.791 181.945,213.229 181.047,215.319C179.727,218.392 176.174,217.788 175.221,216.746C172.543,213.821 188.099,172.126 181.429,173.368C180.727,173.499 180.247,177.402 179.085,180.3C171.535,199.134 154.75,225.632 152.357,229.411C152.014,229.951 149.567,233.815 145.497,233.532C140.537,233.188 145.984,226.766 148.349,223.398C155.79,212.798 167.538,190.504 169.224,186.386C173.512,175.909 178.488,168.249 173.43,165.656C170.332,164.068 159.685,169.459 154.265,173.163C134.664,186.558 103.746,204.211 77.864,251.696C66.607,272.35 62.368,290.134 55.5,308.5C50.896,320.813 50.391,320.981 51.091,321.862C52.069,323.091 52.259,321.899 55.69,318.718C76.323,299.589 89.366,293 115.505,265.505C123.806,256.774 122.714,267.44 121.204,269.256C116.301,275.15 101.975,287.669 100.231,289.193C72.638,313.305 68.61,313.851 68.505,315.5C68.403,317.08 71.217,315.439 71.419,315.322C86.788,306.361 104.481,302.692 120.578,289.595C126.006,285.179 126.724,292.324 126.115,293.262C125.02,294.948 113.318,302.488 109.527,304.546C93.546,313.222 78.629,317.308 77.319,318.413C75.202,320.199 79.31,319.513 79.502,319.481C98.284,316.345 105.322,314.211 107.514,313.547C124.251,308.471 129.008,302.29 131.006,304.972C134.301,309.392 131.221,310.763 125.572,313.644C102.143,325.594 90.509,320.75 61.576,330.717C49.974,334.713 38.376,328.845 41.454,312.492C44.151,298.168 43.392,298.103 43.266,283.501C42.925,243.974 56.978,222.25 71.896,202.816C84.458,186.451 106.38,171.265 124.501,164.502C149.653,155.115 149.092,152.984 160.506,151.95ZM183.777,149.616C181.833,154.165 181.843,154.157 179.079,158.228C178.45,159.154 177.642,159.609 179.901,162.11C181.717,164.121 182.474,162.027 186.106,157.203C193.308,147.636 192.944,146.48 192.621,145.455C192.416,144.805 187.378,137.778 185.434,144.48C184.674,147.101 184.697,147.054 183.777,149.616ZM220.142,209.252C220.452,204.387 224.771,180.392 203.225,166.975C201.711,166.032 201.887,165.844 200.293,164.956C196.04,162.587 200.258,168.311 200.428,168.542C204.096,173.52 213.53,191.178 217.989,207.293C218.017,207.395 218.035,207.366 218.459,208.536C219.241,210.688 219.902,209.25 220.142,209.252ZM195.06,184.569C196.728,196.072 193.866,197.741 202.46,205.543C202.766,205.82 212.312,213.547 212.486,213.584C214.867,214.085 213.173,212.299 209.74,202.412C204.092,186.15 194.873,171.2 193.296,168.642C190.132,163.511 190.104,169.949 191.468,173.512C191.92,174.691 193.379,177.644 195.06,184.569ZM51.05,265.448C49.325,280.413 50.237,280.436 49.879,295.495C49.663,304.601 47.228,306.598 49.498,306.478C50.607,306.42 50.423,305.906 54.212,293.414C60.335,273.226 73,231.99 114.392,194.381C122.97,186.587 155.069,162.883 163.41,161.248C165.472,160.843 166.279,159.707 164.343,158.885C164.128,158.794 158.815,158.265 155.443,159.294C152.969,160.049 153.131,160.403 125.428,171.304C123.332,172.129 114.644,175.548 100.795,184.929C81.755,197.827 54.611,229.631 51.05,265.448Z" style="fill:white;"/>
            </g>
            <g transform="matrix(2.75,0,0,2.75,0,0)">
                <path d="M132.602,242.992C135.605,242.546 135.565,242.485 138.57,241.932C141.115,241.463 156.48,238.632 168.375,229.334C173.839,225.062 174.562,222.901 180.189,226.932C202.259,242.739 207.412,239.667 219.631,243.094C221.9,243.731 222.879,244.454 223.057,254.513C223.445,276.446 220.683,284.292 219.944,287.594C218.991,291.847 213.494,316.397 187.358,331.267C177.116,337.094 175.488,337.154 169.335,333.804C134.475,314.824 128.584,288.752 128.895,256.506C129.01,244.651 129.689,244.209 132.602,242.992ZM135.925,274.448C138.425,292.08 143.256,312.204 172.574,328.361C176.924,330.759 179.17,328.675 186.775,323.935C186.954,323.824 206.507,312.075 212.522,290.507C213.365,287.485 218.523,268.986 216.525,251.497C215.95,246.463 212.675,250.26 198.488,244.529C177.311,235.974 178.784,231.679 175.466,232.37C174.332,232.607 166.496,239.729 154.435,244.324C138.649,250.337 135.288,246.652 135.115,251.466C134.684,263.484 135.718,272.62 135.925,274.448Z" style="fill:white;"/>
            </g>
            <g transform="matrix(2.75,0,0,2.75,0,0)">
                <path d="M210.031,268.458C209.865,270.503 210.319,304.199 180.381,320.283C176.693,322.264 173.982,324.429 160.094,311.924C157.309,309.416 141.098,296.055 141.584,260.502C141.702,251.893 145.26,253.94 153.497,251.49C163.843,248.412 174.279,239.983 176.527,240.353C177.888,240.577 190.162,249.88 203.436,252.766C206.305,253.39 209.308,253.786 209.942,256.384C210.709,259.527 210.067,267.748 210.031,268.458ZM148.946,276.425C151.52,287.957 152.909,298.918 170.252,311.989C170.41,312.108 172.56,313.729 172.674,311.542C172.915,306.905 172.056,306.909 172.61,253.497C172.636,251.043 172.76,249.501 170.585,250.679C160.501,256.14 160.342,255.739 149.472,259.428C147.249,260.183 147.961,264.876 147.972,265.494C148.049,269.934 148.536,273.456 148.946,276.425ZM179.147,300.505C179.172,310.762 178.495,314.301 181.721,311.91C189.711,305.988 195.487,300.465 200.256,287.413C202.496,281.283 205.418,261.564 203.279,259.784C202.434,259.082 192.188,257.086 181.398,250.699C179.967,249.852 179.247,249.722 179.135,251.397C178.874,255.317 179.157,255.298 179.147,300.505Z" style="fill:white;"/>
            </g>
            <g transform="matrix(2.75,0,0,2.75,0,0)">
                <path d="M104.374,258.705C103.49,258.069 97.815,253.989 93.673,250.301C89.121,246.246 93.928,242.484 97.247,244.878C98.25,245.602 108.06,252.995 108.064,252.998C111.867,256.49 110.183,261.791 104.374,258.705Z" style="fill:white;"/>
            </g>
            <g transform="matrix(2.75,0,0,2.75,0,0)">
                <path d="M112.632,229.335C122.147,236.761 124.612,238.66 122.433,241.45C120.2,244.31 119.193,242.784 107.839,234.087C102.081,229.676 105.905,224.613 110.826,228.026C111.75,228.667 111.693,228.655 112.632,229.335Z" style="fill:white;"/>
            </g>
            <g transform="matrix(2.75,0,0,2.75,0,0)">
                <path d="M133.658,218.295C135.13,219.502 136.608,220.355 136.94,222.439C137.048,223.115 137.086,229.493 128.39,222.646C119.617,215.738 119.542,215.538 119.199,214.625C118.54,212.869 119.992,207.741 125.323,211.748C130.645,215.748 130.44,215.967 133.658,218.295Z" style="fill:white;"/>
            </g>
            <g transform="matrix(2.75,0,0,2.75,0,0)">
                <path d="M148.885,206.528C146.908,212.514 144.417,208.779 137.838,204.051C129.012,197.706 135.517,195.462 137.401,195.938C137.994,196.088 139.045,196.354 143.8,200.119C148.271,203.658 148.312,203.773 148.885,206.528Z" style="fill:white;"/>
            </g>
            <g transform="matrix(2.75,0,0,2.75,0,0)">
                <path d="M85.328,269.726C84.443,269.008 84.459,269.069 83.599,268.374C77.68,263.597 82.771,259.657 87.257,262.851C97.098,269.86 96.789,271.463 96.585,272.518C95.444,278.426 86.431,270.475 85.328,269.726Z" style="fill:white;"/>
            </g>
            <g transform="matrix(2.75,0,0,2.75,0,0)">
                <path d="M154.669,184.273C155.82,185.182 162.837,189.346 158.735,192.804C155.737,195.331 148.236,188.387 148.503,185.5C148.586,184.61 149.352,183.43 150.325,183.088C152.559,182.304 154.145,183.903 154.669,184.273Z" style="fill:white;"/>
            </g>
            <g transform="matrix(2.75,0,0,2.75,0,0)">
                <path d="M80.613,282.366C86.019,287.839 80.27,290.052 77.191,287.987C66.444,280.781 73.712,278.499 74.5,278.512C76.217,278.541 76.053,279.036 80.613,282.366Z" style="fill:white;"/>
            </g>
        </g>
    </g>
</svg>
