<?xml version="1.0" encoding="UTF-8" standalone="no"?>
<!DOCTYPE svg PUBLIC "-//W3C//DTD SVG 1.1//EN" "http://www.w3.org/Graphics/SVG/1.1/DTD/svg11.dtd">
<svg width="100%" height="100%" viewBox="0 0 268 280" version="1.1" xmlns="http://www.w3.org/2000/svg" xmlns:xlink="http://www.w3.org/1999/xlink" xml:space="preserve" xmlns:serif="http://www.serif.com/" style="fill-rule:evenodd;clip-rule:evenodd;stroke-linejoin:round;stroke-miterlimit:2;">
    <g transform="matrix(1,0,0,1,-1018.30352,-1732.619747)">
        <g transform="matrix(0.514832,0,0,0.514832,248.933631,1537.643305)">
            <g transform="matrix(2.75,0,0,2.75,0,0)">
                <path d="M623.926,145.47C623.921,145.043 623.615,141.039 624.371,139.426C624.881,138.337 626.563,137.636 627.458,137.817C633.787,139.094 626.718,147.843 635.795,167.364C640.341,177.141 646.183,171.038 648.388,169.349C651.167,167.22 668.459,153.976 691.453,161.65C731.066,174.87 738.34,225.267 727.755,260.579C718.18,292.519 698.467,307.69 696.47,309.466C671.216,331.912 619.081,344.018 587.919,304.176C581.239,295.634 576.099,297.776 574.332,308.472C572.527,319.393 573.259,319.431 573.823,330.482C574.159,337.055 567.444,336.416 567.136,331.525C565.984,313.223 568.553,304.656 569.223,302.42C571.109,296.131 578.221,288.361 588.158,294.971C592.763,298.035 605.47,323.084 639.495,323.709C677.001,324.397 699.262,298.099 702.885,293.819C723.475,269.495 726.516,238.887 725.691,225.487C722.458,172.983 688.073,166.509 680.524,166.151C665.496,165.437 658.627,169.534 650.252,176.18C643.193,181.782 635.946,180.033 631.772,173.323C624.861,162.215 624.34,150.087 623.926,145.47Z" style="fill:white;"/>
            </g>
            <g transform="matrix(2.75,0,0,2.75,0,0)">
                <path d="M543.973,307.547C545.398,298.308 545.249,298.293 548.334,289.442C550.766,282.467 557.017,275.496 558.919,273.969C577.892,258.732 589.699,268.788 608.557,265.812C630.495,262.35 638.914,230.503 627.142,208.718C621.846,198.916 601.46,189.386 600.275,142.505C600.123,136.519 606.43,135.735 606.66,142.496C607.547,168.605 613.686,183.759 627.494,198.506C644.257,216.408 641.322,247.508 627.539,262.535C611.992,279.484 589.741,270.635 579.521,271.698C544.713,275.32 550.111,326.667 550.205,330.505C550.369,337.252 545.535,335.095 544.711,334.305C542.433,332.122 543.839,309.684 543.973,307.547Z" style="fill:white;"/>
            </g>
            <g transform="matrix(2.75,0,0,2.75,0,0)">
                <path d="M636.955,287.504C637.167,285.33 638.63,270.33 653.621,265.887C664.485,262.667 666.614,266.965 681.572,260.695C689.899,257.204 685.689,281.012 680.228,289.326C668.088,307.807 655.433,305.915 644.45,301.623C640.285,299.996 639.785,309.211 636.431,310.332C632.577,311.619 630.528,307.446 637.161,298.262C639.427,295.125 637.415,294.764 636.955,287.504ZM672.562,269.946C658.728,271.06 646.223,269.73 643.371,286.491C642.495,291.641 645.957,288.245 646.139,288.066C648.909,285.348 663.351,275.304 666.5,278.5C666.832,278.837 668.853,281.824 664.628,283.774C661.096,285.404 656.406,287.195 648.309,294.334C644.705,297.512 657.202,299.484 663.325,297.039C669.979,294.382 676.818,286.078 678.731,276.55C680.115,269.652 680.105,269.2 679.376,268.686C678.474,268.049 678.05,269.017 672.562,269.946Z" style="fill:white;"/>
            </g>
            <g transform="matrix(2.75,0,0,2.75,0,0)">
                <path d="M686.414,248.099C686.174,248.137 679.623,250.199 670.439,246.663C664.254,244.281 655.404,236.926 660.495,234.491C665.069,232.304 669.941,245.559 686.536,241.655C695.743,239.488 698.308,231.097 701.894,235.176C702.219,235.546 704.156,237.749 700.111,241.068C692.713,247.139 687.587,247.732 686.414,248.099Z" style="fill:white;"/>
            </g>
            <g transform="matrix(2.75,0,0,2.75,0,0)">
                <path d="M697.389,213.264C696.171,214.201 695.743,213.869 694.639,216.556C692.188,222.518 686.396,217.495 689.981,211.804C696.666,201.19 711.728,208.587 710.814,216.537C710.635,218.094 707.665,221.921 704.803,216.358C702.476,211.836 700.466,212.524 697.389,213.264Z" style="fill:white;"/>
            </g>
            <g transform="matrix(2.75,0,0,2.75,0,0)">
                <path d="M663.658,213.045C663.258,212.989 660.024,212.541 658.643,213.691C656.743,215.275 656.571,218.294 654.372,219.048C649.275,220.794 649.815,210.076 657.417,207.276C668.999,203.011 675.955,216.33 671.626,218.677C666.932,221.223 668.776,215.678 663.658,213.045Z" style="fill:white;"/>
            </g>
        </g>
    </g>
</svg>
