<?xml version="1.0" encoding="UTF-8" standalone="no"?>
<!DOCTYPE svg PUBLIC "-//W3C//DTD SVG 1.1//EN" "http://www.w3.org/Graphics/SVG/1.1/DTD/svg11.dtd">
<svg width="100%" height="100%" viewBox="0 0 287 270" version="1.1" xmlns="http://www.w3.org/2000/svg" xmlns:xlink="http://www.w3.org/1999/xlink" xml:space="preserve" xmlns:serif="http://www.serif.com/" style="fill-rule:evenodd;clip-rule:evenodd;stroke-linejoin:round;stroke-miterlimit:2;">
    <g transform="matrix(1,0,0,1,-639.819005,-1739.385542)">
        <g transform="matrix(0.496031,0,0,0.496031,255.802809,1551.470292)">
            <g transform="matrix(2.75,0,0,2.75,0,0)">
                <path d="M408.071,185.473C406.361,204.922 398.747,202.921 399.273,208.524C400.109,217.422 409.741,216.027 421.235,222.921C429.411,227.824 429.464,235.004 434.906,265.432C435.863,270.784 436.492,270.595 443.294,278.673C450.694,287.46 450.826,288.163 453.525,287.63C472.391,283.9 473.152,304.521 460.408,307.131C459.453,307.327 458.48,307.428 457.517,307.585C452.713,308.372 459.789,311.335 457.063,322.378C456.494,324.685 452.882,333.627 440.446,335.094C418.494,337.683 389.219,324.634 385.437,325.11C379.069,325.913 321.99,350.83 315.38,320.524C313.817,313.359 318.555,308.144 315.478,307.592C314.41,307.4 306.502,306.99 304.206,299.6C301.848,292.009 309.335,285.855 317.535,287.257C321.263,287.895 321.633,287.884 323.987,284.874C329.027,278.428 336.632,273.004 337.734,265.54C337.935,264.174 338.085,264.205 340.71,248.54C344.283,227.213 345.171,224.255 364.394,217.191C367.846,215.922 373.56,214.685 373.132,207.519C372.912,203.819 359.287,194.035 366.492,172.497C372.387,154.876 400.941,154.69 406.534,173.49C408.271,179.329 408.082,179.362 408.071,185.473ZM370.931,187.436C371.06,188.06 371.835,197.414 378.819,203.094C389.793,212.02 401.454,199.098 401.879,185.522C402.308,171.817 396.747,166.958 388.53,165.315C387.213,165.051 380.255,164.653 375.521,169.521C369.266,175.954 370.863,186.114 370.931,187.436ZM427.379,293.043C427.545,291.589 427.597,291.592 427.558,291.472C427.537,291.409 427.549,291.437 425.907,290.218C412.024,279.9 414.284,269.324 412.897,266.143C410.873,261.499 409.866,272.867 411.302,279.546C413.356,289.098 416.173,288.692 416.398,288.773C421.945,290.76 421.804,291.027 427.379,293.043ZM397.558,320.579L397.441,321.503C397.621,321.711 396.689,321.892 396.87,322.1C396.918,322.155 411.714,326.446 414.591,327.005C417.798,327.627 452.806,336.861 451.89,316.477C451.245,302.144 422.761,298.317 412.402,293.715C408.644,292.046 407.638,288.038 405.277,279.56C404.593,277.105 403.869,276.736 407.156,256.437C407.706,253.041 409.089,246.326 409.269,245.45C409.799,242.874 413.623,240.052 415.036,247.587C420.459,276.506 421.983,278.222 423.779,280.245C425.961,282.701 443.928,298.435 447.693,300.028C461.175,305.731 467.301,296.019 459.485,293.546C454.844,292.077 451.091,296.837 446.908,292.117C441,285.452 441.194,285.335 435.293,278.683C427.214,269.578 429.964,268.193 426.324,251.544C422.773,235.302 426.708,229.861 407.585,223.255C399.472,220.452 396.612,219.49 394.049,212.67C392.907,209.634 388.753,213.661 382.409,211.849C382.146,211.774 379.397,210.989 378.99,211.785C378.844,212.07 379.09,212.128 377.558,215.53C373.731,224.027 354.955,222.438 350.232,233.382C346.621,241.75 345.094,268.82 340.771,274.688C337.933,278.541 327.614,290.131 326.441,291.449C320.538,298.079 317.875,290.636 311.391,294.341C306.095,297.368 314.575,305.711 326.43,299.362C327.28,298.907 348.326,282.499 350.758,277.635C354.398,270.352 356.883,244.33 359.693,242.814C364.156,240.407 363.769,248.568 365.663,257.463C365.895,258.553 367.981,272.12 368.011,272.535C368.359,277.325 365.909,291.234 360.513,293.527C346.48,299.49 316.713,303.318 321.378,320.529C328.305,346.088 404.864,310.203 416.576,307.715C416.786,307.67 423.756,306.189 417.601,305.241C414.448,304.754 411.448,305.882 404.439,303.688C397.678,301.571 397.07,302.255 392.362,307.37C385.244,315.105 357.087,308.314 346.489,311.461C346.257,311.529 340.388,314.234 339.702,310.451C338.79,305.422 346.838,307.117 355.325,301.237C370.198,290.934 378.671,301.593 380.793,303.087C389.17,308.986 389.469,294.62 401.453,296.783C407.526,297.879 407.316,298.897 413.513,299.152C425.869,299.662 424.703,304.323 428.679,306.141C432.297,307.796 432.613,307.49 433.166,308.675C434.042,310.554 432.625,312.774 430.499,312.513C429.657,312.409 426.314,309.251 406.503,317.507C404.15,318.487 404.167,318.387 397.558,320.579ZM362.064,274.504C361.704,267.893 361.977,264.42 360.49,264.454C359.561,264.475 359.916,264.985 358.652,272.531C356.333,286.381 345.911,289.537 345.387,291.457C344.634,294.21 349.484,291.33 353.593,289.767C357.103,288.431 360.824,288.012 362.064,274.504Z" style="fill:white;"/>
            </g>
            <g transform="matrix(2.75,0,0,2.75,0,0)">
                <path d="M441.963,153.466C442.405,155.389 442.317,159.502 447.402,163.629C456.256,170.814 464.439,162.652 464.818,168.473C465.048,172.01 452.415,189.266 434.262,179.982C414.934,170.098 420.263,142.494 439.422,138.222C449.085,136.067 446.484,142.12 446.302,142.381C442.787,147.424 442.238,147.352 441.963,153.466ZM439.351,175.882C444.114,177.354 445.906,177.461 452.573,174.604C454.441,173.803 454.647,172.579 452.656,172.161C439.334,169.361 433.976,158.035 437.026,147.436C437.524,145.705 435.922,145.672 435.629,145.825C432.324,147.547 423.394,158.032 430.834,169.287C431.999,171.049 433.881,172.644 434.181,172.899C436.477,174.844 436.597,174.626 439.351,175.882Z" style="fill:white;"/>
            </g>
            <g transform="matrix(2.75,0,0,2.75,0,0)">
                <path d="M438.512,216.111C444.078,216.162 451.349,216.739 458.046,206.218C459.696,203.626 465.177,192.874 480.503,193.403C486.894,193.624 485.147,199.318 481.495,199.414C466.463,199.808 468.008,203.986 460.383,213.405C450.939,225.072 430.768,224.388 434.455,217.47C435.12,216.223 438.17,216.123 438.512,216.111Z" style="fill:white;"/>
            </g>
            <g transform="matrix(2.75,0,0,2.75,0,0)">
                <path d="M298.613,200.109C295.067,199.368 295.095,199.433 291.507,199.321C287.108,199.184 286.322,193.601 292.495,193.349C308.817,192.682 314.274,206.179 316.772,209.284C325.188,219.745 336.32,214.005 338.199,217.663C340.912,222.943 330.057,222.997 325.454,221.654C307.303,216.36 312.664,204.906 298.613,200.109Z" style="fill:white;"/>
            </g>
            <g transform="matrix(2.75,0,0,2.75,0,0)">
                <path d="M475.426,235.064C466.482,237.031 464.718,244.203 452.493,243.702C444.529,243.376 438.174,239.091 442.254,236.116C446.592,232.954 450.124,244.072 465.284,233.198C470.063,229.77 476.034,226.279 487.369,230.827C494.272,233.596 490.713,238.845 487.466,237.605C483.483,236.083 482.191,234.348 475.426,235.064Z" style="fill:white;"/>
            </g>
            <g transform="matrix(2.75,0,0,2.75,0,0)">
                <path d="M297.582,235.027C294.512,234.69 292.312,234.343 286.331,237.119C281.914,239.168 278.515,233.71 285.599,230.759C296.53,226.207 303.08,229.923 307.669,233.264C317.785,240.629 321.492,237.691 327.585,235.815C330.26,234.992 331.863,236.922 331.777,238.513C331.609,241.628 324.458,243.151 324.433,243.155C308.295,245.927 307.847,237.442 297.582,235.027Z" style="fill:white;"/>
            </g>
            <g transform="matrix(2.75,0,0,2.75,0,0)">
                <path d="M306.598,267.003C296.192,264.734 293.434,272.496 290.325,274.15C287.727,275.531 282.108,271.371 292.207,264.101C306.144,254.069 311.419,268.669 324.347,257.322C328.425,253.743 332.383,258.292 327.555,262.563C318.465,270.604 307.402,267.151 306.598,267.003Z" style="fill:white;"/>
            </g>
            <g transform="matrix(2.75,0,0,2.75,0,0)">
                <path d="M465.423,267.11C461.554,267.861 454.463,269.632 445.873,263.04C440.448,258.877 443.832,253.707 447.901,257.022C460.105,266.964 462.306,259.19 471.498,260.52C482.901,262.171 490.378,273.406 484.49,274.458C481.906,274.92 480.17,271.447 478.162,269.891C472.108,265.202 467.68,266.729 465.423,267.11Z" style="fill:white;"/>
            </g>
            <g transform="matrix(2.75,0,0,2.75,0,0)">
                <path d="M373.357,306.048C364.751,304.986 361.661,306.249 361.73,304.531C361.794,302.948 367.382,302.3 368.508,302.403C369.869,302.528 371.399,303.195 371.638,303.299C374.015,304.334 373.449,304.979 373.357,306.048Z" style="fill:white;"/>
            </g>
        </g>
    </g>
</svg>
