<?xml version="1.0" encoding="UTF-8" standalone="no"?>
<!DOCTYPE svg PUBLIC "-//W3C//DTD SVG 1.1//EN" "http://www.w3.org/Graphics/SVG/1.1/DTD/svg11.dtd">
<svg width="100%" height="100%" viewBox="0 0 272 257" version="1.1" xmlns="http://www.w3.org/2000/svg" xmlns:xlink="http://www.w3.org/1999/xlink" xml:space="preserve" xmlns:serif="http://www.serif.com/" style="fill-rule:evenodd;clip-rule:evenodd;stroke-linejoin:round;stroke-miterlimit:2;">
    <g transform="matrix(1,0,0,1,-1468.274903,-1756.230159)">
        <g transform="matrix(0.470717,0,0,0.470717,451.531804,1578.190883)">
            <g transform="matrix(2.75,0,0,2.75,0,0)">
                <path d="M952.639,286.723L952.231,287.436C952.237,287.459 951.44,288.142 952.509,288.488C955.922,289.591 956.798,287.79 972.551,294.39C977.083,296.289 984.092,301.595 978.249,308.284C953.34,336.802 904.092,335.88 874.508,335.168C866.145,334.967 822.845,334.562 799.34,310.661C785.906,297 806.972,291.571 827.467,287.342C833.308,286.137 838.008,287.93 835.028,282.774C832.831,278.971 821.536,259.43 821.76,229.502C821.772,227.926 819.403,221.29 841.474,217.354C869.498,212.355 902.944,214.175 913.48,214.794C915.407,214.907 924.385,215.434 937.408,217.938C938.013,218.055 949.261,220.814 952.046,223.926C954.928,227.146 952.17,232.838 955.455,232.248C955.815,232.183 962.859,229.183 972.556,234.409C982.952,240.011 990.444,261.65 968.42,278.398C960.681,284.283 954.005,286.308 952.639,286.723ZM864.534,235.051C887.519,235.989 887.495,236.131 910.478,235.13C914.394,234.96 929.289,233.123 931.531,232.638C942.737,230.211 944.633,229.207 945.672,228.658C951.738,225.447 912.533,217.544 867.485,220.249C850.76,221.254 829.624,225.452 829.305,227.427C829.07,228.882 830.145,229.52 844.47,232.636C849.486,233.727 862.924,234.909 864.534,235.051ZM889.501,316.919C953.612,316.698 972.227,305.67 973.424,304.423C977.495,300.181 956.72,295.11 955.43,294.855C945.096,292.815 942.637,292.493 941.516,292.346C931.639,291.05 925.891,305.103 916.607,308.776C906.984,312.583 870.209,310.988 863.552,310.124C851.721,308.587 843.745,293.584 840.653,292.217C837.093,290.643 800.241,297.822 801.503,303.499C801.829,304.962 818.999,316.793 889.501,316.919ZM965.072,253.497C964.957,252.713 965.185,249.505 961.449,248.884C960.427,248.715 958.005,248.974 956.576,249.667C950.838,252.449 951.48,255.33 948.631,264.539C947.622,267.803 945.263,272.68 949.365,270.202C959.361,264.166 964.224,261.358 965.072,253.497ZM958.329,315.886C956.467,315.905 956.727,317.358 935.463,320.237C925.935,321.527 893.979,323.855 871.502,322.462C871.072,322.435 847,321.843 826.552,318.124C825.551,317.942 814.658,314.823 818.21,317.618C819.798,318.868 841.598,328.024 867.517,329.168C928.329,331.854 940.436,323.655 955.64,318.733C959.519,317.478 958.329,315.956 958.329,315.886ZM920.451,240.05C915.917,240.514 894.796,242.673 863.479,240.832C847.616,239.899 836.782,237.033 834.516,236.434C828.838,234.932 828.716,234.976 828.351,235.32C826.643,236.929 829.5,250.168 829.773,251.433C832.879,265.83 837.259,282.467 857.753,301.222C860.461,303.7 863.578,306.552 903.479,305.083C915.396,304.644 917.3,302.362 925.582,293.578C937.23,281.224 942.091,265.346 942.921,262.632C945.809,253.197 945.88,252.889 947.582,237.506C948.061,233.184 945.637,235.202 943.579,235.766C932.216,238.876 932.167,238.419 920.451,240.05ZM961.476,242.934C962.539,243.093 970.52,244.289 970.951,252.458C971.874,269.959 945.735,276.731 942.785,279.759C942.492,280.059 939.488,284.258 939.567,284.503C940.145,286.297 940.779,285.464 942.575,284.821C948.826,282.583 977.909,273.185 976.778,251.484C976.196,240.315 963.553,234.139 954.524,238.544C952.916,239.329 951.446,245.426 955.343,244C958.664,242.785 958.71,243.095 961.476,242.934Z" style="fill:white;"/>
            </g>
            <g transform="matrix(2.75,0,0,2.75,0,0)">
                <path d="M989.041,194.468C989.474,151.339 948.593,134.095 919.58,148.656C907.881,154.527 903.844,163.838 900.569,163.108C893.633,161.564 904.567,151.692 908.133,149.027C943.363,122.698 991.204,144.031 995.009,188.531C996.769,209.11 981.57,233.393 976.594,229.369C973.015,226.475 978.313,223.007 980.095,220.231C986.643,210.033 988.221,204.132 989.041,194.468Z" style="fill:white;"/>
            </g>
            <g transform="matrix(2.75,0,0,2.75,0,0)">
                <path d="M815.933,196.507C816.708,209.692 819.366,208.954 821.613,214.447C823.165,218.242 818.924,221.008 815.779,216.303C797.936,189.61 822.874,155.438 852.521,163.423C856.875,164.595 857.49,170.021 850.572,169.057C847.656,168.651 836.065,165.793 825.023,176.009C816.216,184.158 816.124,194.479 815.933,196.507Z" style="fill:white;"/>
            </g>
            <g transform="matrix(2.75,0,0,2.75,0,0)">
                <path d="M879.953,172.408C879.43,167.396 879.421,166.626 881.472,161.487C881.972,160.236 884.04,157.232 884.604,156.59C888.285,152.401 892.23,155.587 889.076,160.219C881.839,170.847 887.521,174.634 892.73,183.372C899.728,195.109 889.638,209.971 885.52,206.474C881.602,203.147 890.607,199.084 889.101,190.575C887.848,183.5 883.568,184.822 879.953,172.408Z" style="fill:white;"/>
            </g>
            <g transform="matrix(2.75,0,0,2.75,0,0)">
                <path d="M944.169,186.492C944.282,192.079 946.594,190.829 952.357,194.729C953.703,195.64 962.051,199.221 958.787,202.755C957.697,203.935 956.478,205.256 940.468,194.542C937.641,192.651 938.279,191.925 938.242,173.5C938.242,173.467 937.032,161.776 942.584,164.346C943.995,164.999 944.415,165.389 944.169,186.492Z" style="fill:white;"/>
            </g>
            <g transform="matrix(2.75,0,0,2.75,0,0)">
                <path d="M909.966,195.501C909.162,188.782 905.982,188.979 903.423,182.532C900.808,175.943 904.54,170.149 905.12,169.248C909.078,163.103 913.176,167.092 910.99,170.78C905.883,179.399 909.177,180.013 914.234,188.65C919.417,197.504 911.758,209.411 907.543,206.441C903.953,203.911 909.187,202.666 909.966,195.501Z" style="fill:white;"/>
            </g>
            <g transform="matrix(2.75,0,0,2.75,0,0)">
                <path d="M867.078,196.439C867.177,186.62 853.869,182.6 862.848,168.733C865.88,164.052 870.952,166.507 868.032,171.215C862.657,179.88 867.15,180.277 871.832,189.338C876.19,197.772 868.178,210.725 864.017,205.88C861.727,203.214 865.16,203.281 867.078,196.439Z" style="fill:white;"/>
            </g>
            <g transform="matrix(2.75,0,0,2.75,0,0)">
                <path d="M850.606,282.413C847.242,278.14 836.921,262.009 842.456,260.373C845.72,259.408 846.711,263.948 848.002,266.717C858.055,288.271 865.369,285.432 864.755,290.539C864.227,294.936 858.756,293.053 850.606,282.413Z" style="fill:white;"/>
            </g>
            <g transform="matrix(2.75,0,0,2.75,0,0)">
                <path d="M793.502,199.947C791.229,200.004 784.924,200.774 785.486,196.498C785.829,193.887 787.778,193.774 799.499,193.906C805.078,193.969 805.072,199.864 799.514,199.954C796.479,200.004 796.524,200.02 793.502,199.947Z" style="fill:white;"/>
            </g>
            <g transform="matrix(2.75,0,0,2.75,0,0)">
                <path d="M815.701,153.377C814.971,151.912 812.303,148.283 814.223,146.244C817.974,142.26 821.165,151.401 823.694,155.384C823.945,155.78 826.293,159.477 824.265,161.222C820.95,164.073 818.755,158.533 815.701,153.377Z" style="fill:white;"/>
            </g>
            <g transform="matrix(2.75,0,0,2.75,0,0)">
                <path d="M805.27,170.851C805.402,170.935 811.235,173.747 808.862,176.752C808.32,177.438 806.632,179.575 798.361,173.705C796.091,172.094 791.928,170.87 793.401,167.447C795.005,163.72 801.458,168.575 805.27,170.851Z" style="fill:white;"/>
            </g>
            <g transform="matrix(2.75,0,0,2.75,0,0)">
                <path d="M800.724,218.881C803.586,217.148 806.437,215.268 808.293,216.759C812.749,220.339 802.629,224.643 798.773,226.973C798.431,227.179 795.453,228.978 793.778,227.231C790.725,224.044 797.466,220.707 800.724,218.881Z" style="fill:white;"/>
            </g>
            <g transform="matrix(2.75,0,0,2.75,0,0)">
                <path d="M847.372,143.5C847.357,149.648 848.309,157.342 843.415,155.72C841.029,154.928 841.504,151.413 841.482,142.5C841.465,135.261 847.167,137.018 847.343,141.508C847.369,142.171 847.346,142.836 847.372,143.5Z" style="fill:white;"/>
            </g>
            <g transform="matrix(2.75,0,0,2.75,0,0)">
                <path d="M938.176,152.497C938.198,152.159 938.401,149.079 939.46,148.451C945.221,145.038 945.38,156.214 942.518,157.532C938.501,159.382 938.201,153.029 938.176,152.497Z" style="fill:white;"/>
            </g>
            <g transform="matrix(2.75,0,0,2.75,0,0)">
                <path d="M972.41,213.636C970.696,212.315 970.014,212.66 969.867,210.478C969.85,210.219 969.742,208.625 971.599,207.734C973.467,206.837 981.959,211.443 978.522,214.525C976.824,216.048 972.843,213.873 972.41,213.636Z" style="fill:white;"/>
            </g>
            <g transform="matrix(2.75,0,0,2.75,0,0)">
                <path d="M973.567,175.742C971.071,175.567 970.401,175.93 969.896,173.454C969.307,170.563 977.919,165.288 979.157,170.558C979.817,173.369 973.872,175.608 973.567,175.742Z" style="fill:white;"/>
            </g>
            <g transform="matrix(2.75,0,0,2.75,0,0)">
                <path d="M980.489,188.869C982.722,189.226 983.274,188.587 984.2,190.645C986.928,196.705 971.426,195.466 975.239,190.332C976.641,188.444 979.558,188.918 980.489,188.869Z" style="fill:white;"/>
            </g>
            <g transform="matrix(2.75,0,0,2.75,0,0)">
                <path d="M957.286,158.411C958.638,155.85 958.619,155.861 958.746,155.646C961.344,151.225 965.452,153.379 963.965,157.681C961.998,163.368 956.32,164.815 957.286,158.411Z" style="fill:white;"/>
            </g>
            <g transform="matrix(2.75,0,0,2.75,0,0)">
                <path d="M920.334,160.617C920.172,160.342 917.39,156.746 918.664,154.6C921.461,149.891 928.63,160.236 924.308,162.134C922.079,163.112 922.037,162.327 920.334,160.617Z" style="fill:white;"/>
            </g>
            <g transform="matrix(2.75,0,0,2.75,0,0)">
                <path d="M843.09,251.546C842.718,254.04 843.067,254.877 840.525,254.981C836.518,255.146 835.807,246.729 840.459,247.663C842.073,247.987 842.987,251.185 843.09,251.546Z" style="fill:white;"/>
            </g>
        </g>
    </g>
</svg>
