<?xml version="1.0" encoding="UTF-8" standalone="no"?>
<!DOCTYPE svg PUBLIC "-//W3C//DTD SVG 1.1//EN" "http://www.w3.org/Graphics/SVG/1.1/DTD/svg11.dtd">
<svg width="100%" height="100%" viewBox="0 0 366 566" version="1.1" xmlns="http://www.w3.org/2000/svg" xmlns:xlink="http://www.w3.org/1999/xlink" xml:space="preserve" xmlns:serif="http://www.serif.com/" style="fill-rule:evenodd;clip-rule:evenodd;stroke-linejoin:round;stroke-miterlimit:2;">
    <g transform="matrix(1,0,0,1,-202.356091,-373.399002)">
        <g>
            <g transform="matrix(2.75,0,0,2.75,0,0)">
                <path d="M105.878,251.362C106.205,251.555 106.361,251.969 106.688,252.161C107.606,252.701 115.051,252.067 115.631,255.477C116.752,262.074 103.497,258.997 95.293,253.835C62.353,233.111 76.63,201.106 76.841,200.654C85.3,182.574 98.671,168.327 127.22,152.016C150.539,138.693 174.482,136.169 180.535,135.943C200.487,135.196 202.598,136.98 205.179,142.64C206.828,146.256 205.745,159.399 205.72,159.541C204.63,165.922 201.572,198.071 168.943,232.91C162.46,239.832 159.418,242.656 157.039,239.883C153.489,235.743 159.849,235.518 174.689,215.633C197.602,184.931 199.342,158.064 199.784,153.425C199.894,152.268 199.18,151.141 198.364,152.227C194.679,157.133 192.507,168.088 163.656,197.647C156.63,204.845 155.426,204.403 154.59,204.096C150.356,202.543 156.795,198.094 162.86,191.846C178.054,176.194 185.227,164.912 186.314,163.379C186.492,163.127 197.739,145.863 197.569,144.473C197.182,141.296 167.712,154.694 153.634,163.724C142.132,171.101 141.305,172.823 139.486,172.756C138.763,172.729 134.81,171.281 140.838,166.942C165.286,149.343 178.644,145.942 183.218,144.051C183.366,143.99 187.433,141.38 182.627,142.133C173.842,143.509 155.472,143.957 130.614,157.697C129.001,158.589 117.916,164.716 111.23,170.16C107.091,173.531 107.236,173.639 103.1,177.02C91.298,186.666 78.984,204.54 80.313,219.516C81.115,228.562 81.762,228.683 82.515,228.67C83.788,228.649 83.428,224.406 84.246,221.434C89.619,201.913 110.368,183.043 113.349,180.332C126.005,168.823 127.256,169.713 128.176,170.783C129.371,172.175 129.319,173.33 122.113,179.049C88.366,205.831 82.718,235.257 89.559,238.383C97.6,242.057 113.842,232.947 115.723,231.892C117.583,230.849 127.125,225.497 137.421,216.409C142.95,211.529 142.921,216.134 142.847,216.562C142.27,219.94 116.2,241.263 97.345,243.187C91.574,243.775 97.406,245.297 97.575,245.329C108.619,247.399 110.008,245.412 115.447,244.199C117.97,243.636 118.825,246.024 118.046,247.213C116.543,249.509 108.29,250.202 107.407,250.276C106.091,250.387 105.977,251.292 105.878,251.362Z" style="fill:rgb(101,73,56);"/>
            </g>
            <g transform="matrix(2.75,0,0,2.75,0,0)">
                <path d="M120.045,277.462C120.221,267.869 119.217,251.82 131.341,237.372C141.195,225.628 154.766,217.314 151.627,229.535C147.069,247.281 155.878,257.268 163.676,267.371C169.521,274.943 169.003,276.591 170.659,275.7C172.581,274.664 168.582,267.757 176.833,255.739C178.648,253.095 183.935,248.678 186.485,248.93C193.034,249.576 184.699,256.384 194.152,272.695C198.205,279.687 198.558,279.454 202.147,286.668C209.164,300.774 205.91,313.758 205.654,314.544C201.707,326.658 196.946,331.558 188.402,338.372C180.454,344.711 179.313,337.424 180.793,335.729C180.837,335.679 190.637,329.653 195.053,322.211C211.011,295.318 184.044,277.742 183.131,262.564C182.913,258.951 181.046,260.627 180.633,261.591C176.011,272.384 179.104,279.326 174.07,284.079C167.608,290.182 166.223,284.186 165.555,282.477C162.801,275.437 157.575,271.377 150.018,259.836C138.366,242.04 147.04,230.13 142.363,235.069C140.876,236.639 139.537,238.042 139.291,238.3C124.884,253.401 127.244,268.653 126.604,278.507C124.994,303.321 103.441,296.083 101.986,284.306C101.367,279.288 97.73,286.433 97.181,287.301C95.758,289.553 85.495,305.786 92.851,320.323C99.816,334.086 110.637,333.747 109.681,338.538C108.352,345.202 97.271,337.14 91.592,330.424C75.476,311.363 88.321,287.893 92.32,282.383C98.588,273.744 102.673,268.053 106.327,270.732C109.142,272.795 105.414,287.813 113.501,288.487C119.804,289.013 120.035,277.524 120.045,277.462Z" style="fill:rgb(101,73,56);"/>
            </g>
            <g transform="matrix(2.75,0,0,2.75,0,0)">
                <path d="M139.069,289.553C138.7,286.947 138.467,286.975 138.704,285.54C139.986,277.797 152.996,289.058 155.83,297.383C160.335,310.609 156.57,315.863 160.295,313.213C161.771,312.164 161.129,311.772 161.863,306.556C162.472,302.228 166.554,302.228 170.017,306.887C185.883,328.238 162.282,347.342 159.489,339.504C158.422,336.511 161.897,334.727 162.41,334.365C168.585,330.01 170.045,323.046 168.21,317.607C166.364,312.138 163.792,323.195 156.555,320.374C149.514,317.63 152.569,310.283 150.644,302.463C149.981,299.769 147.139,295.004 147.107,294.98C143.735,292.354 148.359,299.457 138.651,309.641C133.631,314.907 134.408,317.851 131.492,317.788C128.237,317.717 127.113,312.069 125.439,312.243C124.787,312.311 121.811,317.843 121.366,321.484C120.058,332.212 130.862,334.328 130.27,338.478C129.448,344.245 122.688,340.239 118.867,335.223C110.363,324.06 117.819,312.052 118.18,311.339C120.152,307.442 124.587,300.227 127.441,300.861C130.202,301.474 130.47,305.239 130.711,306.409C130.92,307.427 131.919,307.584 132.634,306.705C137.282,300.985 139.517,299.702 139.069,289.553Z" style="fill:rgb(101,73,56);"/>
            </g>
            <g transform="matrix(2.75,0,0,2.75,0,0)">
                <path d="M138.566,186.573C139.369,185.86 145.849,180.104 148.837,177.932C165.355,165.926 165.698,165.706 167.561,166.374C172.467,168.134 162.445,173.131 152.261,181.194C125.388,202.472 119.153,215.295 116.271,218.267C114.172,220.432 112.607,218.458 112.475,217.505C112.285,216.137 114.831,212.587 115.107,212.202C116.727,209.943 125.512,197.69 138.566,186.573Z" style="fill:rgb(101,73,56);"/>
            </g>
            <g transform="matrix(2.75,0,0,2.75,0,0)">
                <path d="M176.222,194.329C179.21,189.447 179.092,189.392 179.768,188.796C180.737,187.943 182.597,187.688 183.162,189.569C183.988,192.322 173.413,206.978 169.623,211.599C160.184,223.105 158.649,222.163 157.977,221.162C155.48,217.446 161.989,216.785 176.222,194.329Z" style="fill:rgb(101,73,56);"/>
            </g>
        </g>
    </g>
</svg>
