<?xml version="1.0" encoding="UTF-8" standalone="no"?>
<!DOCTYPE svg PUBLIC "-//W3C//DTD SVG 1.1//EN" "http://www.w3.org/Graphics/SVG/1.1/DTD/svg11.dtd">
<svg width="100%" height="100%" viewBox="0 0 561 565" version="1.1" xmlns="http://www.w3.org/2000/svg" xmlns:xlink="http://www.w3.org/1999/xlink" xml:space="preserve" xmlns:serif="http://www.serif.com/" style="fill-rule:evenodd;clip-rule:evenodd;stroke-linejoin:round;stroke-miterlimit:2;">
    <g transform="matrix(1,0,0,1,-790.136671,-372.911864)">
        <g>
            <g transform="matrix(2.75,0,0,2.75,0,0)">
                <path d="M491.076,209.463C489.841,220.615 486.943,231.578 484.628,232.712C482.568,233.721 480.782,233.079 468.78,225.087C463.938,221.863 460.963,218.306 460.387,217.616C456.7,213.208 458.615,221.99 455.609,234.528C454.795,237.923 451.231,257.031 432.61,279.59C421.992,292.455 407.907,303.058 405.68,304.751C393.611,313.924 372.576,325.794 352.564,329.799C335.909,333.131 335.889,332.962 334.446,333.274C325.87,335.13 325.82,334.796 317.404,337.169C307.572,339.94 296.743,344.814 289.622,334.42C283.63,325.676 291.118,320.347 292.193,294.481C292.498,287.127 292.146,259.295 311.157,227.297C313.159,223.927 324.134,205.455 342.845,189.918C369.441,167.835 389.064,165.879 405.302,159.021C416.859,154.139 426.711,149.131 438.813,157.021C441.227,158.595 443.136,155.85 445.798,150.637C448.536,145.274 450.623,129.701 464.194,137.985C464.965,138.455 469.851,142.407 470.396,146.514C471.43,154.299 461.628,161.442 463.551,163.45C463.686,163.591 483.468,171.293 489.336,192.542C491.899,201.823 491.097,208.6 491.076,209.463ZM461.957,196.559C461.085,203.386 458.689,204.984 464.821,212.217C469.044,217.198 472.094,219.035 478.636,223.264C482.121,225.517 481.734,221.227 482.215,219.427C491.81,183.592 461.115,168.276 457.471,169.434C454.597,170.347 457.078,173.392 457.291,173.654C463.743,181.574 463.324,186.327 461.957,196.559ZM453.065,152.284C448.515,161.639 445.384,162.081 447.872,164.06C451.217,166.721 451.479,164.491 454.333,161.349C465.157,149.432 463.001,146.882 462.104,145.821C457.823,140.755 456.202,144.268 455.994,144.719C455.722,145.308 456.051,145.432 453.065,152.284ZM317.98,328.753C318.616,329.196 318.495,330.281 321.447,329.246C342.088,322.007 363.817,327.238 402.759,297.841C446.727,264.651 449.543,232.001 451.917,211.554C453.543,197.551 459.151,186.553 452.286,178.706C449.913,175.994 449.497,178.947 449.341,179.441C446.578,188.236 432.523,213.128 429.011,218.159C426.213,222.167 421.734,220.053 422.305,216.469C422.617,214.515 443.365,181.354 443.76,172.51C444.445,157.157 401.245,189.359 389.441,199.428C370.056,215.964 369.491,220.701 365.44,218.596C360.814,216.193 367.432,210.075 370.322,207.311C397.886,180.95 413.198,173.548 421.365,168.279C426.481,164.978 426.667,165.438 432.387,163.315C433.735,162.815 433.112,161.629 432.619,161.379C425.536,157.793 414.768,162.539 403.462,167.419C395.026,171.061 391.877,171.117 387.534,172.607C344.683,187.307 323.215,222.29 320.765,225.687C315.049,233.613 307.039,250.971 305.471,256.492C300.954,272.394 300.695,272.394 299.694,292.511C298.651,313.463 294.427,316.031 297.551,315.744C297.922,315.71 298.165,315.687 299.646,311.584C302.289,304.26 319.455,274.461 330.125,259.244C333.468,254.475 337.21,246.212 341.386,249.636C343.837,251.647 341.601,254.822 338.053,260.186C323.825,281.697 323.967,281.779 322.707,283.633C320.922,286.262 306.474,312.625 305.608,314.548C301.095,324.57 297.359,330.454 298.617,331.309C299.44,331.869 304.059,328.405 306.763,326.973C318.848,320.575 318.838,320.647 330.734,313.893C355.601,299.776 364.423,292.395 385.089,274.061C390.588,269.183 393.648,275.024 389.917,278.89C375.423,293.909 351.382,309.596 347.795,311.936C323.586,327.733 322.073,325.245 317.98,328.753Z" style="fill:rgb(101,73,56);"/>
            </g>
            <g transform="matrix(2.75,0,0,2.75,0,0)">
                <path d="M386.505,229.153C388.167,229.339 400.554,229.198 399.02,249.479C397.667,267.377 376.805,267.418 374.202,252.564C373.192,246.8 371.93,233.258 382.606,229.844C385.184,229.019 386.43,229.159 386.505,229.153ZM392.05,250.426C392.092,249.629 392.432,243.158 391.619,240.463C390.649,237.248 389.833,236.667 389.539,236.457C378.988,228.932 377.249,256.044 385.54,257.267C390.659,258.022 391.5,252.61 392.05,250.426Z" style="fill:rgb(101,73,56);"/>
            </g>
            <g transform="matrix(2.75,0,0,2.75,0,0)">
                <path d="M370.931,233.522C369.852,239.056 367.949,240.697 363.468,251.486C359.074,262.068 358.472,262.247 357.51,262.533C355.943,262.998 350.89,263.205 351.914,260.65C352.273,259.756 352.498,259.867 356.972,249.722C357.347,248.871 359.46,244.078 362.075,239.28C363.282,237.066 363.991,235.776 361.479,235.796C352.149,235.868 348.586,236.397 347.777,234.424C347.69,234.211 347.47,230.881 348.371,230.353C348.95,230.014 348.972,229.745 367.496,229.863C370.991,229.885 370.815,230.892 370.931,233.522Z" style="fill:rgb(101,73,56);"/>
            </g>
            <g transform="matrix(2.75,0,0,2.75,0,0)">
                <path d="M401.973,237.5C403.573,225.666 414.402,228.61 416.494,233.503C421.521,245.255 403.903,252.824 401.973,237.5ZM407.042,236.417C407.02,236.913 406.774,242.441 410.517,241.563C414.32,240.67 412.119,230.782 408.226,234.143C407.092,235.122 407.13,236.179 407.042,236.417Z" style="fill:rgb(101,73,56);"/>
            </g>
            <g transform="matrix(2.75,0,0,2.75,0,0)">
                <path d="M421.9,253.536C424.482,239.585 442.012,248.32 435.06,260.156C433.231,263.271 421.707,266.865 421.9,253.536ZM431.96,254.496C431.894,254.026 432.136,252.389 430.743,251.18C426.677,247.647 424.62,259.177 429.527,258.843C431.578,258.704 431.924,254.893 431.96,254.496Z" style="fill:rgb(101,73,56);"/>
            </g>
            <g transform="matrix(2.75,0,0,2.75,0,0)">
                <path d="M413.497,251.498C414.188,250.438 419.717,241.956 422.153,238.266C426.671,231.42 427.008,229.929 429.507,229.643C434.048,229.125 428.916,235.32 428.699,235.633C419.969,248.203 420.831,248.717 412.153,261.275C410.437,263.757 407.009,263.199 407.149,261.466C407.231,260.448 412.955,252.272 413.497,251.498Z" style="fill:rgb(101,73,56);"/>
            </g>
        </g>
    </g>
</svg>
