<?xml version="1.0" encoding="UTF-8" standalone="no"?>
<!DOCTYPE svg PUBLIC "-//W3C//DTD SVG 1.1//EN" "http://www.w3.org/Graphics/SVG/1.1/DTD/svg11.dtd">
<svg width="100%" height="100%" viewBox="0 0 539 565" version="1.1" xmlns="http://www.w3.org/2000/svg" xmlns:xlink="http://www.w3.org/1999/xlink" xml:space="preserve" xmlns:serif="http://www.serif.com/" style="fill-rule:evenodd;clip-rule:evenodd;stroke-linejoin:round;stroke-miterlimit:2;">
    <g transform="matrix(1,0,0,1,-1482.615169,-372.596552)">
        <g>
            <g transform="matrix(2.75,0,0,2.75,0,0)">
                <path d="M639.488,328.084C659.623,326.945 669.249,323.558 683.583,316.676C690.026,313.582 690.211,316.309 693.02,320.799C698.875,330.157 703.205,333.426 704.365,334.635C707.777,338.189 703.623,344.129 697.794,338.218C691.729,332.067 692.091,331.815 687.22,324.705C686.021,322.954 685.481,323.893 676.509,327.52C633.462,344.927 592.915,326.386 583.584,323.25C564.904,316.972 563.799,319.531 554.738,313.15C551.856,311.12 552.026,310.96 549.19,308.888C535.717,299.042 538.659,292.045 541.721,282.569C543.652,276.591 538.097,256.468 555.033,225.238C565.187,206.515 566.208,207.166 571.183,199.287C590.464,168.757 584.272,162.29 601.632,151.729C605.171,149.577 643.151,135.305 648.5,135.491C656.642,135.775 660.894,141.391 661.755,142.227C675.175,155.269 676.817,158.414 677.118,163.537C677.542,170.736 673.58,172.587 675.944,176.221C685.13,190.345 667.195,201.775 654.241,192.87C649.638,189.705 649.097,192.871 643.507,192.383C633.269,191.489 632.821,186.419 627.604,187.865C620.819,189.746 619.289,188.15 617.808,192.599C612.907,207.312 613.746,217.907 614.407,226.506C616.181,249.587 614.086,250.877 614.286,252.55C614.721,256.183 618.589,249.132 633.468,246.335C657.45,241.827 668.346,253.121 671.539,252.842C672.963,252.718 682.518,243.845 686.737,241.984C702.256,235.138 714.984,234.341 732.496,241.51C736.165,243.012 734.743,247.023 733.62,247.661C731.172,249.051 728.676,247.358 727.367,246.858C698.298,235.754 678.415,256.128 677.947,257.578C677.415,259.222 689.272,267.681 686.251,272.333C683.131,277.135 677.734,268.429 677.67,268.356C656.943,244.792 632.095,253.111 626.616,255.74C606.835,265.234 607.16,275.5 601.596,273.209C596.59,271.148 602.812,264.583 603.018,264.21C614.761,242.937 601.989,227.631 609.339,196.461C610.13,193.106 611.418,190.419 611.849,188.574C612.73,184.806 603.929,183.616 605.902,178.687C607.695,174.207 614.825,180.221 615.484,180.532C620.371,182.837 622.469,182.595 626.533,180.562C632.604,177.525 634.615,169.353 638.649,173.352C642.556,177.226 633.673,181.46 637.497,183.505C643.218,186.563 647.914,185.63 653.772,181.963C666.724,173.856 677.222,167.456 664.314,154.692C652.185,142.699 651.388,140.902 642.34,144.06C640.002,144.876 622.496,150.882 620.553,151.637C604.262,157.97 599.283,157.252 590.973,176.704C582.192,197.261 577.153,202.308 567.943,216.793C545.614,251.91 549.78,273.758 548.913,281.562C547.882,290.844 541.678,293.769 552.434,302.581C561.912,310.347 565.514,311.23 570.567,312.072C587.645,314.918 604.454,328.036 639.488,328.084ZM664.492,189.044C667.84,188.464 668.321,189.112 670.357,186.399C671.672,184.647 671.358,182.858 671.303,182.545C670.43,177.56 666.637,182.525 662.292,185.187C655.889,189.109 663.232,188.933 664.492,189.044Z" style="fill:rgb(101,73,56);"/>
            </g>
            <g transform="matrix(2.75,0,0,2.75,0,0)">
                <path d="M654.567,300.914C663.979,299.002 663.824,298.538 672.323,294.135C676.482,291.98 680.257,297.111 675.306,300.189C647.845,317.26 622.266,304.91 615.181,299.981C608.986,295.672 614.599,292.093 618.276,293.952C621.657,295.662 621.482,295.865 621.774,296.007C638.938,304.36 651.186,301.435 654.567,300.914Z" style="fill:rgb(101,73,56);"/>
            </g>
            <g transform="matrix(2.75,0,0,2.75,0,0)">
                <path d="M567.895,258.57C566.139,271.076 568.056,272.897 564.485,273.417C558.979,274.219 560.482,264.847 560.915,259.545C561.981,246.477 567.619,235.674 572.826,226.688C576.068,221.093 581.514,225.158 579.306,229.408C573.485,240.611 571.93,240.085 567.895,258.57Z" style="fill:rgb(101,73,56);"/>
            </g>
        </g>
    </g>
</svg>
