<?xml version="1.0" encoding="UTF-8" standalone="no"?>
<!DOCTYPE svg PUBLIC "-//W3C//DTD SVG 1.1//EN" "http://www.w3.org/Graphics/SVG/1.1/DTD/svg11.dtd">
<svg width="100%" height="100%" viewBox="0 0 463 516" version="1.1" xmlns="http://www.w3.org/2000/svg" xmlns:xlink="http://www.w3.org/1999/xlink" xml:space="preserve" xmlns:serif="http://www.serif.com/" style="fill-rule:evenodd;clip-rule:evenodd;stroke-linejoin:round;stroke-miterlimit:2;">
    <g transform="matrix(1,0,0,1,-2147.085894,-385.205301)">
        <g>
            <g transform="matrix(2.75,0,0,2.75,0,0)">
                <path d="M872.453,252.973C876.105,253.643 879.635,252.962 877.737,262.549C876.851,267.028 874.984,270.449 878.412,271.719C883.002,273.421 889.472,273.89 886.659,279.584C886.285,280.343 870.914,303.974 839.634,317.808C816.667,327.965 787.974,330.128 783.995,325.054C776.693,315.743 782.806,281.48 791.823,263.665C793.629,260.097 801.288,241.519 825.289,220.256C832.877,213.534 834.941,213.088 837.325,217.595C841.257,225.029 842.079,230.654 845.478,230.818C855.577,231.308 864.199,229.175 864.275,234.501C864.299,236.185 862.947,241.438 862.202,245.432C861.403,249.707 859.211,251.713 863.531,252.163C866.481,252.47 871.739,252.913 872.453,252.973ZM853.952,256.376C853.201,250.414 857.543,240.796 856.672,238.397C856.145,236.947 845.788,237.71 841.557,237.135C837.834,236.629 838.366,232.078 835.546,234.555C817.652,250.271 812.476,263.45 809.5,263.514C808.922,263.527 805.544,263.114 810.241,256.329C819.631,242.765 821.344,241.175 833.381,230.367C837.032,227.089 832.516,223.528 831.657,223.886C831.488,223.957 827.334,227.029 821.764,232.752C789.345,266.056 788.627,297.871 787.678,304.507C787.649,304.715 786.729,312.696 789.934,305.854C794.664,295.757 798.891,289.918 800.033,288.18C801.538,285.889 810.189,272.721 821.35,261.348C831.525,250.981 832.594,251.709 833.433,252.56C835.639,254.796 830.455,258.116 820.758,268.731C808.486,282.165 796.68,301.565 793.877,307.682C789.164,317.966 787.786,319.714 790.446,319.906C792.462,320.051 836.889,302.973 866.099,271.147C873.965,262.577 870.432,259.818 869.467,259.651C861.849,258.331 857.8,259.404 853.952,256.376ZM821.398,317.147C848.859,309.47 864.019,295.994 877.168,281.227C879.816,278.253 875.289,278.087 871.282,275.939C868.205,274.289 867.657,275.886 865.321,278.332C842.951,301.745 809.914,317.248 806.355,318.218C801.903,319.433 803.411,320.918 803.688,321.062C804.377,321.423 804.376,321.098 806.502,320.52C813.882,318.514 813.98,319.138 821.398,317.147Z" style="fill:rgb(101,73,56);"/>
            </g>
            <g transform="matrix(2.75,0,0,2.75,0,0)">
                <path d="M948.957,161.481C951.754,208.833 917.222,245.648 914.556,246.638C908.953,248.719 909.412,237.739 906.567,237.18C902.822,236.444 894.065,242.286 892.877,233.448C891.868,225.936 892.329,222.181 889.567,222.875C883.104,224.498 872.235,228.942 870.833,225.352C869.796,222.697 871.584,208.032 870.211,206.845C868.599,205.452 853.995,208.921 851.974,206.15C851.218,205.113 847.874,188.059 848.829,185.614C849.828,183.059 877.784,149.229 923.444,141.221C942.618,137.859 944.882,142.803 945.629,144.434C948.639,151.007 948.855,159.717 948.957,161.481ZM941.668,161.751C940.199,164.077 936.375,184.93 919.111,212.248C917.427,214.911 910.199,224.781 908.011,227.085C905.856,229.357 905.126,229.306 905.774,230.323C906.909,232.106 911.569,227.76 913.529,234.488C914.659,238.366 916.52,234.649 917.976,232.896C918.092,232.757 935.359,213.07 940.737,183.545C942.543,173.632 942.103,173.6 943.024,163.565C943.154,162.155 942.639,162.351 941.668,161.751ZM898.986,229.157C899.919,229.178 900.041,229.435 900.641,228.729C912.994,214.209 917.824,205.462 919.115,203.274C926.204,191.27 929.589,181.582 930.175,180.355C933.458,173.475 939.23,155.296 940.012,150.432C940.725,146.002 935.565,146.974 933.477,147.038C908.559,147.809 880.013,163.009 863.392,179.389C855.609,187.059 854.901,187.772 855.411,190.517C856.067,194.053 855.886,194.079 855.983,194.376C857.389,198.673 857.559,192.528 872.466,179.461C884.487,168.922 885.592,170.491 886.148,170.927C889.945,173.908 879.949,177.033 866.169,192.208C859.662,199.374 859.945,199.92 860.492,200.51C861.211,201.285 873.555,198.55 875.424,199.658C879.229,201.914 875.948,215.997 877.274,218.669C878.286,220.706 891.949,213.996 895.533,215.433C896.584,215.854 897.566,216.247 898.986,229.157Z" style="fill:rgb(101,73,56);"/>
            </g>
            <g transform="matrix(2.75,0,0,2.75,0,0)">
                <path d="M839.775,188.405C839.922,188.919 841.138,191.378 839.694,192.707C839.325,193.046 836.225,194.828 834.525,190.488C832.215,184.592 832.484,184.523 830.177,178.627C827.991,173.041 821.191,185.876 817.779,178.375C816.649,175.89 816.945,175.447 812.599,165.462C811.156,162.146 810.76,159.733 812.662,158.804C818.113,156.14 819.669,173.774 823.358,173.048C826.352,172.459 831.029,164.689 833.988,172.32C834.483,173.595 837.282,180.815 839.775,188.405Z" style="fill:rgb(101,73,56);"/>
            </g>
            <g transform="matrix(2.75,0,0,2.75,0,0)">
                <path d="M826.458,194.552C836.498,202.74 838.954,205.782 835.693,206.94C830.552,208.763 821.818,195.106 819.415,198.418C816.109,202.975 815.737,209.058 809.378,202.62C801.932,195.081 795.123,190.447 798.554,187.562C802.721,184.059 810.163,198.996 813.504,196.505C816.454,194.306 815.9,185.883 823.612,192.36C823.832,192.545 823.848,192.518 826.458,194.552Z" style="fill:rgb(101,73,56);"/>
            </g>
            <g transform="matrix(2.75,0,0,2.75,0,0)">
                <path d="M887.733,189.686C885.59,192.36 882.12,198.53 879.698,196.28C878.826,195.469 877.813,194.439 886.286,184.325C888.356,181.854 897.91,170.45 915.814,156.9C919.936,153.78 923.163,156.367 920.212,159.181C916.785,162.447 903.037,170.941 887.733,189.686Z" style="fill:rgb(101,73,56);"/>
            </g>
            <g transform="matrix(2.75,0,0,2.75,0,0)">
                <path d="M852.574,258.737C853.848,259.312 854.642,259.075 854.103,260.372C851.101,267.594 818.569,298.855 815.486,298.708C814.659,298.669 812.397,297 814.704,294.716C821.049,288.435 826.755,285.074 845.549,264.545C848.686,261.118 848.506,260.897 852.574,258.737Z" style="fill:rgb(101,73,56);"/>
            </g>
            <g transform="matrix(2.75,0,0,2.75,0,0)">
                <path d="M901.445,204.45C894.568,212.7 893.029,212.896 891.631,211.404C889.788,209.437 893.975,206.927 900.94,197.862C903.15,194.986 908.659,188.203 909.337,187.369C909.52,187.143 909.51,187.139 917.447,175.459C919.263,172.788 923.799,173.75 920.743,178.641C919.964,179.888 915.536,188.059 901.445,204.45Z" style="fill:rgb(101,73,56);"/>
            </g>
        </g>
    </g>
</svg>
