<?xml version="1.0" encoding="UTF-8" standalone="no"?>
<!DOCTYPE svg PUBLIC "-//W3C//DTD SVG 1.1//EN" "http://www.w3.org/Graphics/SVG/1.1/DTD/svg11.dtd">
<svg width="100%" height="100%" viewBox="0 0 301 352" version="1.1" xmlns="http://www.w3.org/2000/svg" xmlns:xlink="http://www.w3.org/1999/xlink" xml:space="preserve" xmlns:serif="http://www.serif.com/" style="fill-rule:evenodd;clip-rule:evenodd;stroke-linejoin:round;stroke-miterlimit:2;">
    <g transform="matrix(1,0,0,1,-1191.463662,-540.884413)">
        <g>
            <g transform="matrix(1.539062,0,0,1.539062,172,0)">
                <path d="M777.349,466.339C759.769,482.769 736.238,480.85 734.492,480.796C728.214,480.602 726.892,476.521 727.402,462.497C727.752,452.864 729.579,449.962 731.57,443.524C731.97,442.233 737.753,429.54 748.713,421.799C759.614,414.098 764.128,413.707 771.51,411.543C771.735,411.477 777.801,410.552 779.5,410.504C785.933,410.322 786.854,412.99 790.474,409.473C795.995,404.108 799.269,409.099 796.1,413.217C793.886,416.093 792.825,416.098 793.97,420.372C795.949,427.758 794.833,427.861 793.648,437.523C792.654,445.623 786.549,457.61 777.349,466.339ZM779.539,455.531C780.881,453.428 780.856,453.447 782.128,451.288C788.374,440.683 789.371,430.986 789.187,430.692C787.848,428.556 786.08,433.402 785.958,433.735C785.011,436.331 780.437,448.867 765.633,461.657C756.569,469.488 752.546,470.569 749.682,471.856C749.354,472.003 744.743,474.075 746.667,475.188C747.595,475.724 757.397,471.994 759.282,471.048C772.3,464.518 774.17,461.841 779.539,455.531ZM751.308,465.164C755.077,462.544 755,462.482 758.726,459.831C760.115,458.843 766.711,454.149 773.605,444.582C780.153,435.496 780.522,433.009 781.664,430.577C783.489,426.688 783.095,426.561 784.662,422.537C784.757,422.292 786.274,418.399 782.395,420.164C768.965,426.277 765.8,429.333 758.906,434.969C751.889,440.706 741.192,456.069 737.5,466.5C736.422,469.546 735.191,471.459 736.616,472.158C736.879,472.287 737.09,472.6 751.308,465.164ZM743.162,435.217C735.407,444.897 731.906,461.029 732.399,461.565C733.188,462.422 734.221,461.422 734.333,461.314C734.967,460.701 737.005,449.857 749.533,436.531C764.863,420.225 769.403,422.006 773.825,418.719C775.147,417.736 773.672,416.529 772.511,416.837C768.572,417.881 756.238,422.949 751.721,426.764C747.107,430.66 747.098,430.618 743.162,435.217Z" style="fill:white;"/>
            </g>
            <g transform="matrix(1.539062,0,0,1.539062,172,0)">
                <path d="M809.807,544.529C809.725,547.191 810.324,554.345 806.5,554.415C801.753,554.502 803.868,541.216 805.856,536.643C809.654,527.902 812.565,527.896 827.959,512.965C839.188,502.075 840.258,502.46 843.951,490.65C852.488,463.352 852.394,463.194 852.147,449.504C851.752,427.658 853.149,421.31 847.437,422.162C845.922,422.389 843.28,424.812 843.106,428.473C841.827,455.341 842.687,459.415 838.702,457.079C834.661,454.71 836.835,452.459 837.09,434.491C837.255,422.835 839.421,412.608 833.499,412.624C832.324,412.627 829.116,414.04 829.083,418.489C829.064,421.049 829.294,421.021 829.114,450.492C829.085,455.26 823.66,456.644 823.413,452.508C823.139,447.936 823.99,425.426 822.965,424.139C821.504,422.304 817.332,424.023 817.222,428.488C816.852,443.423 817.97,458.013 816.25,460.33C812.205,465.782 811.209,461.981 811.192,461.565C811.034,457.832 811.711,441.113 810.816,440.156C809.497,438.747 806.263,441.505 806.113,445.472C805.792,453.975 807.052,469.514 805.314,472.397C802.974,476.275 800.173,476.86 800.117,473.549C800.082,471.465 800.201,471.496 800.272,447.5C800.305,436.147 805.808,434.947 810.354,433.195C812.559,432.345 809.511,422.291 817.373,418.272C820.927,416.456 822.639,418.435 823.618,415.538C823.777,415.066 825.42,406.651 833.5,406.595C840.307,406.548 842.508,413.482 842.802,414.409C844.499,419.753 848.894,412.896 854.479,418.521C858.931,423.005 857.213,423.964 857.863,453.491C858.134,465.812 857.294,465.759 851.4,487.473C851.221,488.131 850.969,488.04 848.812,495.59C846.348,504.216 835.595,513.79 834.137,515.088C832.446,516.593 816.485,530.803 813.686,534.632C810.882,538.467 809.955,543.692 809.807,544.529Z" style="fill:white;"/>
            </g>
            <g transform="matrix(1.539062,0,0,1.539062,172,0)">
                <path d="M708.917,429.492C709.231,432.561 709.516,432.715 712.373,433.852C722.11,437.727 720.415,446.063 720.726,469.495C720.732,469.881 721.818,478.487 717.62,475.313C714.466,472.929 714.792,472.275 714.632,454.498C714.618,452.909 715.475,439.85 710.537,439.694C708.021,439.614 709.863,461.438 708.813,462.718C707.119,464.782 703.661,459.964 703.505,457.5C702.659,444.121 704.843,428.096 701.391,424.609C697.272,420.449 697.08,427.07 697.068,427.486C696.536,445.903 699.665,457.562 693.521,454.461C691.027,453.202 691.728,452.364 691.607,429.5C691.589,426.166 692.836,412.383 686.519,412.79C685.434,412.859 681.6,414.726 682.314,420.52C682.529,422.268 682.472,422.267 683.861,442.478C684.696,454.639 683.951,455.394 683.18,456.174C682.796,456.563 678.859,459.956 678.651,454.493C677.834,432.941 678.371,420.414 671.422,422.262C668.456,423.05 668.302,426.996 668.283,427.483C668.141,431.144 668.116,456.658 668.267,459.515C668.743,468.513 672.326,476.813 675.136,486.593C679.493,501.761 681.312,502.36 692.651,513.348C711.058,531.184 715.204,530.036 716.864,548.466C716.913,549.019 717.559,556.187 712.755,554.057C708.971,552.379 714.17,540.389 703.094,530.955C700.849,529.043 684.268,513.78 681.813,511.2C674.183,503.181 673.222,500.197 670.663,492.447C670.298,491.341 670.47,491.311 666.437,478.52C666.186,477.725 666.275,477.713 663.736,468.451C663.213,466.545 662.022,465.163 662.506,427.5C662.661,415.446 672.265,416.099 673.526,416.185C679.062,416.561 676.632,412.93 679.775,409.769C684.605,404.912 692.469,406.06 694.816,411.352C695.967,413.946 696.567,417.062 698.525,417.335C705.946,418.37 708.583,421.549 708.917,429.492Z" style="fill:white;"/>
            </g>
            <g transform="matrix(1.539062,0,0,1.539062,172,0)">
                <path d="M756.936,354.578C757.065,354.284 758.192,351.731 759.495,351.476C761.054,351.172 762.933,352.712 763.54,354.487C765.536,360.326 765.958,360.126 772.387,370.571C774.849,374.571 776.137,371.937 782.546,367.571C790.391,362.226 792.997,360.229 794.356,362.588C794.757,363.286 795.121,363.917 792.336,372.445C789.094,382.372 789.458,382.448 786.343,392.446C785.426,395.388 781.249,394.498 780.5,394.491C760.064,394.292 749.975,394.564 740.5,394.467C735.877,394.42 734.17,395.388 732.245,388.57C725.98,366.374 725.485,366.507 725.285,364.514C724.449,356.191 739.888,369.872 744.549,372.386C746.538,373.459 748.589,369.511 751.975,363.768C755.599,357.62 756.187,357.888 756.936,354.578ZM741.755,377.088C738.785,375.301 734.032,371.573 733.925,373.566C733.889,374.238 734.061,374.179 735.31,377.56C736.952,382 737.353,387.96 739.336,388.809C741.08,389.556 779.934,389.157 780.343,389.041C781.458,388.725 781.486,388.479 785.453,375.491C785.814,374.309 786.724,374.042 785.633,373.424C785.246,373.205 784.984,372.659 784.539,372.663C783.595,372.67 775.348,381.749 771.493,379.51C769.691,378.464 762.179,364.382 761.667,363.374C761.621,363.284 760.062,360.722 758.646,363.604C757.431,366.077 755.528,367.893 751.203,375.333C748.261,380.392 746.802,380.508 741.755,377.088Z" style="fill:white;"/>
            </g>
            <g transform="matrix(1.539062,0,0,1.539062,172,0)">
                <path d="M750.678,528.497C750.645,527.853 750.474,524.545 749.276,520.565C742.558,498.249 729.038,494.369 717.666,488.17C706.722,482.204 694.286,456.685 687.15,466.25C684.183,470.225 690.803,477.008 691.279,477.652C700.247,489.783 700.362,489.679 701.089,490.769C704.482,495.854 711.29,502.215 708.082,505.044C704.993,507.766 701.499,500.398 700.621,499.401C699.267,497.863 699.342,497.811 684.842,479.217C673.21,464.301 686.325,454.946 696.415,459.705C697.787,460.353 701.011,461.873 710.043,472.902C717.448,481.944 718.159,481.247 730.272,487.927C759.263,503.913 756.676,530.134 756.624,550.501C756.623,550.921 756.613,554.808 753.494,554.726C750.084,554.636 750.905,552.788 750.678,528.497Z" style="fill:white;"/>
            </g>
            <g transform="matrix(1.539062,0,0,1.539062,172,0)">
                <path d="M766.731,515.552C768.391,510.669 768.318,510.657 768.832,509.673C779.327,489.553 789.478,490.5 802.248,481.16C811.918,474.088 819.918,455.916 831.51,458.452C838.441,459.969 839.265,463.748 840.181,466.583C841.194,469.72 837.855,476.303 835.371,479.396C817.252,501.957 818.129,502.588 816.46,504.466C813.901,507.347 811.432,504.658 811.194,503.583C810.386,499.937 820.146,490.239 823,486.136C830.358,475.562 838.294,466.686 831.576,464.315C824.826,461.933 818.96,472.519 809.114,483.159C808.05,484.308 806.712,485.754 792.582,493.64C779.576,500.899 775.798,507.374 772.299,517.431C766.657,533.645 773.603,553.794 767.477,554.279C763.417,554.6 764.319,547.684 764.317,547.501C764.11,522.577 764.84,521.708 766.731,515.552Z" style="fill:white;"/>
            </g>
            <g transform="matrix(1.539062,0,0,1.539062,172,0)">
                <path d="M777.499,403.762C755.455,403.747 746.438,403.958 739.497,403.95C732.307,403.941 734.365,398.326 737.56,397.957C738.336,397.867 777.062,397.915 780.497,397.92C780.963,397.92 786.084,397.926 785.146,401.432C784.334,404.468 780.272,403.763 777.499,403.762Z" style="fill:white;"/>
            </g>
            <g transform="matrix(1.539062,0,0,1.539062,172,0)">
                <path d="M728.358,573.776C728.543,573.957 731.572,575.536 729.679,578.63C728.369,580.772 722.559,580.178 722.756,576.516C722.828,575.175 724.392,573.895 724.654,573.746C726.375,572.769 726.459,573.255 728.358,573.776Z" style="fill:white;"/>
            </g>
        </g>
    </g>
</svg>
