<?xml version="1.0" encoding="UTF-8" standalone="no"?>
<!DOCTYPE svg PUBLIC "-//W3C//DTD SVG 1.1//EN" "http://www.w3.org/Graphics/SVG/1.1/DTD/svg11.dtd">
<svg width="100%" height="100%" viewBox="0 0 307 315" version="1.1" xmlns="http://www.w3.org/2000/svg" xmlns:xlink="http://www.w3.org/1999/xlink" xml:space="preserve" xmlns:serif="http://www.serif.com/" style="fill-rule:evenodd;clip-rule:evenodd;stroke-linejoin:round;stroke-miterlimit:2;">
    <g transform="matrix(1,0,0,1,-1188.340663,-74.117291)">
        <g>
            <g transform="matrix(1.539062,0,0,1.539062,172,0)">
                <path d="M859.106,82.499C858.882,93.319 857.656,96.899 849.12,108.235C845.117,113.552 831.597,122.438 822.308,127.123C791.46,142.682 791.085,142.011 775.835,151.991C771.768,154.653 774.9,155.776 779.316,160.666C784.769,166.703 795.971,178.067 797.442,179.559C798.891,181.03 845.051,229.301 850.414,236.563C857.544,246.215 846.977,260.468 833.695,247.301C832.248,245.867 831.915,246.258 815.156,229.853C813.619,228.349 813.296,228.751 795.584,211.417C777.86,194.071 777.548,194.445 760.361,176.628C760.077,176.335 757.149,173.299 756.585,173.197C754.469,172.815 755.206,174.405 746.293,183.294C742.611,186.966 724.999,205.841 724.493,207.498C723.18,211.798 726.326,212.838 721.685,223.576C719.727,228.104 718.929,237.561 726.756,242.066C731.58,244.841 732.889,244.962 741.549,246.11C742.569,246.245 755.983,246.947 768.492,243.472C778.936,240.571 783.535,239.28 796.724,231.905C803.795,227.952 804.85,225.883 807.435,228.563C809.304,230.501 808.348,232.208 807.18,233.134C802.7,236.681 785.768,245.482 775.447,248.287C755.461,253.721 741.885,252.975 731.581,251.098C725.268,249.948 713.858,242.445 713.841,231.493C713.822,219.347 719.426,217.503 717.283,215.744C715.569,214.338 716.263,217.112 704.115,229.114C687.241,245.786 681.092,255.054 670.556,252.243C665.702,250.948 655.682,242.96 664.565,230.545C667.235,226.814 696.556,196.275 704.616,189.628C709.892,185.277 698.992,184.933 692.445,186.28C689.824,186.82 680.654,189.792 669.595,181.38C663.701,176.897 658.784,163.499 661.736,150.563C662.664,146.499 662.209,146.447 663.195,142.416C669.046,118.501 677.927,104.669 681.505,104.608C683.771,104.57 685.534,106.813 684.09,109.274C683.903,109.593 668.017,132.575 667.428,159.5C667.298,165.411 668.988,180.706 685.494,180.231C696.943,179.902 701.988,176.75 709.761,181.001C712.824,182.677 713.068,181.187 723.338,171.336C737.355,157.893 737.734,158.06 738.12,156.425C738.709,153.935 736.537,154.868 714.606,129.409C711.121,125.363 711.021,125.491 707.645,121.391C706.492,119.991 706.464,120.039 692.943,104.146C689.743,100.384 684.555,102.685 676.716,98.137C661.673,89.409 659.809,66.359 660.478,60.498C661.544,51.159 662.677,47.639 665.49,48.531C668.742,49.561 668.19,57.31 681.423,61.718C692.434,65.386 693.863,66.406 694.802,67.076C707.761,76.321 702.887,86.774 705.935,90.088C709.881,94.38 712.45,94.586 744.913,126.078C755.343,136.196 755.244,136.589 756.496,136.607C761.511,136.68 772.809,103.502 779.178,90.344C784.936,78.448 793.536,53.799 818.511,48.561C821.511,47.932 834.71,47.218 842.624,53.34C846.031,55.975 851.961,58.83 856.658,69.431C859.494,75.832 858.906,77.101 859.106,82.499ZM720.513,118.512C722.927,115.843 723.668,114.845 723.05,113.739C722.282,112.364 721.999,111.857 708.626,100.347C703.252,95.721 702.524,94.4 700.581,95.628C695.063,99.115 697.927,100.742 702.012,105.869C707.786,113.116 708.182,112.745 714.074,119.883C716.742,123.116 717.655,121.553 720.513,118.512ZM732.612,140.393C742.516,151.227 742.764,151.857 744.293,151.085C745.065,150.695 751.673,144.406 752.166,143.349C753.138,141.267 748.185,137.99 744.842,134.213C744.186,133.472 737.177,126.733 736.556,126.411C733.349,124.753 726.948,132.074 727.561,134.48C727.715,135.082 727.798,135.408 732.612,140.393ZM722.548,123.552C717.713,128.296 723.063,128.158 723.291,128.041C723.622,127.872 730.246,122.111 730.111,120.531C730.02,119.468 728.414,118.291 726.625,119.667C726.267,119.942 726.348,119.96 722.548,123.552ZM723.346,199.362C738.512,182.68 739.543,181.437 740.884,179.82C745.076,174.766 745.618,175.278 756.98,161.908C762.257,155.697 766.522,154.962 762.34,150.657C758.737,146.947 758.027,146.277 756.216,148.196C753.1,151.5 746.342,157.418 742.326,161.324C714.304,188.577 714.166,188.367 711.796,190.797C697.967,204.98 670.177,230.909 667.932,236.67C667.679,237.317 665.619,242.603 669.715,245.168C674.997,248.477 679.599,244.718 680.255,244.183C681.534,243.138 690.789,234.359 691.036,234.067C696.499,227.611 713.054,210.681 723.346,199.362ZM817.203,94.209C792.958,120.016 785.791,128.513 776.553,136.544C774.856,138.018 773.698,138.297 775.301,139.892C776.469,141.054 779.361,136.62 789.167,129.03C811.384,111.834 834.159,101.18 842.547,80.52C843.812,77.405 846.004,68.165 844.872,67.146C843.493,65.906 843.255,67.051 836.659,73.665C835.38,74.948 835.629,75.123 821.099,90.118C819.164,92.114 817.512,93.879 817.203,94.209ZM831.35,56.35C831.327,55.806 830.93,55.969 830.907,55.418C830.872,54.586 831.307,54.826 831.283,54.771C830.943,53.996 821.615,54.116 819.512,54.554C798.499,58.932 791.054,78.253 778.357,107.439C771.787,122.542 768.651,124.975 770.672,126.168C772.097,127.009 771.813,125.816 773.384,123.417C774.272,122.06 780.051,110.177 792.992,89.792C794.324,87.694 803.421,73.365 812.839,65.901C823.013,57.837 830.818,56.531 831.35,56.35ZM828.787,235.2C829.61,235.984 837.074,243.09 839.395,244.645C844.87,248.312 848.372,245.451 845.236,239.63C844.382,238.044 844.307,238.08 811.8,203.221C794.27,184.423 772.197,161.727 770.891,160.167C768.731,157.589 767.101,159.966 764.74,162.706C760.938,167.12 761.116,168.035 761.22,168.572C761.634,170.699 773.488,181.405 780.406,188.59C781.459,189.683 802.021,209.157 809.807,217.217C810.718,218.16 815.261,221.726 828.787,235.2ZM672.696,86.353C676.402,90.335 681.329,95.532 689.479,95.134C693.197,94.953 703.801,88.922 695.193,75.701C689.676,67.227 676.344,70.464 668.653,61.229C667.692,60.075 666.54,60.977 666.64,62.518C667.249,71.933 667.54,76.937 672.696,86.353ZM825.371,64.231C809.485,74.498 805.51,80.082 792.085,102.252C780.963,120.619 777.88,124.656 776.48,126.489C772.531,131.657 770.844,133.384 772.533,134.03C774.569,134.809 777.94,126.635 812.105,91.115C814.298,88.835 839.167,62.98 839.347,62.449C839.434,62.19 838.706,60.832 838.425,60.716C836.303,59.839 826.375,63.828 825.371,64.231ZM849.137,79.422C848.817,80.619 847.682,84.86 842.139,93.244C835.803,102.827 821.046,113.635 805.82,123.937C805.478,124.168 801.43,127.465 786.499,136.499C783.81,138.126 785.248,139.667 786.468,139.234C789.697,138.09 790.993,135.808 815.287,124.038C825.154,119.257 840.459,110.058 846.149,102.239C852.421,93.621 853.934,87.503 852.759,75.42C852.726,75.078 852.288,70.574 850.607,71.704C849.199,72.651 850.565,73.235 849.137,79.422Z" style="fill:white;"/>
            </g>
            <g transform="matrix(1.539062,0,0,1.539062,172,0)">
                <path d="M859.099,149.489C858.793,155.382 858.975,161.425 852.111,179.337C847.497,191.376 835.495,207.938 834.534,208.544C830.993,210.775 827.065,206.988 831.041,202.118C838.956,192.424 841.663,187.901 848.547,170.52C849.403,168.359 849.804,165.492 851.325,160.451C852.861,155.363 854.471,133.172 851.245,122.568C849.374,116.418 849.395,113.664 851.61,112.752C858.4,109.956 859.072,133.6 859.126,135.517C859.283,141.018 859.618,140.997 859.202,146.466C859.183,146.707 859.194,146.69 859.099,149.489Z" style="fill:white;"/>
            </g>
            <g transform="matrix(1.539062,0,0,1.539062,172,0)">
                <path d="M762.495,60.435C733.714,63.538 714.941,79.169 712.663,79.931C707.833,81.548 705.647,77.408 710.236,74.128C713.81,71.573 726.507,60.975 755.534,54.748C755.55,54.745 768.382,53.588 769.499,53.487C777.53,52.764 777.498,53.538 785.507,54.436C795.779,55.588 791.788,59.755 791.252,60.116C789.25,61.464 786.755,60.609 780.508,60.371C771.462,60.027 771.499,60.058 762.495,60.435Z" style="fill:white;"/>
            </g>
            <g transform="matrix(1.539062,0,0,1.539062,172,0)">
                <path d="M763.434,225.429C760.354,227.853 760.382,228.194 756.495,228.331C747.366,228.655 742.489,218.435 745.983,212.768C755.864,196.744 774.923,213.298 763.434,225.429Z" style="fill:white;"/>
            </g>
            <g transform="matrix(1.539062,0,0,1.539062,172,0)">
                <path d="M707.571,147.497C707.514,150.248 707.915,153.28 702.314,157.238C693.363,163.563 679.196,150.54 688.582,140.578C694.494,134.303 706.741,135.81 707.571,147.497Z" style="fill:white;"/>
            </g>
            <g transform="matrix(1.539062,0,0,1.539062,172,0)">
                <path d="M833.234,159.498C833.154,160.821 833.788,165.564 827.765,168.986C826.811,169.528 815.565,173.698 811.586,161.477C809.77,155.897 816.286,144.85 827.482,149.542C829.223,150.272 830.605,151.924 831.217,152.71C833.625,155.806 833.174,158.726 833.234,159.498Z" style="fill:white;"/>
            </g>
            <g transform="matrix(1.539062,0,0,1.539062,172,0)">
                <path d="M751.496,101.066C749.738,100.896 741.902,101.093 740.564,91.49C738.831,79.053 757.196,74.317 761.451,86.518C761.659,87.116 762.991,90.934 761.344,94.434C758.323,100.854 754.249,100.683 751.496,101.066Z" style="fill:white;"/>
            </g>
        </g>
    </g>
</svg>
